<svg xmlns="http://www.w3.org/2000/svg" xmlns:xlink="http://www.w3.org/1999/xlink" height="682.667" viewBox="-31 0 511 512" width="682.667" xmlns:v="https://vecta.io/nano"><path d="M143.043 371.3c-15.203-.527-28.113-10.12-33.72-23.437-6.426 6.95-15.613 11.3-25.824 11.3-17.832 0-32.55-13.27-34.848-30.473A36.54 36.54 0 0 1 44 329c-19.883 0-36-16.117-36-36 0-11.75 5.633-22.18 14.34-28.754-6.496-6.64-10.508-15.723-10.508-25.746 0-16.195 10.453-29.953 24.984-34.887 0 0 75.516-32.95 174.848 28.387s-24.5 134.668-24.5 134.668-16.078 5.598-44.12 4.633zm129.68-29.24c4.086 17.168 19.523 29.94 37.94 29.94 17.77 0 32.75-11.887 37.457-28.137 6.523 6.566 15.56 10.637 25.543 10.637 19.883 0 36-16.117 36-36a35.84 35.84 0 0 0-1.957-11.707c19.64-2.023 34.957-18.617 34.957-38.793 0-16.78-10.594-31.086-25.465-36.586 0 0-58.367-12.914-110.617 4.086s-33.86 106.56-33.86 106.56zm0 0" fill="#6a6"/><path d="M407.715 306.8a36.07 36.07 0 0 1 1.949 11.711c0 19.88-16.1 36-36 36-5.34 0-10.422-1.172-14.98-3.27 12.4-5.7 20.98-18.2 20.98-32.73a36.07 36.07 0 0 0-1.949-11.711c19.637-2.02 34.95-18.617 34.95-38.8 0-16.78-10.6-31.1-25.46-36.6 0 0-13.94-3.082-34.3-4.25 35.367-2.148 64.3 4.25 64.3 4.25 14.87 5.5 25.46 19.8 25.46 36.6 0 20.172-15.312 36.77-34.95 38.8zM343.2 354.488C336.223 365.04 324.254 372 310.664 372c-5.32 0-10.4-1.06-15.012-2.988a39.11 39.11 0 0 0 22.469-25.152c6.422 6.47 15.28 10.512 25.07 10.63zm0 0" fill="#508950"/><path d="M283.082 240.25c8.5 13.75 12.86 38.004 12.86 38.004 2.246 48.926-29.367 63.895-42.277 86.746-32.5 44.5 15 68.5 15 68.5v25H129l1-25s-25-37.5 24.332-66.836c46.25-27.5 97.773-47.97 90.852-86.125 0 0-6.102-27.29-10.602-32.29s48.5-8 48.5-8zm0 0" fill="#9e6f4f"/><path d="M268.664 433.5v25h-30v-25s-47.5-24-15-68.5c12.9-22.852 44.52-37.82 42.277-86.738 0 0-3.88-21.602-11.457-35.6 13.418-1.562 28.598-2.422 28.598-2.422 8.5 13.75 12.86 38.012 12.86 38.012 2.242 48.918-29.367 63.887-42.277 86.738-32.5 44.5 15 68.5 15 68.5zm0 0" fill="#875d41"/><path d="M294.164 478.5v-35a10 10 0 0 0-10-10H107.168a10 10 0 0 0-10 10v35zm0 0" fill="#96bc5e"/><path d="M294.164 443.5v35h-30v-35c0-5.52-4.48-10-10-10h30c5.52 0 10 4.48 10 10zm0 0" fill="#85993d"/><path d="M304.465 458.5c9.598 0 16.723 8.887 14.645 18.254l-3.336 15c-1.523 6.863-7.61 11.746-14.64 11.746H90.203c-7.03 0-13.117-4.883-14.64-11.746l-3.336-15c-2.082-9.367 5.047-18.254 14.645-18.254zm0 0" fill="#9e7f56"/><path d="M319.102 476.75l-3.328 15a14.99 14.99 0 0 1-14.641 11.75h-30a14.99 14.99 0 0 0 14.641-11.75l3.328-15c2.1-9.36-5.04-18.25-14.637-18.25h30c9.598 0 16.727 8.89 14.637 18.25zm0 0" fill="#87613c"/><path d="M442.664 129c0-24.3-19.695-44-44-44a44.83 44.83 0 0 0-4.18.203 43.7 43.7 0 0 0 .18-3.871c0-24.113-19.547-43.668-43.664-43.668-11.848 0-22.6 4.727-30.457 12.39-3.28-18.5-19.434-32.555-38.88-32.555-15.22 0-28.418 8.613-35.016 21.227C243.652 20.45 227.793 6.5 208.664 6.5c-14.898 0-27.816 8.473-34.215 20.855-6.93-6.715-16.37-10.855-26.785-10.855-21.262 0-38.5 17.238-38.5 38.5 0 1.055.055 2.098.14 3.133-5.266-2.434-11.125-3.8-17.305-3.8-22.828 0-41.332 18.508-41.332 41.332a41.15 41.15 0 0 0 6.324 21.969C34.687 121.297 17.664 140.656 17.664 164c0 25.957 21.047 47 47 47 1.383 0 2.746-.07 4.094-.187 3.5 21.652 22.27 38.188 44.906 38.188a45.28 45.28 0 0 0 27.656-9.379c3.625 21.223 22.094 37.38 44.344 37.38 17.504 0 32.66-9.996 40.102-24.6 4.656 18.746 21.6 32.64 41.777 32.64 16.785 0 31.32-9.613 38.418-23.633 7.258 5.988 16.563 9.582 26.703 9.582 20.242 0 37.137-14.32 41.113-33.387 4.855 2.172 10.227 3.387 15.887 3.387 21.54 0 39-17.46 39-39 0-12.852-6.22-24.246-15.81-31.352 17.336-5.906 29.81-22.316 29.81-41.648zm0 0" fill="#96bc5e"/><path d="M316.242 37.93c-9.95 1.082-18.898 5.5-25.7 12.12-2.38-13.45-11.57-24.55-23.88-29.602 4.617-1.898 9.688-2.95 15-2.95 14.898 0 27.867 8.25 34.578 20.43zm96.62 132.718c9.6 7.102 15.8 18.5 15.8 31.352 0 21.54-17.46 39-39 39a38.84 38.84 0 0 1-14.98-3c14.078-5.88 23.98-19.78 23.98-36 0-12.852-6.2-24.25-15.8-31.352 17.328-5.9 29.8-22.32 29.8-41.648 0-24.3-19.7-44-44-44a44.65 44.65 0 0 0-4.18.2 42.16 42.16 0 0 0 .18-3.87c0-18.84-11.94-34.898-28.66-41.008 4.68-1.72 9.72-2.648 15-2.648 24.1 0 43.66 19.547 43.66 43.656 0 1.313-.062 2.602-.18 3.87 1.38-.13 2.77-.2 4.18-.2 24.3 0 44 19.7 44 44 0 19.328-12.473 35.738-29.8 41.648zm-39.27 67.792c-4.28 18.66-20.974 32.56-40.93 32.56a41.78 41.78 0 0 1-14.98-2.762c13.18-5.047 23.16-16.54 26.098-30.617A38.95 38.95 0 0 0 359.664 241a39.01 39.01 0 0 0 13.93-2.559zm0 0" fill="#85993d"/><path d="M427.953 229.348c5.176-7.496 8.215-16.57 8.215-26.348 0-10.695-3.75-21.027-10.36-29.23A51.49 51.49 0 0 0 450.168 130c0-27.27-21.3-49.652-48.137-51.39-1.9-26.48-24.07-47.44-51.03-47.44-9.48 0-18.598 2.578-26.52 7.398C317.027 22.086 300.492 11 281.664 11c-12.352 0-23.914 4.79-32.523 13.06C241.316 9.535 226.04 0 208.664 0c-14.238 0-27.383 6.488-36.012 17.375C165.266 12.578 156.645 10 147.664 10c-22.95 0-42.027 16.898-45.453 38.902-3.332-.71-6.742-1.07-10.21-1.07-26.93 0-48.836 21.906-48.836 48.836a48.8 48.8 0 0 0 3.063 17.023C24.852 121.293 10.164 141.54 10.164 165c0 14.332 5.574 27.38 14.648 37.117-12.56 8.012-20.48 21.996-20.48 37.383 0 9.027 2.695 17.668 7.703 24.98C4.63 272.445.5 282.86.5 294c0 23.555 18.813 42.793 42.203 43.48 5.39 17.613 21.863 30.188 40.797 30.188 8.492 0 16.766-2.566 23.734-7.227a46.21 46.21 0 0 0 22.895 17.004c-6.543 7.25-10.832 15.207-12.785 23.816-2.28 10.05-.89 19.07 1.176 25.738h-11.352c-9.648 0-17.5 7.852-17.5 17.5v7.5h-2.8c-6.86 0-13.258 3.07-17.55 8.422s-5.902 12.262-4.414 18.96l3.332 14.996C70.543 504.754 79.574 512 90.2 512h158.965a7.5 7.5 0 1 0 0-15H90.2c-3.54 0-6.55-2.414-7.32-5.87l-3.332-15c-.496-2.234.04-4.535 1.473-6.32s3.563-2.81 5.848-2.81h10.3a7.5 7.5 0 0 0 7.5-7.5v-15a2.5 2.5 0 0 1 2.5-2.496h176.996a2.5 2.5 0 0 1 2.5 2.496v7.5H132.168c-4.14 0-7.5 3.36-7.5 7.5a7.5 7.5 0 0 0 7.5 7.5h172.297c2.29 0 4.418 1.023 5.852 2.81s1.965 4.086 1.47 6.32l-3.332 15a7.45 7.45 0 0 1-7.32 5.871h-16.97a7.5 7.5 0 1 0 0 15h16.97a22.36 22.36 0 0 0 21.961-17.617l3.336-15c1.484-6.7-.12-13.61-4.414-18.96S311.324 452 304.465 452h-2.8v-7.5c0-9.648-7.852-17.496-17.5-17.496h-13.52c-4.242-2.562-16.87-11.18-20.082-24.516-2.344-9.746.738-20.535 9.16-32.062a8.15 8.15 0 0 0 .473-.738c2.504-4.43 5.965-8.723 9.78-13.12 8.016 14.527 23.375 23.934 40.688 23.934 16.965 0 32.422-9.37 40.53-23.734 6.71 4.066 14.422 6.234 22.47 6.234 23.988 0 43.5-19.512 43.5-43.5 0-1.97-.13-3.926-.395-5.86 19.52-5.672 33.395-23.594 33.395-44.64 0-16.305-8.645-31.305-22.21-39.652zM58.207 126.035a7.49 7.49 0 0 0 5.621-4.32c1.035-2.29.852-4.945-.488-7.074-3.387-5.383-5.176-11.598-5.176-17.973 0-18.656 15.18-33.836 33.836-33.836a33.59 33.59 0 0 1 14.16 3.105c2.418 1.12 5.25.867 7.438-.656s3.395-4.098 3.184-6.754c-.078-.945-.113-1.77-.113-2.527 0-17.094 13.906-31 31-31 8.1 0 15.746 3.105 21.563 8.742 1.703 1.652 4.086 2.398 6.43 2.016a7.5 7.5 0 0 0 5.453-3.957c5.355-10.363 15.914-16.8 27.55-16.8 15.258 0 28.12 10.9 30.582 25.94a7.5 7.5 0 0 0 6.211 6.188c3.184.516 6.344-1.066 7.84-3.93 5.547-10.605 16.418-17.2 28.367-17.2 15.54 0 28.785 11.1 31.496 26.363a7.49 7.49 0 0 0 5.086 5.828 7.5 7.5 0 0 0 7.531-1.766c6.793-6.617 15.75-10.262 25.223-10.262 19.94 0 36.168 16.227 36.168 36.168 0 1-.05 2.05-.152 3.215a7.49 7.49 0 0 0 2.188 5.977 7.51 7.51 0 0 0 5.988 2.148c1.195-.113 2.367-.172 3.477-.172 20.125 0 36.5 16.375 36.5 36.5a36.49 36.49 0 0 1-24.727 34.547c-2.64.898-4.562 3.188-4.992 5.945s.707 5.52 2.945 7.18c8.117 6.016 12.773 15.246 12.773 25.328 0 17.367-14.133 31.5-31.5 31.5a31.26 31.26 0 0 1-12.828-2.73 7.49 7.49 0 0 0-6.473.168c-2.023 1.03-3.465 2.926-3.93 5.148-3.312 15.883-17.516 27.414-33.77 27.414-7.992 0-15.78-2.793-21.934-7.867a7.49 7.49 0 0 0-6.305-1.555c-2.23.465-4.13 1.918-5.156 3.953-6.098 12.04-18.258 19.52-31.73 19.52-16.367 0-30.555-11.082-34.496-26.95-.758-3.035-3.316-5.285-6.426-5.64a6.98 6.98 0 0 0-.855-.051c-2.793 0-5.387 1.563-6.68 4.094-6.45 12.64-19.254 20.496-33.418 20.496-18.332 0-33.87-13.098-36.953-31.14a7.5 7.5 0 0 0-4.652-5.723c-2.45-.96-5.22-.566-7.305 1.03-6.68 5.12-14.664 7.828-23.1 7.828-18.746 0-34.52-13.406-37.504-31.883a7.5 7.5 0 0 0-8.047-6.277c-1.258.11-2.387.16-3.45.16-21.78 0-39.5-17.72-39.5-39.5-.004-19.43 13.895-35.816 33.04-38.96zm58.027 219.918a7.49 7.49 0 0 0-5.613-4.477 7.5 7.5 0 0 0-6.805 2.293 27.38 27.38 0 0 1-20.316 8.898c-13.805 0-25.6-10.305-27.4-23.97a7.5 7.5 0 0 0-8.398-6.445c-1.27.164-2.512.246-3.69.246-15.715 0-28.5-12.785-28.5-28.5 0-9.023 4.14-17.32 11.355-22.766 1.723-1.297 2.8-3.273 2.96-5.426s-.61-4.266-2.117-5.805c-5.395-5.516-8.367-12.797-8.367-20.504 0-12.012 7.3-22.72 18.32-27.18 7.465 4.277 16.03 6.84 25.156 7.148 6.512 22.387 26.953 38.03 50.86 38.03 8.133 0 15.973-1.81 23.12-5.293 7.72 19.793 26.86 33.293 48.88 33.293 14.844 0 28.617-6.156 38.395-16.672 3.56 6.012 8.32 11.145 13.898 15.168 3.734 25.957-27.77 43.586-64.195 63.945L150.5 361.22a110.65 110.65 0 0 0-5.867 3.758 7.62 7.62 0 0 0-1.277-.172c-11.863-.492-22.508-7.895-27.12-18.852zm131.12 15.973c-10.945 15.13-14.77 29.957-11.375 44.07 2.06 8.563 6.527 15.563 11.367 21.008H134.516c-2.004-4.492-4.746-12.992-2.5-22.613 2.648-11.348 11.445-21.535 26.148-30.277 7.563-4.496 15.37-8.86 22.918-13.078 35.965-20.102 70.137-39.203 72.16-69.555 4.555 1.336 9.352 2.07 14.3 2.07 7.363 0 14.44-1.582 20.867-4.488-1.414 25.664-13.832 39.68-25.89 53.273-5.703 6.434-11.098 12.516-15.164 19.6zm159.586-61.594c-2.277.234-4.324 1.492-5.555 3.422s-1.516 4.313-.77 6.477c1.027 2.992 1.547 6.11 1.547 9.27 0 15.715-12.78 28.5-28.5 28.5a28.3 28.3 0 0 1-20.223-8.422c-1.87-1.887-4.602-2.64-7.176-1.98a7.51 7.51 0 0 0-5.352 5.18c-3.87 13.38-16.312 22.727-30.25 22.727-13.676 0-25.56-8.656-29.84-21.375 12.133-14.578 24.063-33.508 22.61-65.215-.004-.098-.023-.19-.03-.285 1.723-1.738 3.336-3.594 4.81-5.594a49.59 49.59 0 0 0 24.453 6.469c20.477 0 38.684-12.758 46.04-31.305a46.29 46.29 0 0 0 10.961 1.305 46.24 46.24 0 0 0 27.438-8.992c10.902 5.16 18.063 16.28 18.063 28.492 0 16.2-12.133 29.672-28.223 31.328zm0 0"/><use xlink:href="#B"/><use xlink:href="#B" x="-4" y="69"/><use xlink:href="#B" x="71" y="108"/><use xlink:href="#B" x="72" y="36"/><use xlink:href="#B" x="85" y="-33"/><path d="M283.664 215h-3v-3a7.5 7.5 0 1 0-15 0v3h-3a7.5 7.5 0 1 0 0 15h3v3a7.5 7.5 0 1 0 15 0v-3h3a7.5 7.5 0 1 0 0-15zm0 0"/><use xlink:href="#B" x="155" y="43"/><use xlink:href="#B" x="165" y="-27"/><use xlink:href="#B" x="230" y="87"/><use xlink:href="#B" x="235" y="13"/><defs ><path id="B" d="M105.664 116h3v3a7.5 7.5 0 1 0 15 0v-3h3a7.5 7.5 0 1 0 0-15h-3v-3a7.5 7.5 0 1 0-15 0v3h-3a7.5 7.5 0 1 0 0 15zm0 0"/></defs></svg>