<svg xmlns="http://www.w3.org/2000/svg" height="682.667" viewBox="-125 0 512 512" width="682.667" xmlns:v="https://vecta.io/nano"><path d="M200.97 433.5c-11.54-5.547-10.727-20.285-8.953-29.352.738-3.773-2.937-6.926-6.566-5.648-13.848 4.863-23.992 17.336-23.992 17.336l-6.82 42.664h46.332zm-99.818-17.664s-10.148-12.47-23.996-17.336c-3.63-1.273-7.3 1.875-6.562 5.652 1.77 9.063 2.586 23.8-8.957 29.352V458.5h39.516v-41.832" fill="#6a6"/><path d="M103.715 336h55.1v67.5c0 16.57 13.43 30 30 30l-57.25 24-57.75-24c16.57 0 30-13.43 30-30zm0 0" fill="#9e6f4f"/><path d="M188.805 433.5h-30c-16.57 0-30-13.43-30-30V336h30v67.5c0 16.57 13.43 30 30 30zm0 0" fill="#875d41"/><path d="M229.8 478.5v-35a10 10 0 0 0-10-10H42.805a10 10 0 0 0-10 10v35zm0 0" fill="#96bc5e"/><path d="M229.805 443.5v35h-30v-35c0-5.52-4.48-10-10-10h30c5.52 0 10 4.48 10 10zm0 0" fill="#85993d"/><path d="M240.102 458.5c9.598 0 16.723 8.887 14.64 18.254l-3.332 15c-1.523 6.863-7.61 11.746-14.64 11.746H25.84c-7.03 0-13.117-4.883-14.645-11.746l-3.332-15c-2.082-9.367 5.043-18.254 14.64-18.254zm0 0" fill="#9e7f56"/><path d="M254.742 476.75l-3.328 15c-1.53 6.87-7.61 11.75-14.64 11.75h-30c7.03 0 13.11-4.88 14.64-11.75l3.328-15c2.082-9.36-5.047-18.25-14.637-18.25h30c9.6 0 16.72 8.89 14.637 18.25zm0 0" fill="#87613c"/><path d="M145.305 41.5l-13 10-15-10c-9.664 0-17.5-7.836-17.5-17.5s7.836-17.5 17.5-17.5h28c9.664 0 17.5 7.836 17.5 17.5s-7.836 17.5-17.5 17.5zm0 0" fill="#92d37a"/><path d="M162.805 24c0 4.828-1.96 9.2-5.13 12.37s-7.543 5.13-12.37 5.13h-28c-.332 0-.66-.012-.98-.03 4.418-.25 8.398-2.148 11.352-5.098 3.168-3.172 5.13-7.543 5.13-12.37 0-9.32-7.29-16.94-16.48-17.47.32-.02.648-.03.98-.03h28a17.51 17.51 0 0 1 17.5 17.5zm0 0" fill="#70ba4d"/><path d="M155.305 86.5l-25.5 10-22.5-10c-12.426 0-22.5-10.074-22.5-22.5s10.074-22.5 22.5-22.5h48c12.426 0 22.5 10.074 22.5 22.5s-10.074 22.5-22.5 22.5zm0 0" fill="#92d37a"/><path d="M177.805 64c0 6.22-2.52 11.84-6.6 15.9s-9.69 6.6-15.9 6.6h-30c6.22 0 11.84-2.52 15.9-6.6s6.6-9.69 6.6-15.9c0-7.22-3.402-13.64-8.68-17.75a22.34 22.34 0 0 0-13.82-4.75h30a22.5 22.5 0 0 1 22.5 22.5zm0 0" fill="#70ba4d"/><path d="M170.305 131.5l-40 10-38-10c-12.426 0-22.5-10.074-22.5-22.5s10.074-22.5 22.5-22.5h78c12.426 0 22.5 10.074 22.5 22.5s-10.074 22.5-22.5 22.5zm0 0" fill="#7fbf62"/><path d="M192.805 109c0 6.22-2.52 11.84-6.6 15.9s-9.69 6.6-15.9 6.6h-30c6.22 0 11.84-2.52 15.9-6.6s6.6-9.69 6.6-15.9c0-9.012-5.29-16.78-12.94-20.37a22.35 22.35 0 0 0-9.559-2.129h30a22.5 22.5 0 0 1 22.5 22.5zm0 0" fill="#68a044"/><path d="M180.305 186.5l-50.5 10-47.5-10c-15.187 0-27.5-12.312-27.5-27.5s12.313-27.5 27.5-27.5h98c15.188 0 27.5 12.313 27.5 27.5s-12.312 27.5-27.5 27.5zm0 0" fill="#7fbf62"/><path d="M207.805 159c0 7.602-3.082 14.47-8.05 19.45-4.98 4.973-11.852 8.05-19.45 8.05h-30c7.598 0 14.47-3.078 19.45-8.05 4.97-4.98 8.05-11.848 8.05-19.45 0-11.3-6.82-21.012-16.562-25.238-3.348-1.453-7.047-2.262-10.937-2.262h30c15.188 0 27.5 12.31 27.5 27.5zm0 0" fill="#68a044"/><path d="M195.305 241.5l-68.5 10-59.5-10c-15.187 0-27.5-12.312-27.5-27.5s12.313-27.5 27.5-27.5h128c15.188 0 27.5 12.313 27.5 27.5s-12.312 27.5-27.5 27.5zm0 0" fill="#6a6"/><path d="M222.805 214c0 7.602-3.082 14.47-8.05 19.45-4.98 4.973-11.852 8.05-19.45 8.05h-30c7.598 0 14.47-3.078 19.45-8.05 4.97-4.98 8.05-11.848 8.05-19.45 0-12.262-8.02-22.648-19.11-26.19-2.64-.848-5.46-1.31-8.39-1.31h30c15.188 0 27.5 12.31 27.5 27.5zm0 0" fill="#508950"/><path d="M205.305 306.5h-148c-17.95 0-32.5-14.55-32.5-32.5s14.55-32.5 32.5-32.5h148c17.95 0 32.5 14.55 32.5 32.5s-14.55 32.5-32.5 32.5zm0 0" fill="#6a6"/><path d="M237.805 274c0 8.98-3.64 17.102-9.52 22.98s-14 9.52-22.98 9.52h-30c8.98 0 17.098-3.64 22.98-9.52s9.52-14 9.52-22.98c0-14.55-9.562-26.852-22.72-31.012h-.012c-3.082-.97-6.37-1.488-9.77-1.488h30c17.95 0 32.5 14.55 32.5 32.5zm0 0" fill="#508950"/><path d="M195.305 361.5h-128c-15.187 0-27.5-12.312-27.5-27.5s12.313-27.5 27.5-27.5h128c15.188 0 27.5 12.313 27.5 27.5s-12.312 27.5-27.5 27.5zm0 0" fill="#538e44"/><path d="M222.805 334c0 7.602-3.082 14.47-8.05 19.45-4.98 4.973-11.852 8.05-19.45 8.05h-30c7.598 0 14.47-3.078 19.45-8.05 4.97-4.98 8.05-11.848 8.05-19.45 0-15.19-12.312-27.5-27.5-27.5h30c15.188 0 27.5 12.31 27.5 27.5zm0 0" fill="#426830"/><path d="M257.652 460.422A22.39 22.39 0 0 0 240.102 452h-2.8v-7.5c0-9.648-7.852-17.496-17.5-17.496h-16.836c-5.754-4.102-4.766-14.395-3.6-20.414a12.49 12.49 0 0 0-4.09-11.82c-3.383-2.93-8.105-3.824-12.32-2.344-6.46 2.27-12.16 5.918-16.66 9.46V370h29c19.297 0 35-15.7 35-35 0-8.973-3.398-17.164-8.97-23.363 14.098-6.195 23.97-20.28 23.97-36.637s-9.875-30.44-23.97-36.637c5.57-6.2 8.97-14.39 8.97-23.363 0-15.055-9.56-27.922-22.922-32.852 4.945-6.04 7.922-13.75 7.922-22.148 0-14.312-8.64-26.637-20.973-32.055 3.75-5.008 5.973-11.223 5.973-17.945 0-13.066-8.402-24.203-20.086-28.31 3.21-4.777 5.086-10.52 5.086-16.69 0-12.39-7.55-23.05-18.293-27.62 2.1-3.652 3.293-7.875 3.293-12.38 0-13.785-11.215-25-25-25h-28c-13.785 0-25 11.215-25 25 0 4.504 1.203 8.727 3.293 12.38C84.855 41.95 77.305 52.61 77.305 65c0 6.172 1.875 11.914 5.086 16.69C70.707 85.797 62.305 96.934 62.305 110c0 6.723 2.223 12.938 5.973 17.945C55.94 133.363 47.305 145.688 47.305 160c0 8.398 2.973 16.11 7.922 22.148-13.367 4.93-22.922 17.797-22.922 32.852 0 8.973 3.395 17.164 8.97 23.363-14.098 6.195-23.97 20.28-23.97 36.637s9.87 30.44 23.97 36.637c-5.574 6.2-8.97 14.39-8.97 23.363 0 19.3 15.7 35 35 35h29v31.887c-4.5-3.543-10.2-7.19-16.66-9.46a12.53 12.53 0 0 0-12.324 2.344 12.5 12.5 0 0 0-4.09 11.82c1.18 6.02 2.168 16.313-3.6 20.414H42.805c-9.648 0-17.5 7.848-17.5 17.496v7.5h-2.797a22.39 22.39 0 0 0-17.551 8.422c-4.293 5.352-5.902 12.262-4.414 18.96l3.332 15C6.18 504.754 15.21 512 25.84 512h158.965a7.5 7.5 0 1 0 0-15H25.84a7.45 7.45 0 0 1-7.32-5.871l-3.336-15a7.47 7.47 0 0 1 1.473-6.32A7.46 7.46 0 0 1 22.508 467h10.297a7.5 7.5 0 0 0 7.5-7.5v-15c0-1.38 1.125-2.496 2.5-2.496h177a2.5 2.5 0 0 1 2.496 2.496v7.5H67.805c-4.14 0-7.5 3.36-7.5 7.5a7.5 7.5 0 0 0 7.5 7.5h172.297a7.46 7.46 0 0 1 5.852 2.809 7.47 7.47 0 0 1 1.473 6.32l-3.336 15a7.45 7.45 0 0 1-7.32 5.871h-16.965a7.5 7.5 0 1 0 0 15h16.965c10.625 0 19.66-7.246 21.965-17.617l3.332-15c1.488-6.7-.12-13.61-4.414-18.96zm-73.738-52.13c-.887 7.043-.457 13.23 1.234 18.406-5.87-.965-10.988-4.207-14.398-8.79 2.977-2.883 7.64-6.852 13.164-9.617zM117.305 15h28c5.512 0 10 4.484 10 10s-4.488 10-10 10h-28c-5.516 0-10-4.484-10-10s4.484-10 10-10zm-10 35h48c8.27 0 15 6.73 15 15s-6.73 15-15 15h-48a15.02 15.02 0 0 1-15-15 15.02 15.02 0 0 1 15-15zm-15 45h78c8.27 0 15 6.73 15 15s-6.73 15-15 15h-78a15.02 15.02 0 0 1-15-15 15.02 15.02 0 0 1 15-15zm-10 45h98c11.027 0 20 8.973 20 20s-8.973 20-20 20h-98c-11.027 0-20-8.973-20-20s8.973-20 20-20zm-15 55h128c11.027 0 20 8.973 20 20s-8.973 20-20 20h-128c-11.027 0-20-8.973-20-20s8.973-20 20-20zm-35 80c0-13.785 11.215-25 25-25h148c13.785 0 25 11.215 25 25s-11.215 25-25 25h-148c-13.785 0-25-11.215-25-25zm15 60c0-11.027 8.973-20 20-20h128c11.027 0 20 8.973 20 20s-8.973 20-20 20h-128c-11.027 0-20-8.973-20-20zm104 35v34.5c0 5.383 1.145 10.5 3.195 15.133.078.19.168.383.262.57 1.117 2.414 2.477 4.69 4.06 6.797h-55.035a37.71 37.71 0 0 0 4.063-6.793c.094-.19.184-.38.262-.574 2.05-4.633 3.195-9.75 3.195-15.133V370zm-59.44 47.906c-3.414 4.586-8.527 7.828-14.402 8.793 1.69-5.176 2.12-11.363 1.234-18.4 5.54 2.766 10.195 6.734 13.168 9.617zm0 0"/></svg>