<svg xmlns="http://www.w3.org/2000/svg" xmlns:xlink="http://www.w3.org/1999/xlink" height="682.667" viewBox="-125 0 512 512.002" width="682.667" xmlns:v="https://vecta.io/nano"><path d="M181.805 404.5h-3c-13.805 0-25 11.2-25 25v30h33v-50a5 5 0 0 0-5-5zm-101 0h3a25 25 0 0 1 25 25v30h-33v-50a5 5 0 0 1 5-5zm0 0" fill="#538e44"/><path d="M108.805 366.75h45v77.75h-45zm0 0" fill="#d19f62"/><path d="M229.805 479.5v-35a10 10 0 0 0-10-10h-177c-5.52 0-10 4.477-10 10v35zm0 0" fill="#96bc5e"/><path d="M229.805 444.5v35h-30v-35c0-5.52-4.477-10-10-10h30c5.523 0 10 4.48 10 10zm0 0" fill="#85993d"/><path d="M240.105 459.5c9.598 0 16.727 8.887 14.645 18.254l-3.332 15c-1.527 6.863-7.613 11.746-14.645 11.746H25.84a15 15 0 0 1-14.645-11.746l-3.332-15C5.78 468.387 12.9 459.5 22.504 459.5zm0 0" fill="#9e7f56"/><path d="M254.746 477.75l-3.328 15c-1.523 6.87-7.613 11.75-14.64 11.75h-30c7.027 0 13.117-4.88 14.64-11.75l2.938-13.25.39-1.75c2.1-9.36-5.04-18.25-14.64-18.25h30c9.602 0 16.73 8.89 14.64 18.25zm0 0" fill="#87613c"/><path d="M168.305 271.5H96.64l-21.707 28.2c-14.44 20.695-33.723 40.336-59.117 52.84-8.094 3.988-7.14 15.832 1.473 18.512 23.363 7.266 50.223 4.44 68.406-10.312 4.785-3.883 11.887-2.703 14.93 2.656 5.52 9.72 15.352 21.605 30.43 21.605h.5c15.078 0 24.914-11.89 30.434-21.605 3.043-5.36 10.145-6.54 14.93-2.656 18.184 14.754 45.04 17.578 68.406 10.313 8.613-2.68 9.566-14.527 1.473-18.512-25.34-12.477-44.594-32.06-59.023-52.707zm0 0" fill="#538e44"/><use xlink:href="#B" fill="#426830"/><path d="M74.45 232.387c-14.387 20.445-33.523 39.79-58.633 52.152-8.094 3.988-7.14 15.832 1.473 18.512 23.363 7.266 50.223 4.44 68.406-10.312 4.785-3.883 11.887-2.703 14.93 2.656 5.52 9.72 15.352 21.605 30.43 21.605h.5c15.078 0 24.914-11.89 30.434-21.605 3.043-5.36 10.145-6.54 14.93-2.656 18.184 14.754 45.04 17.578 68.406 10.313 8.613-2.68 9.566-14.527 1.473-18.512-25.262-12.437-44.477-31.937-58.89-52.516l-20.602-32.273h-68zm0 0" fill="#6a6"/><use xlink:href="#B" y="-68" fill="#508950"/><path d="M74.29 164.613c-14.367 20.36-33.453 39.61-58.473 51.926-8.094 3.988-7.14 15.832 1.473 18.512 23.363 7.266 50.223 4.44 68.406-10.312 4.785-3.883 11.887-2.703 14.93 2.656 5.52 9.72 15.352 21.605 30.43 21.605h.5c15.078 0 24.914-11.89 30.434-21.605 3.043-5.36 10.145-6.54 14.93-2.656 18.184 14.754 45.04 17.578 68.406 10.313 8.613-2.68 9.566-14.527 1.473-18.512-25.3-12.457-44.535-32-58.957-52.61l-9.848-13.43H84.305zm0 0" fill="#7fbf62"/><use xlink:href="#B" y="-136" fill="#68a044"/><path d="M131.555 181c15.078 0 24.914-11.89 30.434-21.605 3.043-5.36 10.145-6.54 14.93-2.656 18.184 14.754 45.04 17.578 68.406 10.313 8.613-2.68 9.566-14.527 1.473-18.512-57.836-28.477-83.98-93.98-93.375-124.645C150.44 14.16 141.484 7.5 131.305 7.5s-19.133 6.66-22.117 16.395c-9.395 30.664-35.54 96.168-93.37 124.645-8.094 3.988-7.14 15.832 1.473 18.512 23.363 7.266 50.223 4.44 68.406-10.312 4.785-3.883 11.887-2.703 14.93 2.656 5.52 9.72 15.352 21.605 30.43 21.605zm0 0" fill="#92d37a"/><use xlink:href="#B" y="-204" fill="#70ba4d"/><path d="M257.66 460.422A22.4 22.4 0 0 0 240.105 452h-2.8v-7.5c0-9.648-7.848-17.5-17.5-17.5h-25.5v-17.5c0-6.895-5.605-12.5-12.5-12.5h-3a32.29 32.29 0 0 0-17.5 5.137v-24.64c2.574-3.03 4.984-6.488 7.203-10.398.43-.75 1.074-1.012 1.543-1.102.438-.082 1.297-.117 2.14.566 19.285 15.648 48.16 20.11 75.36 11.648a17.42 17.42 0 0 0 12.254-15.359c.56-7.176-3.246-13.863-9.695-17.04-15.223-7.496-29.22-18.297-41.805-32.19 12.63 1.734 26.133.668 39.246-3.4a17.42 17.42 0 0 0 12.254-15.359c.56-7.176-3.246-13.863-9.695-17.04-15.223-7.496-29.22-18.297-41.805-32.19 12.633 1.734 26.133.668 39.246-3.4a17.42 17.42 0 0 0 12.254-15.359c.563-7.176-3.242-13.863-9.69-17.04-15.227-7.496-29.223-18.297-41.81-32.19 12.633 1.734 26.133.672 39.25-3.4 6.88-2.14 11.69-8.168 12.25-15.36.563-7.176-3.242-13.863-9.69-17.04-56.03-27.6-81.27-93.19-89.52-120.113C156.617 8.72 144.848 0 131.305 0s-25.31 8.72-29.285 21.695C93.77 48.62 68.535 114.223 12.5 141.813c-6.45 3.176-10.254 9.863-9.69 17.04.563 7.188 5.37 13.22 12.254 15.36 13.113 4.078 26.617 5.145 39.246 3.4-12.586 13.895-26.582 24.695-41.81 32.19-6.45 3.176-10.254 9.863-9.69 17.04.563 7.188 5.37 13.22 12.254 15.36 13.113 4.078 26.613 5.145 39.246 3.4-12.586 13.895-26.582 24.695-41.805 32.19-6.45 3.176-10.254 9.863-9.695 17.04.563 7.188 5.37 13.22 12.254 15.36 13.113 4.078 26.617 5.145 39.246 3.4-12.586 13.895-26.578 24.69-41.805 32.19-6.45 3.176-10.254 9.863-9.695 17.04.563 7.188 5.37 13.22 12.254 15.36 27.203 8.46 56.078 3.996 75.36-11.648.844-.684 1.707-.648 2.14-.566a2.2 2.2 0 0 1 1.543 1.102c2.23 3.93 4.656 7.4 7.246 10.45-.027.258-.043.52-.043.79v23.8a32.28 32.28 0 0 0-17.5-5.137h-3c-6.895 0-12.5 5.61-12.5 12.5V427h-25.5c-9.648 0-17.5 7.852-17.5 17.5v7.5h-2.8a22.39 22.39 0 0 0-17.551 8.422C.664 465.773-.945 472.684.543 479.38l3.332 15C6.18 504.754 15.21 512 25.84 512h158.965a7.5 7.5 0 1 0 0-15H25.84c-3.543 0-6.555-2.414-7.324-5.87l-3.332-15c-.496-2.234.04-4.54 1.473-6.32A7.46 7.46 0 0 1 22.508 467h10.297a7.5 7.5 0 0 0 7.5-7.5v-15c0-1.38 1.12-2.5 2.5-2.5h177c1.38 0 2.5 1.12 2.5 2.5v7.5h-154.5c-4.14 0-7.5 3.36-7.5 7.5a7.5 7.5 0 0 0 7.5 7.5h172.3a7.46 7.46 0 0 1 5.852 2.809c1.434 1.785 1.97 4.086 1.473 6.32l-3.332 15a7.46 7.46 0 0 1-7.324 5.875h-16.97a7.5 7.5 0 0 0-7.5 7.5c0 4.14 3.36 7.5 7.5 7.5h16.97c10.625 0 19.66-7.246 21.965-17.62l3.332-15a22.39 22.39 0 0 0-4.41-18.961zM178.805 412h.5v15h-17.797c1.22-8.465 8.5-15 17.297-15zm-47.75-19.5h.5c5.184 0 10.113-1.11 14.75-3.238V427h-30v-37.738c4.637 2.13 9.57 3.238 14.75 3.238zM19.516 159.887c-1.4-.437-1.703-1.57-1.754-2.203-.06-.766.13-1.805 1.367-2.414 26.438-13.02 49.277-34.633 67.887-64.242 15.238-24.238 24.367-48.69 29.344-64.937 2.035-6.633 8.04-11.1 14.945-11.1s12.914 4.457 14.945 11.1c4.98 16.246 14.11 40.7 29.344 64.938 18.613 29.61 41.453 51.227 67.89 64.242 1.238.61 1.426 1.648 1.367 2.414-.05.633-.344 1.766-1.754 2.203-22.133 6.887-46.254 3.36-61.453-8.973-4.047-3.28-9.29-4.617-14.37-3.66a17.23 17.23 0 0 0-11.809 8.438c-4.613 8.125-12.508 17.81-23.9 17.81h-.5c-11.402 0-19.293-9.684-23.9-17.81-2.508-4.422-6.812-7.496-11.81-8.434a17.2 17.2 0 0 0-3.246-.305c-4.008 0-7.934 1.375-11.12 3.96-15.2 12.336-39.32 15.855-61.453 8.973zm0 68c-1.4-.437-1.703-1.57-1.754-2.203-.06-.766.13-1.805 1.367-2.414 23.184-11.418 43.684-29.54 60.945-53.855 3.676-1.973 7.145-4.254 10.348-6.852.844-.684 1.703-.648 2.137-.566a2.2 2.2 0 0 1 1.543 1.102c9.44 16.62 22.22 25.402 36.953 25.402h.5c14.738 0 27.516-8.785 36.953-25.402.43-.75 1.074-1.012 1.543-1.102.438-.082 1.297-.117 2.14.566 3.207 2.602 6.68 4.887 10.363 6.86 17.258 24.31 37.746 42.434 60.93 53.848 1.238.61 1.426 1.648 1.367 2.414-.05.637-.344 1.766-1.754 2.207-22.133 6.883-46.254 3.36-61.453-8.977-4.047-3.28-9.29-4.613-14.37-3.656a17.21 17.21 0 0 0-11.809 8.434c-4.613 8.125-12.508 17.81-23.9 17.81h-.5c-11.402 0-19.293-9.684-23.9-17.81a17.22 17.22 0 0 0-11.809-8.434c-5.078-.957-10.32.375-14.367 3.656-15.2 12.336-39.32 15.855-61.453 8.973zm0 68c-1.4-.437-1.703-1.57-1.754-2.203-.06-.766.13-1.805 1.367-2.414 23.184-11.418 43.68-29.54 60.938-53.855 3.68-1.973 7.152-4.254 10.355-6.852.844-.684 1.703-.648 2.137-.566a2.2 2.2 0 0 1 1.543 1.102c9.44 16.617 22.22 25.402 36.953 25.402h.5c14.738 0 27.516-8.785 36.953-25.402.43-.75 1.074-1.012 1.543-1.102.438-.082 1.297-.117 2.14.566 3.203 2.602 6.68 4.883 10.363 6.86 17.258 24.313 37.75 42.434 60.93 53.848 1.238.61 1.426 1.648 1.367 2.414-.05.633-.344 1.766-1.754 2.203-22.133 6.883-46.254 3.36-61.453-8.973-4.047-3.28-9.29-4.617-14.37-3.66a17.23 17.23 0 0 0-11.809 8.438c-4.613 8.125-12.508 17.81-23.9 17.81h-.5c-11.402 0-19.293-9.684-23.9-17.81-2.508-4.422-6.812-7.496-11.81-8.434-5.078-.96-10.32.375-14.367 3.656-15.2 12.336-39.32 15.86-61.453 8.973zm61.453 59.027c-15.2 12.336-39.32 15.86-61.453 8.973-1.4-.437-1.703-1.57-1.754-2.203-.06-.766.13-1.805 1.367-2.414 23.18-11.414 43.668-29.54 60.926-53.848 3.684-1.977 7.16-4.258 10.367-6.86.844-.687 1.707-.648 2.137-.566a2.2 2.2 0 0 1 1.543 1.102c9.44 16.617 22.22 25.402 36.953 25.402h.5c14.738 0 27.516-8.785 36.953-25.402.43-.75 1.074-1.012 1.543-1.102.438-.082 1.297-.117 2.14.566 3.207 2.602 6.68 4.883 10.363 6.86 17.262 24.31 37.75 42.434 60.93 53.848 1.238.61 1.426 1.648 1.367 2.414-.05.633-.344 1.766-1.754 2.203-22.133 6.883-46.254 3.363-61.453-8.973-4.047-3.28-9.29-4.617-14.37-3.66a17.23 17.23 0 0 0-11.809 8.438c-4.613 8.125-12.508 17.81-23.9 17.81h-.5c-11.402 0-19.293-9.684-23.9-17.81-2.508-4.422-6.812-7.496-11.81-8.434-5.078-.96-10.32.375-14.367 3.656zM83.305 412h.5c8.8 0 16.082 6.535 17.3 15h-17.8zm0 0"/><defs ><path id="B" d="M245.328 371.05c-12.96 4.027-27 4.96-40.03 2.46a85.19 85.19 0 0 0 10.031-2.461c8.61-2.68 9.56-14.52 1.47-18.512-57.832-28.48-83.98-93.98-93.37-124.648a23.13 23.13 0 0 0-7.121-10.852c.402-.34.813-.668 1.242-.988 3.88-2.89 8.668-4.55 13.758-4.55 10.18 0 19.14 6.66 22.12 16.39 9.39 30.668 35.54 96.168 93.37 124.648 8.1 3.992 7.14 15.832-1.47 18.512zm0 0"/></defs></svg>