<svg xmlns="http://www.w3.org/2000/svg" xmlns:xlink="http://www.w3.org/1999/xlink" viewBox="0 0 512 512" width="682.667" height="682.667" xmlns:v="https://vecta.io/nano"><defs><clipPath id="A"><path d="M0 0h512v512H0z"/></clipPath><path id="B" d="M463.294 286.943h-70.152c22.49 0 40.726 16.068 40.726 35.888v36.76c0 19.82-18.235 35.888-40.726 35.888h70.152c22.5 0 40.725-16.068 40.725-35.888v-36.76c0-19.82-18.235-35.888-40.725-35.888z"/></defs><g clip-path="url(#A)"><path d="M465.79 504.02H212.467c-21.114 0-38.228-17.117-38.228-38.228v-32.077c0-21.114 17.117-38.228 38.228-38.228H465.79c21.115 0 38.228 17.117 38.228 38.228v32.077c0 21.11-17.117 38.228-38.228 38.228z" fill="#eab14d"/><path d="M463.294 395.483h-70.152c22.49 0 40.726 16.067 40.726 35.888v36.76c0 19.82-18.235 35.888-40.726 35.888h70.152c22.5 0 40.725-16.068 40.725-35.888v-36.76c0-19.824-18.235-35.888-40.725-35.888z" fill="#e49542"/><path d="M465.787 512H212.47c-12.253 0-24.017-4.865-32.682-13.53-8.655-8.666-13.53-20.43-13.53-32.683V433.71c0-12.254 4.876-24.007 13.53-32.672 8.665-8.666 20.43-13.542 32.682-13.542h253.318c12.253 0 24.016 4.876 32.682 13.542A46.2 46.2 0 0 1 512 433.711v32.075c0 12.254-4.865 24.017-13.53 32.683S478.04 512 465.787 512zm0-15.97H212.47a30.25 30.25 0 0 1-21.387-8.857c-5.674-5.664-8.858-13.36-8.858-21.388V433.71c0-8.017 3.184-15.714 8.858-21.377a30.26 30.26 0 0 1 21.387-8.868h253.318a30.26 30.26 0 0 1 21.387 8.857 30.25 30.25 0 0 1 8.857 21.388v32.075c0 8.027-3.183 15.724-8.857 21.388-5.664 5.674-13.36 8.857-21.387 8.857z" fill-rule="evenodd"/><path d="M465.79 395.48H212.467c-21.114 0-38.228-17.117-38.228-38.228v-32.077c0-21.114 17.117-38.228 38.228-38.228H465.79c21.115 0 38.228 17.117 38.228 38.228v32.077c0 21.115-17.117 38.228-38.228 38.228z" fill="#f6e266"/><use xlink:href="#B" fill="#ecbe6b"/><path d="M465.787 403.466H212.47c-12.253 0-24.017-4.876-32.682-13.542a46.23 46.23 0 0 1-13.531-32.672v-32.076a46.27 46.27 0 0 1 46.213-46.213h253.318c12.253 0 24.016 4.876 32.682 13.53 8.666 8.665 13.53 20.43 13.53 32.682v32.076c0 12.254-4.865 24.017-13.53 32.672-8.666 8.666-20.43 13.542-32.682 13.542zm0-15.97H212.47c-8.016 0-15.713-3.194-21.387-8.857a30.25 30.25 0 0 1-8.858-21.388v-32.076a30.25 30.25 0 0 1 30.245-30.244h253.318c8.026 0 15.723 3.183 21.387 8.857a30.25 30.25 0 0 1 8.857 21.387v32.076a30.25 30.25 0 0 1-8.857 21.388 30.26 30.26 0 0 1-21.387 8.857z" fill-rule="evenodd"/><path d="M465.79 286.943H212.467c-21.114 0-38.228-17.117-38.228-38.23v-32.076c0-21.115 17.117-38.23 38.228-38.23H465.79c21.115 0 38.228 17.117 38.228 38.23v32.076c0 21.115-17.117 38.23-38.228 38.23z" fill="#eab14d"/><path d="M463.294 178.406h-70.152c22.49 0 40.726 16.068 40.726 35.888v36.76c0 19.82-18.235 35.888-40.726 35.888h70.152c22.5 0 40.725-16.068 40.725-35.888v-36.76c0-19.82-18.235-35.888-40.725-35.888z" fill="#e49542"/><path d="M465.787 294.932H212.47c-12.253 0-24.017-4.876-32.682-13.542-8.655-8.665-13.53-20.43-13.53-32.672v-32.076a46.27 46.27 0 0 1 13.531-32.682c8.665-8.666 20.43-13.53 32.682-13.53h253.318c12.253 0 24.016 4.865 32.682 13.53S512 204.39 512 216.642v32.076a46.22 46.22 0 0 1-13.531 32.672c-8.666 8.666-20.43 13.542-32.682 13.542zm0-15.97H212.47a30.26 30.26 0 0 1-21.387-8.868 30.21 30.21 0 0 1-8.858-21.377v-32.076c0-8.027 3.184-15.724 8.858-21.387a30.25 30.25 0 0 1 21.387-8.857h253.318c8.026 0 15.723 3.183 21.387 8.857 5.674 5.663 8.857 13.36 8.857 21.387v32.076a30.21 30.21 0 0 1-8.857 21.377c-5.664 5.674-13.36 8.868-21.387 8.868z" fill-rule="evenodd"/><path d="M389.704 178.406H136.38c-21.114 0-38.228-17.117-38.228-38.228V108.1c0-21.115 17.117-38.228 38.228-38.228h253.324c21.114 0 38.228 17.117 38.228 38.228v32.077c0 21.114-17.117 38.228-38.228 38.228z" fill="#f6e266"/><path d="M387.207 69.87h-70.152c22.49 0 40.726 16.068 40.726 35.888v36.76c0 19.82-18.235 35.888-40.726 35.888h70.152c22.5 0 40.725-16.068 40.725-35.888v-36.76c0-19.82-18.23-35.888-40.725-35.888z" fill="#ecbe6b"/><path d="M389.7 186.387H136.384c-12.254 0-24.017-4.865-32.683-13.53s-13.53-20.43-13.53-32.683v-32.075a46.2 46.2 0 0 1 13.531-32.672 46.24 46.24 0 0 1 32.683-13.542H389.7a46.24 46.24 0 0 1 32.683 13.542c8.665 8.665 13.53 20.418 13.53 32.672v32.075a46.23 46.23 0 0 1-46.213 46.214zm0-15.97H136.384c-8.027 0-15.724-3.183-21.388-8.857-5.674-5.664-8.857-13.36-8.857-21.388v-32.075a30.25 30.25 0 0 1 8.857-21.388 30.26 30.26 0 0 1 21.388-8.857H389.7c8.016 0 15.724 3.194 21.387 8.857 5.675 5.674 8.858 13.37 8.858 21.388v32.075c0 8.027-3.183 15.724-8.858 21.388a30.23 30.23 0 0 1-21.387 8.857z" fill-rule="evenodd"/><circle vector-effect="non-scaling-stroke" cx="159.756" cy="352.25" r="151.769" fill="#f6e266"/><path d="M159.756 200.48a152 152 0 0 0-35.983 4.328c66.445 16.16 115.787 76.022 115.787 147.438s-49.342 131.28-115.787 147.438c11.538 2.808 23.58 4.328 35.983 4.328 83.82 0 151.77-67.95 151.77-151.77s-67.95-151.763-151.77-151.763h0z" fill="#ecbe6b"/><g fill-rule="evenodd"><path d="M38.26 352.25a121.07 121.07 0 0 1 9.55-47.27c6.12-14.44 14.96-27.55 26.05-38.63 11.07-11.08 24.2-19.93 38.62-26.04 14.96-6.32 31.04-9.57 47.28-9.56a121.26 121.26 0 0 1 47.27 9.56c14.43 6.1 27.55 14.96 38.62 26.04a121.76 121.76 0 0 1 26.05 38.62c6.32 14.96 9.57 31.04 9.56 47.28.01 16.24-3.24 32.32-9.56 47.28-6.12 14.43-14.96 27.54-26.05 38.62-11.07 11.08-24.2 19.93-38.62 26.04a121.26 121.26 0 0 1-47.27 9.56c-16.24.01-32.32-3.24-47.28-9.56-14.43-6.1-27.55-14.96-38.62-26.04a121.76 121.76 0 0 1-26.05-38.62c-6.32-14.96-9.57-31.04-9.55-47.28zm15 0c-.02-14.23 2.83-28.33 8.37-41.44a106.63 106.63 0 0 1 22.84-33.85c9.7-9.72 21.2-17.48 33.85-22.84a106.43 106.43 0 0 1 41.44-8.37 106.42 106.42 0 0 1 41.43 8.37c12.65 5.36 24.15 13.12 33.86 22.84a106.7 106.7 0 0 1 22.83 33.86 106.25 106.25 0 0 1 0 82.86 106.7 106.7 0 0 1-22.83 33.86c-9.7 9.72-21.2 17.48-33.86 22.84a106.24 106.24 0 0 1-41.43 8.37 106.25 106.25 0 0 1-41.44-8.37c-12.65-5.36-24.14-13.12-33.85-22.84a106.34 106.34 0 0 1-22.84-33.86 106.06 106.06 0 0 1-8.37-41.43zm266.253 0h0zm0 0c.01 21.355-4.258 42.498-12.573 62.16a159.93 159.93 0 0 1-34.247 50.78 160.07 160.07 0 0 1-50.77 34.248A159.49 159.49 0 0 1 159.751 512c-21.345.02-42.487-4.258-62.16-12.562a160.1 160.1 0 0 1-50.78-34.248c-14.574-14.563-26.2-31.8-34.237-50.78C4.258 394.747-.01 373.604 0 352.25c-.01-21.345 4.258-42.488 12.562-62.16a160.28 160.28 0 0 1 34.248-50.78 160.26 160.26 0 0 1 50.78-34.247c19.674-8.304 40.816-12.584 62.16-12.562 21.356-.022 42.498 4.258 62.172 12.562 18.97 8.048 36.206 19.673 50.77 34.247 14.584 14.564 26.2 31.8 34.247 50.78 8.315 19.673 12.584 40.805 12.573 62.16zm-15.97.01a143.62 143.62 0 0 1-11.306 55.934 144.02 144.02 0 0 1-30.83 45.702c-13.116 13.126-28.637 23.602-45.713 30.84-17.704 7.473-36.728 11.316-55.944 11.295-19.205.02-38.23-3.822-55.933-11.295-17.076-7.24-32.597-17.715-45.713-30.84a144.02 144.02 0 0 1-30.83-45.702C19.8 390.5 15.957 371.464 15.968 352.25a143.63 143.63 0 0 1 11.306-55.944 144.01 144.01 0 0 1 30.83-45.702 144.15 144.15 0 0 1 45.713-30.831c17.704-7.473 36.728-11.327 55.933-11.306 19.216-.02 38.24 3.833 55.944 11.306a144.15 144.15 0 0 1 45.713 30.831 144.01 144.01 0 0 1 30.83 45.702 143.63 143.63 0 0 1 11.306 55.944h0v.01z"/></g><path d="M191.1 344.76a7.47 7.47 0 0 1 7.5 7.5 7.47 7.47 0 0 1-2.2 5.3c-1.4 1.4-3.3 2.2-5.3 2.2l-62.7-.02a7.47 7.47 0 0 1-7.5-7.5 7.47 7.47 0 0 1 2.2-5.3 7.51 7.51 0 0 1 5.31-2.2l62.7.02z"/></g></svg>