<svg xmlns="http://www.w3.org/2000/svg" height="512" width="512" xmlns:v="https://vecta.io/nano"><circle cx="253.757" cy="77.515" fill="#eab14d" r="70.015"/><path d="M253.757 7.5a70.26 70.26 0 0 0-14.324 1.472c31.797 6.61 55.69 34.785 55.69 68.543s-23.894 61.932-55.69 68.543a70.26 70.26 0 0 0 14.324 1.472c38.668 0 70.015-31.347 70.015-70.015S292.425 7.5 253.757 7.5z" fill="#e49542"/><path d="M431.23 118.227H324.587c-6.92 0-12.532-5.61-12.532-12.532V91.358c0-6.92 5.61-12.532 12.532-12.532H431.23c6.92 0 12.532 5.61 12.532 12.532v14.336c0 6.922-5.61 12.533-12.532 12.533z" fill="#eab14d"/><path d="M431.23 78.827h-20.033c6.92 0 12.532 5.61 12.532 12.532v14.336c0 6.92-5.61 12.532-12.532 12.532h20.033c6.92 0 12.532-5.61 12.532-12.532V91.358c0-6.92-5.61-12.53-12.532-12.53z" fill="#e49542"/><path d="M405.174 157.626H298.53c-6.92 0-12.532-5.61-12.532-12.532v-14.336c0-6.92 5.61-12.532 12.532-12.532h106.643c6.92 0 12.532 5.61 12.532 12.532v14.336c0 6.922-5.6 12.532-12.53 12.532z" fill="#f6e266"/><path d="M405.174 118.227H385.14c6.92 0 12.532 5.61 12.532 12.532v14.336c0 6.92-5.61 12.532-12.532 12.532h20.033c6.92 0 12.532-5.61 12.532-12.532V130.76c0-6.922-5.6-12.532-12.53-12.532z" fill="#ecbe6b"/><path d="M405.174 78.827H298.53c-6.92 0-12.532-5.61-12.532-12.532V51.958c0-6.92 5.61-12.532 12.532-12.532h106.643c6.92 0 12.532 5.61 12.532 12.532v14.336c0 6.922-5.6 12.533-12.53 12.533z" fill="#f6e266"/><path d="M405.174 39.427H385.14c6.92 0 12.532 5.61 12.532 12.532v14.336c0 6.92-5.61 12.532-12.532 12.532h20.033c6.92 0 12.532-5.61 12.532-12.532V51.958c0-6.92-5.6-12.53-12.53-12.53z" fill="#ecbe6b"/><circle cx="266.984" cy="164.421" fill="#f6e266" r="70.015"/><path d="M266.984 94.406a70.26 70.26 0 0 0-14.324 1.472c31.797 6.61 55.69 34.785 55.69 68.543s-23.894 61.932-55.69 68.543a70.26 70.26 0 0 0 14.324 1.472c38.668 0 70.015-31.347 70.015-70.015s-31.347-70.015-70.015-70.015z" fill="#ecbe6b"/><circle cx="176.333" cy="141.743" fill="#f6e266" r="70.015"/><path d="M176.333 71.728a70.26 70.26 0 0 0-14.324 1.472c31.797 6.61 55.69 34.785 55.69 68.543s-23.894 61.932-55.69 68.543a70.26 70.26 0 0 0 14.324 1.472c38.668 0 70.015-31.347 70.015-70.015S215 71.728 176.333 71.728z" fill="#ecbe6b"/><path d="M58.87 330.545c0 54.275 21.938 103.423 57.428 139.068 22.307 22.405 52.697 34.887 84.313 34.887h110.782c31.616 0 62.006-12.482 84.313-34.887 35.5-35.646 57.428-84.793 57.428-139.068 0-53.66-21.45-102.3-56.23-137.847l-30.556-10.027h-235L115.1 192.698C80.32 228.243 58.87 276.885 58.87 330.545z" fill="#365e7d"/><path d="M396.902 192.697H115.098c-5.758 5.885-11.14 12.135-16.132 18.7H355.84c14.688 0 28.22 7.872 35.578 20.583 16.782 28.993 26.394 62.652 26.394 98.563 0 54.275-21.938 103.423-57.428 139.068-22.307 22.405-52.697 34.887-84.313 34.887h35.318c31.616 0 62.006-12.482 84.313-34.887 35.5-35.646 57.428-84.793 57.428-139.068.002-51.87-20.196-101.02-56.228-137.847z" fill="#2b4d66"/><path d="M424.37 192.697H87.63c-5.54 0-10.03-4.49-10.03-10.03v-15.01c0-5.54 4.49-10.03 10.03-10.03h336.74c5.54 0 10.03 4.49 10.03 10.03v15.01c0 5.54-4.49 10.03-10.03 10.03z" fill="#aa7a63"/><path d="M424.37 157.626h-24.558c5.54 0 10.03 4.49 10.03 10.03v15.01c0 5.54-4.49 10.03-10.03 10.03h24.558c5.54 0 10.03-4.49 10.03-10.03v-15.01c0-5.54-4.49-10.03-10.03-10.03z" fill="#986b54"/><circle cx="401.423" cy="418.614" fill="#f6e266" r="70.015"/><path d="M401.423 348.6a70.26 70.26 0 0 0-14.324 1.472c31.797 6.61 55.69 34.785 55.69 68.543s-23.894 61.932-55.69 68.543a70.26 70.26 0 0 0 14.324 1.472c38.668 0 70.015-31.347 70.015-70.015S440.09 348.6 401.423 348.6z" fill="#ecbe6b"/><path d="M509.763 290.016c0-19.393-15.776-35.17-35.17-35.17h-28.402c-7.825-19.66-18.73-38.08-32.464-54.648h10.642c9.667 0 17.53-7.864 17.53-17.53v-15.01c0-9.6-7.774-17.43-17.363-17.523.42-1.614.667-3.296.667-5.04v-14.337c0-1.74-.246-3.42-.665-5.03h6.69c11.046 0 20.032-8.986 20.032-20.03V91.358c0-11.046-8.986-20.032-20.032-20.032h-6.69c.42-1.61.665-3.29.665-5.03V51.958c0-11.045-8.986-20.03-20.03-20.03H377.91a7.5 7.5 0 1 0 0 15h27.265a5.04 5.04 0 0 1 5.031 5.031v14.337a5.04 5.04 0 0 1-5.021 5.031l-106.653.001a5.04 5.04 0 0 1-5.032-5.032V51.958a5.04 5.04 0 0 1 5.032-5.031h49.312a7.5 7.5 0 1 0 0-15h-31.397C301.855 11.878 278.666 0 253.757 0a77.21 77.21 0 0 0-52.802 20.778c-12.487 11.634-20.693 26.864-23.557 43.477l-1.065-.027c-42.742 0-77.515 34.772-77.515 77.515 0 2.79.16 5.59.465 8.383H87.63c-9.666 0-17.53 7.864-17.53 17.53v15.01c0 9.667 7.864 17.53 17.53 17.53h10.643c-13.734 16.57-24.64 34.99-32.464 54.648H37.407c-19.393 0-35.17 15.777-35.17 35.17s15.777 35.17 35.17 35.17H51.44l-.072 5.36c0 14.318 1.5 28.66 4.462 42.627.748 3.527 3.862 5.946 7.33 5.946.516 0 1.04-.054 1.563-.165a7.5 7.5 0 0 0 5.781-8.893 190.93 190.93 0 0 1-4.136-39.516c0-48.817 18.413-94.98 51.92-130.348h275.425c33.506 35.367 51.92 81.53 51.92 130.348 0 7.845-.494 15.698-1.45 23.457a77.05 77.05 0 0 0-42.759-12.903c-42.742 0-77.515 34.772-77.515 77.515 0 28.21 15.15 52.94 37.74 66.5-15.51 7.803-32.663 11.887-50.254 11.887H200.61c-29.527 0-58.32-11.91-78.997-32.68-18.787-18.87-33.14-40.99-42.663-65.75a7.5 7.5 0 1 0-14 5.384c10.276 26.72 25.764 50.6 46.033 70.95C134.454 498.48 167.12 512 200.61 512H311.39c23.918 0 47.12-6.674 67.27-19.287 7.2 2.217 14.844 3.416 22.762 3.416 21.82 0 42.752-9.275 57.424-25.45a7.5 7.5 0 0 0-11.11-10.078 62.66 62.66 0 0 1-46.314 20.527c-34.47 0-62.515-28.044-62.515-62.516s28.044-62.515 62.515-62.515 62.515 28.044 62.515 62.515a62.54 62.54 0 0 1-2.847 18.704 7.5 7.5 0 0 0 4.917 9.397c3.95 1.233 8.16-.964 9.397-4.917 2.344-7.486 3.532-15.286 3.532-23.185 0-20.612-8.103-39.356-21.27-53.255a206.47 206.47 0 0 0 2.964-34.813l-.072-5.36h14.034c19.394.001 35.17-15.776 35.17-35.168zm-472.356 20.17c-11.122 0-20.17-9.048-20.17-20.17s9.048-20.17 20.17-20.17h23.105a203.93 203.93 0 0 0-8.142 40.339zm372.798-179.427v14.337a5.04 5.04 0 0 1-5.021 5.031h-62.017c-1.61-8.628-4.678-16.864-9.026-24.4h71.033a5.04 5.04 0 0 1 5.031 5.031zm-101.08-12.51c1.644 1.502 3.188 3.1 4.65 4.74l.033.04c6.87 7.762 11.685 17.06 14.034 27.1h-74.46a76.99 76.99 0 0 0 .465-8.383 77 77 0 0 0-8.828-35.861c6.987-2.64 14.345-3.976 21.963-3.976 15.64 0 30.606 5.804 42.142 16.343zm127.138-26.89v14.337a5.04 5.04 0 0 1-5.032 5.031H324.587a5 5 0 0 1-2.24-.535c-.722-.738-1.465-1.458-2.22-2.17a4.98 4.98 0 0 1-.572-2.326V91.358a5.04 5.04 0 0 1 5.021-5.031l106.653-.001a5.04 5.04 0 0 1 5.033 5.032zM253.757 15c16.15 0 31.402 6.194 42.88 17.023-10.16.958-18.14 9.53-18.14 19.935v14.337c0 11.046 8.986 20.032 20.032 20.032h6.69c-.42 1.61-.665 3.29-.665 5.03v5.254c-11.4-6.327-24.29-9.706-37.57-9.706-10.422 0-20.794 2.135-30.354 6.2-11.01-13.625-26.53-23.458-44.272-27.203C197.85 36.866 223.59 15 253.757 15zm-139.94 126.743c0-34.47 28.044-62.515 62.515-62.515s62.516 28.044 62.516 62.515a62.18 62.18 0 0 1-.571 8.383H114.39a62.32 62.32 0 0 1-.571-8.383zM87.63 185.197c-1.396 0-2.53-1.136-2.53-2.53v-15.01c0-1.396 1.135-2.53 2.53-2.53H424.37c1.396 0 2.53 1.136 2.53 2.53v15.01c0 1.396-1.136 2.53-2.53 2.53H87.63zm363.858 84.65h23.105c11.12 0 20.17 9.048 20.17 20.17s-9.048 20.17-20.17 20.17H459.63a203.93 203.93 0 0 0-8.141-40.339z"/></svg>