<svg xmlns="http://www.w3.org/2000/svg" xmlns:xlink="http://www.w3.org/1999/xlink" height="512" width="512" xmlns:v="https://vecta.io/nano"><path d="M87.387 97.88h337.226v200.947H87.387z" fill="#365e7d"/><path d="M87.387 97.88v200.947h337.226V97.88zm306.866 160.947H117.747a10.36 10.36 0 0 1-10.36-10.36V148.24a10.36 10.36 0 0 1 10.36-10.36h276.506a10.36 10.36 0 0 1 10.36 10.36v100.227a10.36 10.36 0 0 1-10.36 10.36z" fill="#2b4d66"/><path d="M448.482 117.88H63.518V68.215C63.518 34.683 90.7 7.5 124.233 7.5h263.533c33.532 0 60.715 27.183 60.715 60.715v49.665z" fill="#aa7a63"/><path d="M387.767 7.5H124.233c-3.733 0-7.38.355-10.93 1h242.49c33.532 0 60.715 27.183 60.715 60.715v48.665h31.97V68.215C448.482 34.683 421.3 7.5 387.767 7.5z" fill="#986b54"/><path d="M290.97 117.88h-69.94V96.5c0-4.6 3.72-8.31 8.31-8.31h53.32c4.6 0 8.31 3.72 8.31 8.31v21.37z" fill="#ecf4ff"/><path d="M282.66 88.2h-19.483c4.6 0 8.31 3.72 8.31 8.31v21.37h19.483V96.5c0-4.6-3.72-8.31-8.31-8.31z" fill="#ddeafb"/><path d="M256.626 278.827H183.77c-4.657 0-8.432-3.775-8.432-8.432V255.1c0-4.657 3.775-8.432 8.432-8.432h72.855c4.657 0 8.432 3.775 8.432 8.432v15.284c0 4.658-3.775 8.433-8.432 8.433z" fill="#eab14d"/><path d="M256.626 246.678h-20.108c4.657 0 8.432 3.775 8.432 8.432v15.284c0 4.657-3.775 8.432-8.432 8.432h20.108c4.657 0 8.432-3.775 8.432-8.432V255.1c0-4.657-3.775-8.432-8.432-8.432z" fill="#e49542"/><use xlink:href="#B" fill="#f6e266"/><path d="M256.626 214.53h-20.108c4.657 0 8.432 3.775 8.432 8.432v15.284c0 4.657-3.775 8.432-8.432 8.432h20.108c4.657 0 8.432-3.775 8.432-8.432V222.96c0-4.656-3.775-8.432-8.432-8.432z" fill="#ecbe6b"/><use xlink:href="#B" y="-32.148" fill="#eab14d"/><use xlink:href="#C" fill="#e49542"/><path d="M376.2 278.827h-72.855c-4.657 0-8.432-3.775-8.432-8.432V255.1c0-4.657 3.775-8.432 8.432-8.432H376.2c4.657 0 8.432 3.775 8.432 8.432v15.284c0 4.658-3.775 8.433-8.432 8.433z" fill="#eab14d"/><path d="M376.2 246.678h-20.108c4.657 0 8.432 3.775 8.432 8.432v15.284c0 4.657-3.775 8.432-8.432 8.432H376.2c4.657 0 8.432-3.775 8.432-8.432V255.1c0-4.657-3.775-8.432-8.432-8.432z" fill="#e49542"/><path d="M389.2 246.678h-72.855c-4.657 0-8.432-3.775-8.432-8.432v-15.284c0-4.657 3.775-8.432 8.432-8.432H389.2c4.657 0 8.432 3.775 8.432 8.432v15.284c0 4.657-3.775 8.432-8.432 8.432z" fill="#f6e266"/><path d="M389.2 214.53h-20.108c4.657 0 8.432 3.775 8.432 8.432v15.284c0 4.657-3.775 8.432-8.432 8.432H389.2c4.657 0 8.432-3.775 8.432-8.432V222.96c0-4.656-3.775-8.432-8.432-8.432z" fill="#ecbe6b"/><path d="M376.2 214.53h-72.855c-4.657 0-8.432-3.775-8.432-8.432v-15.284c0-4.657 3.775-8.432 8.432-8.432H376.2c4.657 0 8.432 3.775 8.432 8.432v15.284c0 4.657-3.775 8.432-8.432 8.432z" fill="#eab14d"/><path d="M376.2 182.38h-20.108c4.657 0 8.432 3.775 8.432 8.432v15.284c0 4.657-3.775 8.432-8.432 8.432H376.2c4.657 0 8.432-3.775 8.432-8.432v-15.284c0-4.657-3.775-8.432-8.432-8.432z" fill="#e49542"/><path d="M236.626 182.38H163.77c-4.657 0-8.432-3.775-8.432-8.432v-15.284c0-4.657 3.775-8.432 8.432-8.432h72.855c4.657 0 8.432 3.775 8.432 8.432v15.284c0 4.656-3.775 8.432-8.432 8.432z" fill="#f6e266"/><use xlink:href="#C" x="-20" y="-32.148" fill="#ecbe6b"/><circle cx="156.492" cy="252" fill="#f6e266" r="43.598"/><path d="M156.492 208.402c-3.9 0-7.678.52-11.275 1.48 18.61 4.97 32.322 21.94 32.322 42.117s-13.71 37.147-32.322 42.117a43.62 43.62 0 0 0 11.275 1.48c24.078 0 43.598-19.52 43.598-43.598s-19.52-43.596-43.598-43.596z" fill="#ecbe6b"/><path d="M430.578 504.5H81.422c-13.723 0-24.847-11.124-24.847-24.847V278.827h398.85v200.826c0 13.722-11.125 24.847-24.847 24.847z" fill="#aa7a63"/><path d="M420.454 278.827v200.826c0 13.723-11.124 24.847-24.847 24.847h34.97c13.723 0 24.847-11.125 24.847-24.847V278.827z" fill="#986b54"/><path d="M279.44 338.863h-46.88c-6.368 0-11.53-5.162-11.53-11.53v-48.505h69.94v48.505c0 6.367-5.163 11.53-11.53 11.53z" fill="#ecf4ff"/><path d="m271.488 278.827v48.505c0 6.368-5.162 11.53-11.53 11.53h19.483c6.368 0 11.53-5.162 11.53-11.53v-48.505z" fill="#ddeafb"/><path d="M420.425 414.084V313.827H325.97v13.505c0 25.657-20.873 46.53-46.53 46.53h-46.88c-25.657 0-46.53-20.873-46.53-46.53v-13.505H91.575v100.257c30.605 0 55.416 24.81 55.416 55.416h218.017c0-30.605 24.81-55.416 55.417-55.416z" fill="#f6e266"/><path d="M395.212 313.827v68.385c0 15.754-8.913 30.347-23.214 36.954-19.01 8.782-32.202 28.018-32.202 50.334h25.212c0-30.605 24.81-55.416 55.416-55.416V313.827z" fill="#ecbe6b"/><path d="M427.925 414.084V313.827a7.5 7.5 0 0 0-7.5-7.5H325.97a7.5 7.5 0 0 0-7.5 7.5v13.505c0 21.52-17.5 39.03-39.03 39.03h-46.88c-21.52 0-39.03-17.5-39.03-39.03v-13.505a7.5 7.5 0 0 0-7.5-7.5H91.575a7.5 7.5 0 0 0-7.5 7.5v100.257a7.5 7.5 0 0 0 7.5 7.5c26.42 0 47.916 21.495 47.916 47.916a7.5 7.5 0 0 0 7.5 7.5h218.017a7.5 7.5 0 0 0 7.5-7.5c0-26.42 21.495-47.916 47.916-47.916a7.5 7.5 0 0 0 7.501-7.5zm-15-7.056c-28.712 3.425-51.547 26.26-54.972 54.972H154.047c-3.425-28.712-26.26-51.547-54.972-54.972v-85.7h79.454v6.005c0 29.792 24.238 54.03 54.03 54.03h46.88c29.792 0 54.03-24.238 54.03-54.03v-6.005h79.454v85.7zM98.192 453.7v2.604a7.5 7.5 0 1 0 15 0V453.7a7.5 7.5 0 1 0-15 0zm300.616 0v2.604a7.5 7.5 0 1 0 15 0V453.7a7.5 7.5 0 1 0-15 0zm-79.695-32.46H192.887a7.5 7.5 0 1 0 0 15h126.226a7.5 7.5 0 1 0 0-15zm136.312 14.215a7.5 7.5 0 0 0 7.5-7.5V278.827a7.5 7.5 0 0 0-7.5-7.5h-23.312V125.38h16.37a7.5 7.5 0 0 0 7.5-7.5V68.215C455.982 30.6 425.38 0 387.766 0h-216.28a7.5 7.5 0 1 0 0 15h216.28c19.293 0 36.22 10.32 45.552 25.73H78.682C88.015 25.32 104.94 15 124.234 15H141.5a7.5 7.5 0 1 0 0-15h-17.265C86.62 0 56.018 30.6 56.018 68.215v49.665a7.5 7.5 0 0 0 7.5 7.5h16.37v145.947H56.575a7.5 7.5 0 0 0-7.5 7.5v200.825c0 17.837 14.5 32.348 32.347 32.348h349.156c17.836 0 32.347-14.5 32.347-32.348v-21.7a7.5 7.5 0 1 0-15 0v21.7c0 9.565-7.78 17.348-17.347 17.348H81.422c-9.565 0-17.347-7.782-17.347-17.348V286.327H213.53v41.005c0 10.493 8.537 19.03 19.03 19.03h46.88c10.493 0 19.03-8.537 19.03-19.03v-41.005h149.454v141.628c.002 4.143 3.36 7.5 7.502 7.5zM71.018 68.215a53.14 53.14 0 0 1 1.493-12.484h366.977a53.14 53.14 0 0 1 1.493 12.484v42.165H298.47V96.5c0-8.718-7.093-15.8-15.8-15.8h-53.32c-8.718 0-15.8 7.093-15.8 15.8v13.87H71.016V68.215zM283.47 110.38h-54.94V96.5a.81.81 0 0 1 .811-.811h53.32a.81.81 0 0 1 .811.811v13.87zM120.394 252c0-19.904 16.193-36.098 36.098-36.098S192.6 232.096 192.6 252c0 6.942-1.937 13.555-5.622 19.327h-60.952A35.67 35.67 0 0 1 120.394 252zm62.444-45.902v-15.285c0-.514.418-.932.933-.932h72.855c.514 0 .932.418.932.932v15.285c0 .514-.418.932-.932.932H183.77c-.514-.001-.933-.42-.933-.932zm54.72-32.15c0 .515-.418.933-.932.933H163.77c-.514 0-.933-.418-.933-.933v-15.284c0-.514.418-.932.933-.932h72.855c.514 0 .932.418.932.932zm-33.752 97.38c2.22-5.412 3.5-11.182 3.738-17.148h49.082c.514 0 .933.418.933.932v15.284c0 .515-.418.933-.933.933l-52.82-.001zm53.752-48.365v15.284c0 .515-.418.933-.933.933H205.96c-1.624-6.263-4.418-12.056-8.12-17.15h58.786a.93.93 0 0 1 .933.932zm25.912 104.37c0 2.223-1.808 4.03-4.03 4.03h-46.88c-2.222 0-4.03-1.808-4.03-4.03v-41.005h54.94v41.005zm19.865-56.005c-.515 0-.933-.418-.933-.933V255.1c0-.515.418-.933.933-.933H376.2c.514 0 .932.418.932.933v15.284c0 .515-.418.933-.932.933zM389.2 222.03c.514 0 .932.418.932.933v15.284c0 .514-.418.932-.932.932h-72.855c-.515 0-.933-.418-.933-.932v-15.284c0-.515.418-.933.933-.933zm2.885 49.298c.018-.3.047-.618.047-.933V255.1c0-.407-.03-.806-.06-1.205 7.418-1.357 13.06-7.855 13.06-15.66V222.95c0-7.804-5.643-14.302-13.06-15.66.03-.4.06-.8.06-1.205v-15.284c0-8.785-7.146-15.932-15.932-15.932h-21.4a7.5 7.5 0 1 0 0 15h21.4c.514 0 .932.418.932.932v15.284c0 .515-.418.933-.932.933h-72.855c-.515 0-.933-.418-.933-.933v-15.284c0-.514.418-.932.933-.932h21.468a7.5 7.5 0 1 0 0-15h-21.468c-8.785 0-15.933 7.146-15.933 15.932v15.284c0 7.803 5.644 14.302 13.06 15.66-.03.4-.06.8-.06 1.206v15.284c0 .407.03.806.06 1.205-7.417 1.358-13.06 7.856-13.06 15.66v15.284c0 .315.03.622.047.933H272.5c.018-.3.047-.618.047-.933V255.1c0-3.098-.903-5.983-2.44-8.432a15.82 15.82 0 0 0 2.44-8.432v-15.284c0-3.098-.903-5.983-2.44-8.432a15.82 15.82 0 0 0 2.44-8.432v-15.285c0-8.785-7.147-15.932-15.932-15.932H252.5c.018-.3.047-.618.047-.933v-15.284c0-8.785-7.147-15.932-15.932-15.932H163.77c-8.785 0-15.933 7.146-15.933 15.932v15.284c0 8.785 7.147 15.933 15.933 15.933h4.115c-.018.3-.047.617-.047.932v11.375a51.01 51.01 0 0 0-11.346-1.286c-28.175 0-51.098 22.922-51.098 51.098 0 6.74 1.295 13.258 3.784 19.327h-14.29V125.38h322.226v145.947z"/><defs ><path id="B" d="M256.626 246.678H183.77c-4.657 0-8.432-3.775-8.432-8.432v-15.284c0-4.657 3.775-8.432 8.432-8.432h72.855c4.657 0 8.432 3.775 8.432 8.432v15.284c0 4.657-3.775 8.432-8.432 8.432z"/><path id="C" d="M256.626 182.38h-20.108c4.657 0 8.432 3.775 8.432 8.432v15.284c0 4.657-3.775 8.432-8.432 8.432h20.108c4.657 0 8.432-3.775 8.432-8.432v-15.284c0-4.657-3.775-8.432-8.432-8.432z"/></defs></svg>