<svg xmlns="http://www.w3.org/2000/svg" viewBox="0 0 512 512" width="682.667" height="682.667" xmlns:v="https://vecta.io/nano"><defs><clipPath id="A"><path d="M0 0h512v512H0z"/></clipPath></defs><g clip-path="url(#A)"><circle vector-effect="non-scaling-stroke" cx="255.999" cy="256" r="245.08" fill="#f6e266"/><path d="M256 10.92a248.37 248.37 0 0 0-18.046.664C364.88 20.823 464.986 126.716 464.986 256S364.88 491.177 237.953 500.416c5.96.434 11.976.663 18.046.663 135.355 0 245.08-109.726 245.08-245.08S391.354 10.92 256 10.92h0z" fill="#ecbe6b"/><path d="M256 447.45c105.568 0 191.452-85.884 191.452-191.45S361.567 64.55 256 64.55 64.548 150.434 64.548 256 150.432 447.45 256 447.45zm0-361.06c93.523 0 169.6 76.087 169.6 169.6S349.522 425.6 256 425.6 86.4 349.524 86.4 256 162.475 86.4 256 86.4h0zm-49.998 247.97c14.817 9.693 24.886 12.487 38.046 13.166v13.03a10.921 10.921 0 1 0 21.841 0V346.68c25.86-4.85 40.964-26.067 44.295-45.884 4.252-25.292-8.982-47.283-33.717-56.027l-10.578-3.865V184.6c13.144 1.595 22.572 7.265 22.782 7.393a10.93 10.93 0 0 0 15.02-3.437 10.93 10.93 0 0 0-3.4-15.064c-.824-.518-14.8-9.15-34.4-10.865v-11.192a10.921 10.921 0 1 0-21.841 0v12.485a71.25 71.25 0 0 0-5.643 1.44c-16.263 4.9-28.418 18.826-31.717 36.34-3.006 15.95 2.1 31.325 13.3 40.118 6.066 4.758 13.64 9.115 24.06 13.73v70.102c-9.356-.603-15.623-2.733-26.087-9.58a10.93 10.93 0 0 0-15.12 3.16 10.92 10.92 0 0 0 3.16 15.117h0zm27.466-109.716c-4.77-3.74-6.8-10.98-5.318-18.887 1.368-7.257 6.27-16.02 15.898-19.243v44.804c-4-2.122-7.6-4.344-10.58-6.674h0zm35.72 40.717c21.726 7.678 20.385 26.292 19.456 31.814-1.843 10.964-9.582 22.624-22.755 26.95V264.18l3.3 1.18zM256-.001C114.84-.001 0 114.84 0 256c0 65.506 24.736 127.838 69.653 175.512a10.93 10.93 0 0 0 15.439.458c4.4-4.137 4.594-11.047.46-15.44C44.467 372.928 21.84 315.915 21.84 256 21.84 126.882 126.884 21.84 256 21.84S490.16 126.884 490.16 256 385.114 490.16 256 490.16c-50.55 0-98.684-15.86-139.2-45.863-4.848-3.6-11.685-2.568-15.275 2.276s-2.57 11.687 2.276 15.276C148.104 494.66 200.732 512 256 512c141.16 0 256-114.84 256-256s-114.84-256-256-256h0z"/></g></svg>