<svg xmlns="http://www.w3.org/2000/svg" xmlns:xlink="http://www.w3.org/1999/xlink" height="512" width="512" xmlns:v="https://vecta.io/nano"><style><![CDATA[.B{fill:#f6e266}.C{fill:#ecbe6b}.D{fill:#eab14d}.E{fill:#e49542}]]></style><use xlink:href="#B" class="B"/><path d="M223.094 165.835c0-8.566-6.326-15.5-14.13-15.5H185.96c7.803 0 14.13 6.944 14.13 15.5 0 5.732-3.875 10.702-9.41 12.198-19.012 5.143-36.596 13.76-52.028 25.13h70.313c7.604 0 14.13-6.985 14.13-14.803v-22.524z" class="C"/><path d="M474.696 467.355H288.71c-8.176 0-14.803-6.628-14.803-14.803V429.32c0-8.176 6.628-14.803 14.803-14.803h185.987c8.176 0 14.803 6.628 14.803 14.803v23.23c.001 8.177-6.627 14.804-14.803 14.804z" class="D"/><use xlink:href="#C" class="E"/><use xlink:href="#D" class="B"/><path d="M475.37 361.678h-23.005c7.803 0 14.13 6.944 14.13 15.5v21.817c0 8.566-6.326 15.5-14.13 15.5h23.005c7.803 0 14.13-6.944 14.13-15.5v-21.817c0-8.565-6.326-15.5-14.13-15.5z" class="C"/><use xlink:href="#E" class="D"/><path d="M475.37 308.84h-23.005c7.803 0 14.13 6.944 14.13 15.5v21.817c0 8.566-6.326 15.5-14.13 15.5h23.005c7.803 0 14.13-6.944 14.13-15.5V324.35c0-8.566-6.326-15.5-14.13-15.5z" class="E"/><path d="M489.696 308.84H303.71c-8.176 0-14.803-6.628-14.803-14.803v-23.23c0-8.176 6.628-14.803 14.803-14.803h185.987c8.176 0 14.803 6.628 14.803 14.803v23.23c.001 8.175-6.627 14.803-14.803 14.803z" class="B"/><use xlink:href="#C" x="15" y="-158.515" class="C"/><use xlink:href="#D" y="-158.515" class="D"/><path d="M475.37 203.163h-23.005c7.803 0 14.13 6.944 14.13 15.5V240.5c0 8.566-6.326 15.5-14.13 15.5h23.005c7.803 0 14.13-6.944 14.13-15.5v-21.817c0-8.565-6.326-15.5-14.13-15.5z" class="E"/><use xlink:href="#E" y="-158.515" class="B"/><use xlink:href="#C" y="-264.192" class="C"/><path d="M232.49 467.355H46.504c-8.176 0-14.803-6.628-14.803-14.803V429.32c0-8.176 6.628-14.803 14.803-14.803H232.49c8.176 0 14.803 6.628 14.803 14.803v23.23c0 8.177-6.628 14.804-14.803 14.804z" class="D"/><g class="E"><path d="M232.49 414.517H99.242a158.07 158.07 0 0 0 56.129 52.838h77.12c8.176 0 14.803-6.628 14.803-14.803V429.32c0-8.175-6.628-14.803-14.803-14.803z"/><path d="M233.166 414.517H210.16c7.803 0 14.13 6.944 14.13 15.5v21.817c0 8.566-6.326 15.5-14.13 15.5h23.005c7.803 0 14.13-6.944 14.13-15.5v-21.817c-.001-8.566-6.326-15.5-14.13-15.5z"/></g><use xlink:href="#F" class="B"/><g class="C"><path d="M232.49 361.678H77.77a156.36 156.36 0 0 0 21.473 52.838h133.25c8.176 0 14.803-6.628 14.803-14.803v-23.23c0-8.176-6.628-14.804-14.803-14.804z"/><path d="M233.166 361.678H210.16c7.803 0 14.13 6.944 14.13 15.5v21.817c0 8.566-6.326 15.5-14.13 15.5h23.005c7.803 0 14.13-6.944 14.13-15.5v-21.817c-.001-8.565-6.326-15.5-14.13-15.5z"/></g><use xlink:href="#B" y="158.515" class="D"/><g class="E"><path d="M208.3 308.84H75.957a158.75 158.75 0 0 0-1.405 21.041c0 10.894 1.11 21.528 3.217 31.798H208.3c8.176 0 14.803-6.628 14.803-14.803v-23.23c.001-8.177-6.627-14.805-14.803-14.805z"/><path d="M233.166 308.84H210.16c7.803 0 14.13 6.944 14.13 15.5v21.817c0 8.566-6.326 15.5-14.13 15.5h23.005c7.803 0 14.13-6.944 14.13-15.5V324.35c-.001-8.566-6.326-15.5-14.13-15.5z"/></g><use xlink:href="#F" y="-105.677" class="B"/><path d="M232.49 256.002H92.957a156.22 156.22 0 0 0-17 52.838H232.49c8.176 0 14.803-6.628 14.803-14.803v-23.23c0-8.177-6.628-14.804-14.803-14.804z" class="C"/><use xlink:href="#F" y="-158.515" class="D"/><g class="E"><path d="M232.49 203.163h-93.84C119.747 217.09 104.074 235.146 92.957 256H232.49c8.176 0 14.803-6.628 14.803-14.803v-23.23c0-8.176-6.628-14.804-14.803-14.804z"/><path d="M233.166 203.163H210.16c7.803 0 14.13 6.944 14.13 15.5V240.5c0 8.566-6.326 15.5-14.13 15.5h23.005c7.803 0 14.13-6.944 14.13-15.5v-21.817c-.001-8.565-6.326-15.5-14.13-15.5z"/></g><path d="M445.7 150.325H259.713c-8.176 0-14.803-6.628-14.803-14.803V112.3c0-8.176 6.628-14.803 14.803-14.803H445.7c8.176 0 14.803 6.628 14.803 14.803v23.23c0 8.176-6.627 14.804-14.803 14.804z" class="D"/><path d="M446.375 97.487H423.37c7.803 0 14.13 6.944 14.13 15.5v21.817c0 8.566-6.326 15.5-14.13 15.5h23.005c7.803 0 14.13-6.944 14.13-15.5v-21.817c-.001-8.566-6.326-15.5-14.13-15.5z" class="E"/><path d="M474.696 97.487H288.71c-8.176 0-14.803-6.628-14.803-14.803V59.452c0-8.176 6.628-14.803 14.803-14.803h185.987c8.176 0 14.803 6.628 14.803 14.803v23.23c.001 8.176-6.627 14.804-14.803 14.804z" class="B"/><path d="M475.37 44.648h-23.005c7.803 0 14.13 6.944 14.13 15.5v21.817c0 8.566-6.326 15.5-14.13 15.5h23.005c7.803 0 14.13-6.944 14.13-15.5V60.16c0-8.566-6.326-15.51-14.13-15.51z" class="C"/><circle cx="231.852" cy="329.881" r="137.475" class="B"/><path d="M231.852 192.406c-4.598 0-9.143.23-13.625.672 69.528 6.84 123.85 65.476 123.85 136.803s-54.32 129.962-123.85 136.803c4.482.44 9.027.672 13.625.672 75.925 0 137.475-61.55 137.475-137.475s-61.55-137.475-137.475-137.475z" class="C"/><path d="M495.484 249.267c.975-2.503 1.516-5.222 1.516-8.066v-23.23c0-5.68-2.135-10.866-5.64-14.808 3.505-3.94 5.64-9.126 5.64-14.803v-23.23c0-12.298-10.005-22.304-22.303-22.304h-7.928a22.2 22.2 0 0 0 1.235-7.304V112.3a22.2 22.2 0 0 0-1.234-7.303h7.928c12.298 0 22.303-10.006 22.303-22.304v-23.23c0-12.298-10.005-22.304-22.303-22.304h-28.354a7.5 7.5 0 1 0 0 15h28.354c4.026 0 7.303 3.276 7.303 7.304v23.23c0 4.027-3.276 7.304-7.303 7.304H288.7c-4.027 0-7.304-3.276-7.304-7.304v-23.23c0-4.027 3.276-7.304 7.304-7.304h127.646a7.5 7.5 0 1 0 0-15H288.7c-12.298 0-22.304 10.006-22.304 22.304v23.23c0 2.558.438 5.014 1.235 7.304h-7.927c-12.298 0-22.304 10.005-22.304 22.303v23.23c0 12.298 10.005 22.304 22.304 22.304h7.927a22.2 22.2 0 0 0-1.235 7.304l.017 23.92c-11.174-2.724-22.762-4.148-34.573-4.148l-1.26.016V165.14c0-12.302-10.003-22.3-22.3-22.3H74.55a7.5 7.5 0 1 0 0 15H208.3c4.025 0 7.3 3.28 7.3 7.3v20.687a143.78 143.78 0 0 0-38.523 9.843H22.3a7.31 7.31 0 0 1-7.3-7.3v-23.23c0-4.03 3.275-7.3 7.3-7.3h22.27a7.5 7.5 0 1 0 0-15H22.3c-12.296 0-22.3 10-22.3 22.3v23.23c0 12.296 10.003 22.3 22.3 22.3h3.136a22.21 22.21 0 0 0-1.236 7.31v23.23a22.2 22.2 0 0 0 5.64 14.8c-3.504 3.94-5.64 9.125-5.64 14.8v23.24a22.21 22.21 0 0 0 1.233 7.3H22.3c-12.296 0-22.3 10.004-22.3 22.3v23.23c0 12.302 10.003 22.3 22.3 22.3h3.133a22.21 22.21 0 0 0-1.233 7.3v23.23c0 5.68 2.135 10.866 5.64 14.808-3.505 3.94-5.64 9.125-5.64 14.8v23.23c0 12.296 10.004 22.3 22.3 22.3h186.204c14.042-.083 27.72-2.127 40.786-6.024 4.083 3.8 9.52 6.024 15.22 6.024h49a7.5 7.5 0 1 0 0-15h-41.48c9.328-4.645 18.2-10.333 26.53-17.038 7.712-6.214 14.737-13.197 20.985-20.792H474.7a7.31 7.31 0 0 1 7.3 7.3v23.23a7.31 7.31 0 0 1-7.3 7.3h-107a7.5 7.5 0 1 0 0 15h107c12.296 0 22.3-10.004 22.3-22.3v-23.23a22.2 22.2 0 0 0-5.64-14.8A22.22 22.22 0 0 0 497 399.72V376.5c0-5.676-2.135-10.86-5.64-14.802 3.505-3.943 5.64-9.13 5.64-14.8v-23.23a22.17 22.17 0 0 0-1.516-8.065c9.5-2.555 16.516-11.24 16.516-21.535v-23.24c0-10.297-7.016-18.982-16.516-21.536zM482 323.64v23.23c0 4.03-3.274 7.3-7.3 7.3h-99.904a145.01 145.01 0 0 0 1.466-37.84H474.7a7.31 7.31 0 0 1 7.3 7.3zM314.397 210.664h160.3c.014 0 .027-.001.04-.001a7.32 7.32 0 0 1 7.262 7.31v23.23a7.31 7.31 0 0 1-7.3 7.301H351.8c-10.504-15.424-23.27-28.014-37.4-37.838zM252.4 135.52V112.3c0-4.026 3.276-7.303 7.304-7.303H445.7c4.027 0 7.304 3.276 7.304 7.303v23.23c0 4.027-3.276 7.304-7.304 7.304H259.714c-4.028 0-7.304-3.276-7.304-7.304zm222.287 22.304c4.026 0 7.303 3.276 7.303 7.304v23.23c0 4.014-3.255 7.28-7.263 7.302-.012 0-.024-.001-.037-.001h-186c-.01 0-.02.001-.03.001-4.014-.016-7.274-3.285-7.274-7.302v-23.23c0-4.027 3.276-7.304 7.304-7.304zM149.46 210.66a146.17 146.17 0 0 0-37.527 37.84H46.5a7.31 7.31 0 0 1-7.3-7.301v-23.23c0-4.03 3.275-7.3 7.3-7.3zM39.2 294.042v-23.24a7.31 7.31 0 0 1 7.3-7.3h56.492c-6.087 11.77-10.607 24.476-13.285 37.84H46.5a7.31 7.31 0 0 1-7.3-7.3zM15 346.87v-23.23a7.31 7.31 0 0 1 7.3-7.3h65.218c-.415 4.46-.637 8.974-.637 13.54 0 8.28.708 16.396 2.048 24.3H22.3c-4.026-.001-7.3-3.28-7.3-7.3zm77.296 22.3c3.8 13.513 9.54 26.228 16.866 37.84H46.5c-4.025 0-7.3-3.28-7.3-7.3v-23.23a7.31 7.31 0 0 1 7.3-7.3zM46.5 459.85a7.31 7.31 0 0 1-7.3-7.3v-23.23a7.31 7.31 0 0 1 7.3-7.3h73.508a145.88 145.88 0 0 0 47.676 37.83zm266.848-28.716C228.8 499.27 101.88 438.5 101.88 329.882c0-71.672 58.304-129.98 129.97-129.98 83.27 0 145.984 77.773 126.48 160.05v.002c-6.588 27.833-22.564 53.112-44.983 71.18zm41.226-24.114c7.383-11.724 13.094-24.48 16.857-37.84H474.7a7.31 7.31 0 0 1 7.3 7.3v23.23c0 4.03-3.274 7.3-7.3 7.3zM497 294.042a7.31 7.31 0 0 1-7.3 7.3H374.068a143.74 143.74 0 0 0-13.313-37.84H489.7a7.31 7.31 0 0 1 7.3 7.3zm-265.148-72.516c-59.747 0-108.355 48.607-108.355 108.354s48.608 108.354 108.355 108.354 108.354-48.607 108.354-108.354S291.6 221.526 231.852 221.526zm0 201.7c-51.476 0-93.355-41.88-93.355-93.354s41.88-93.354 93.355-93.354 93.354 41.88 93.354 93.354-41.878 93.354-93.354 93.354zm27.25-100.856h-54.5a7.5 7.5 0 1 0 0 15h54.5a7.5 7.5 0 1 0 0-15z"/><defs ><path id="B" d="M208.3 203.163H22.303c-8.176 0-14.803-6.628-14.803-14.803v-23.23c0-8.176 6.628-14.803 14.803-14.803H208.3c8.176 0 14.803 6.628 14.803 14.803v23.23c.001 8.176-6.627 14.803-14.803 14.803z"/><path id="C" d="M475.37 414.517h-23.005c7.803 0 14.13 6.944 14.13 15.5v21.817c0 8.566-6.326 15.5-14.13 15.5h23.005c7.803 0 14.13-6.944 14.13-15.5v-21.817c0-8.566-6.326-15.5-14.13-15.5z"/><path id="D" d="M474.696 414.517H288.71c-8.176 0-14.803-6.628-14.803-14.803v-23.23c0-8.176 6.628-14.803 14.803-14.803h185.987c8.176 0 14.803 6.628 14.803 14.803v23.23c.001 8.175-6.627 14.803-14.803 14.803z"/><path id="E" d="M474.696 361.678H288.71c-8.176 0-14.803-6.628-14.803-14.803v-23.23c0-8.176 6.628-14.803 14.803-14.803h185.987c8.176 0 14.803 6.628 14.803 14.803v23.23c.001 8.176-6.627 14.803-14.803 14.803z"/><path id="F" d="M232.49 414.517H46.504c-8.176 0-14.803-6.628-14.803-14.803v-23.23c0-8.176 6.628-14.803 14.803-14.803H232.49c8.176 0 14.803 6.628 14.803 14.803v23.23c0 8.175-6.628 14.803-14.803 14.803z"/></defs></svg>