<svg xmlns="http://www.w3.org/2000/svg" viewBox="0 0 60 60" width="80" height="80" xmlns:v="https://vecta.io/nano"><defs><clipPath id="A"><path d="M0 0h60v60H0z"/></clipPath></defs><g clip-path="url(#A)"><path d="M58.02 49.003V55a4.01 4.01 0 0 1-3.999 3.998H6.04a4.01 4.01 0 0 1-3.998-3.998v-5.998c0-.597.398-1 1-1H57.02c.6 0 1 .403 1 1z" fill="#4e342e"/><path d="M55.02 49.003V55a4.01 4.01 0 0 1-3.999 3.998H6.04a4.01 4.01 0 0 1-3.998-3.998v-5.998c0-.597.398-1 1-1h50.98c.602 0 1 .403 1 1z" fill="#795548"/><path d="M17.037 27.012h25.99v20.99h-25.99v-20.99z" fill="#9e9e9e"/><path d="M3.042 31.01h13.995v16.992H3.042V31.01z" fill="#cfd8dc"/><path d="M2.043 23.014h15.993a.94.94 0 0 1 1 .999v4.998c0 1.1-.898 2-2 2H3.042c-1.1 0-2-.9-2-2v-4.998c0-.597.4-1 1-1z" fill="#607d8b"/><path d="M2.043 23.014l6.6-6.595c.796-.8 2-.8 2.795 0l6.6 6.595" fill="#f44335"/><path d="M43.026 31.01H57.02v16.992H43.026V31.01z" fill="#607d8b"/><path d="M59.02 24.013v4.998c0 1.1-.898 2-2 2H43.026c-1.1 0-2-.9-2-2v-4.998a.94.94 0 0 1 .999-.999H58.02a.94.94 0 0 1 .999.999z" fill="#37474f"/><path d="M58.02 23.014H42.026l6.6-6.595a1.96 1.96 0 0 1 1.398-.601 1.96 1.96 0 0 1 1.398.601l6.6 6.595z" fill="#c52828"/><path d="M30.03 31.01c4.397 0 7.997 3.6 7.997 7.996v8.996H22.035v-8.996c0-4.396 3.6-7.996 7.996-7.996z" fill="#607d8b"/><path d="M23.034 13.018h13.994v13.994H23.034V13.018z" fill="#cfd8dc"/><path d="M33.03 20.015c0 1.66-1.343 3-3 3a3 3 0 0 1-2.999-2.999 3 3 0 0 1 2.999-2.999 3 3 0 0 1 2.999 2.999z" fill="#02a9f4"/><path d="M40.027 9.02v1a2.94 2.94 0 0 1-2.999 2.999H23.034a2.94 2.94 0 0 1-2.999-2.999v-1c0-.598.4-1 1-1h17.992a.94.94 0 0 1 1 1z" fill="#607d8b"/><path d="M58.02 49.003v2.4c0 1.7-1.102 3.097-2.8 3.5-.8.2-1.5.098-2.198-.3 1.198-.6 2-1.897 2-3.3v-2.3c0-.597-.398-1-1-1h3c.6 0 1 .403 1 1z" fill="#2e7d32"/><path d="M43.026 31.01H54.02v16.992H43.026V31.01z" fill="#cfd8dc"/><path d="M56.02 24.013v4.998c0 1.1-.898 2-2 2H43.026c-1.1 0-2-.9-2-2v-4.998a.94.94 0 0 1 .999-.999H55.02a.94.94 0 0 1 .999.999z" fill="#607d8b"/><path d="M55.02 23.014H42.026l6.498-6.497 6.497 6.497z" fill="#f44335"/><path d="M55.02 49.003v2.4c0 1.398-.8 2.597-2 3.3-1.2-.602-2-1.8-2-3.202 0 1.1-.6 2.202-1.5 2.9a3.62 3.62 0 0 1-1.999.598 4.02 4.02 0 0 1-1.499-.297c-1.2-.602-2-1.8-2-3.202 0 1.1-.6 2.202-1.5 2.9a3.62 3.62 0 0 1-1.999.598c-.5 0-1-.098-1.5-.297-1.198-.602-2-1.8-2-3.202 0 1.1-.6 2.202-1.5 2.9a3.62 3.62 0 0 1-1.999.598c-.5 0-1-.098-1.5-.297-1.198-.602-2-1.8-2-3.202 0 1.1-.6 2.202-1.5 2.9a3.62 3.62 0 0 1-1.999.598c-.5 0-1-.098-1.5-.297-1.198-.602-2-1.8-2-3.202 0 1.1-.6 2.202-1.5 2.9-.602.398-1.3.598-2 .598-.5 0-1-.098-1.5-.297-1.198-.602-2-1.8-2-3.202 0 1.1-.6 2.202-1.5 2.9-.602.398-1.3.598-2 .598-.5 0-1-.098-1.5-.297-1.2-.602-2-1.8-2-3.202 0 1.1-.5 2.1-1.3 2.702s-1.898.898-2.897.7c-.3-.102-.5-.102-.8-.3-1.2-.6-2-1.897-2-3.3v-2.3c0-.597.398-1 1-1h50.98c.602 0 1 .403 1 1z" fill="#4caf50"/><path d="M39.027 8.02l-8.394-6.497c-.403-.297-.902-.297-1.203 0l-.597.5-3.9 2.998-3.698 2.8-.2.2" fill="#f44335"/><path d="M21.336 9.02c-.3 0-.602-.2-.8-.5-.1-.098-.1-.2-.2-.297-.2-.5 0-1.1.5-1.3s1.097 0 1.3.5c.297.5.2 1.097-.3 1.398-.2.1-.402.2-.5.2z"/><path d="M58.52 22.116l-6.395-6.396c-1.203-1.203-3.1-1.203-4.202 0l-6.396 6.396c-.898.2-1.5 1-1.5 1.897v2h-2V13.92c1.8-.5 3-2 3-3.9v-1c0-1-.7-1.796-1.6-2L30.633.226c-.403-.3-.902-.3-1.203 0L20.637 7.02c-.902.203-1.6 1-1.6 2v1c0 1.8 1.2 3.4 3 3.9v12.093h-2v-2c0-.898-.6-1.698-1.5-1.897L12.14 15.72c-1.202-1.203-3.1-1.203-4.2 0l-6.396 6.396c-.898.2-1.5 1-1.5 1.897v4.998a2.91 2.91 0 0 0 1.999 2.8v15.494c-.6.402-1 1-1 1.698V55c0 2.8 2.2 4.997 4.998 4.997h47.98c2.8 0 4.998-2.198 4.998-4.997v-5.998c0-.7-.398-1.398-1-1.698V31.8a2.91 2.91 0 0 0 1.999-2.8v-4.998c0-.898-.602-1.698-1.5-1.897zm-9.195-4.998c.398-.398 1-.398 1.398 0l4.9 4.896h-11.2l4.9-4.896zm6.696 16.9h-4.998a.94.94 0 0 0-.999 1 .94.94 0 0 0 1 1h4.998v10.996H44.025V36.008h3a.94.94 0 0 0 1-.999c0-.598-.4-1-1-1h-3v-2H56.02v2zm1 17.395c0 1.2-.8 2.3-2 2.5-.7.2-1.5 0-2.1-.5-.597-.403-.898-1.102-.898-1.902 0-.597-.398-1-1-1s-1 .403-1 1c0 1.402-1.1 2.5-2.5 2.5a2.47 2.47 0 0 1-2.5-2.5c0-.597-.398-1-1-1s-1 .403-1 1c0 1.402-1.1 2.5-2.5 2.5a2.47 2.47 0 0 1-2.5-2.5c0-.597-.398-1-1-1s-1 .403-1 1c0 1.402-1.1 2.5-2.5 2.5a2.47 2.47 0 0 1-2.5-2.5c0-.597-.398-1-1-1s-1 .403-1 1c0 1.402-1.1 2.5-2.5 2.5a2.47 2.47 0 0 1-2.5-2.5c0-.597-.4-1-1-1s-1 .403-1 1c0 1.402-1.102 2.5-2.5 2.5s-2.5-1.097-2.5-2.5c0-.597-.4-1-1-1s-1 .403-1 1A2.47 2.47 0 0 1 12.525 54c-1.398 0-2.5-1.097-2.5-2.5 0-.597-.4-1-1-1s-1 .403-1 1c0 .8-.3 1.5-.898 1.902-.6.5-1.4.698-2.1.5-1.2-.3-2-1.3-2-2.5v-2.4H57.02v2.4zM4.042 36.008h3a.94.94 0 0 0 1-1 .94.94 0 0 0-.999-1h-3v-2h11.995v2H11.04a.94.94 0 0 0-.999 1 .94.94 0 0 0 1 1h4.998v10.996H4.042V36.008zm-2-6.997v-4.998h1v1a.94.94 0 0 0 1 1 .94.94 0 0 0 1-1v-1h2v1a.94.94 0 0 0 .999 1 .94.94 0 0 0 1-1v-1h2v1a.94.94 0 0 0 1 1 .94.94 0 0 0 .999-1v-1h2v1a.94.94 0 0 0 1 1 .94.94 0 0 0 1-1v-1h1v4.998c0 .602-.398 1-1 1H3.042a.94.94 0 0 1-1-1zm34.985 17.993H23.034v-7.997c0-3.897 3.1-6.997 6.997-6.997s6.997 3.1 6.997 6.997v7.997zM30.03 2.323l6.1 4.698H23.932l6.1-4.698zm-8.996 7.696v-1h2a.94.94 0 0 0 1 1c.602 0 1-.398 1-1h2a.94.94 0 0 0 1 .999.94.94 0 0 0 1-.999h2a.94.94 0 0 0 1 1c.602 0 1-.398 1-1h2a.94.94 0 0 0 1 1c.602 0 1-.398 1-1h2v1c0 1.1-.898 2-2 2h-14c-1.1 0-2-.898-2-2zm3 4H36.03v11.995H24.034V14.018zm-1 13.994h16.993v1a2.91 2.91 0 0 0 1.999 2.8v15.193h-3V39.01a8.96 8.96 0 0 0-8.996-8.996 8.96 8.96 0 0 0-8.996 8.996v7.997h-3V31.8a2.91 2.91 0 0 0 1.999-2.8v-1h3zM9.34 17.118c.398-.398 1-.398 1.397 0l4.9 4.896H4.44l4.9-4.896zM54.02 58H6.04a2.97 2.97 0 0 1-3-2.795c.5.296 1 .5 1.5.698a3.81 3.81 0 0 0 .999.098c1.398 0 2.7-.597 3.5-1.698.8 1.1 2.1 1.698 3.5 1.698s2.698-.597 3.498-1.698c.8 1.1 2.1 1.698 3.5 1.698s2.698-.597 3.498-1.698c.8 1.1 2.1 1.698 3.5 1.698s2.698-.597 3.498-1.698c.8 1.1 2.1 1.698 3.5 1.698s2.698-.597 3.498-1.698c.8 1.1 2.1 1.698 3.5 1.698s2.698-.597 3.498-1.698c.8 1.1 2.1 1.698 3.5 1.698s2.698-.597 3.498-1.698c.8 1.1 2.1 1.698 3.5 1.698.3 0 .6 0 .898-.098.6-.1 1.1-.3 1.5-.698C56.918 56.8 55.622 58 54.02 58zm4-28.988a.94.94 0 0 1-1 1H43.026a.94.94 0 0 1-1-1v-4.998h1v1a.94.94 0 0 0 .999 1 .94.94 0 0 0 1-1v-1h2v1a.94.94 0 0 0 1 1 .94.94 0 0 0 .999-1v-1h2v1a.94.94 0 0 0 1 1 .94.94 0 0 0 1-1v-1h2v1a.94.94 0 0 0 .999 1 .94.94 0 0 0 1-1v-1h1v4.998zm-31.987 6.996c-.6 0-1 .403-1 1v1a.94.94 0 0 0 1 .999.94.94 0 0 0 1-1v-1c0-.597-.398-1-1-1z"/><path d="M26.033 41.006c-.6 0-1 .403-1 1v2a.94.94 0 0 0 1 1 .94.94 0 0 0 .999-1v-2c0-.597-.398-1-1-1zm7.997-4.998c-.602 0-1 .403-1 1v1a.94.94 0 0 0 1 1c.602 0 1-.398 1-1v-1c0-.597-.398-1-1-1zm0 4.998c-.602 0-1 .403-1 1v2a.94.94 0 0 0 1 1 .94.94 0 0 0 .999-1v-2c0-.597-.398-1-1-1zm-4 0c-.6 0-1 .403-1 1v2a.94.94 0 0 0 .999 1 .94.94 0 0 0 1-1v-2c0-.597-.398-1-1-1z"/><path d="M30.03 34a.94.94 0 0 0-.999 1v3a.94.94 0 0 0 1 1c.602 0 1-.398 1-1v-3a.94.94 0 0 0-1-1zm0-17.993c-2.198 0-3.998 1.8-3.998 3.998a4.01 4.01 0 0 0 3.998 3.998 4.01 4.01 0 0 0 3.999-3.998c0-2.198-1.8-3.998-4-3.998zm0 5.997c-1.1 0-2-.898-2-2s.898-2 2-2 2 .902 2 2-.898 2-2 2z"/></g></svg>