<svg xmlns="http://www.w3.org/2000/svg" xmlns:xlink="http://www.w3.org/1999/xlink" height="512" viewBox="0 0 60 60" width="512" xmlns:v="https://vecta.io/nano"><path d="M48 19v30.33c-.627-.218-1.286-.33-1.95-.33a5.89 5.89 0 0 0-1.63.23.96.96 0 0 1-.95-.27A6.01 6.01 0 0 0 39.03 47c-.73.001-1.456.133-2.14.4a.98.98 0 0 1-1-.21 9.05 9.05 0 0 0-11.78 0 .98.98 0 0 1-1 .21c-.684-.257-1.41-.39-2.14-.4a6.01 6.01 0 0 0-4.44 1.96.96.96 0 0 1-.95.27 5.89 5.89 0 0 0-1.63-.23c-.664.001-1.323.112-1.95.33V19c0-9.94 8.06-18 18-18s18 8.06 18 18z" fill="#7f8d93"/><path d="M42.73 6.27C39.355 2.893 34.775.997 30 1c-.507 0-1 .035-1.5.076A17.97 17.97 0 0 1 45 19v30.106c.346-.067.698-.103 1.05-.106.664.001 1.323.112 1.95.33V19c.003-4.775-1.893-9.355-5.27-12.73z" fill="#545c60"/><path d="M58 59H2a.99.99 0 0 1-.99-1.15c.56-2.82 3.035-4.852 5.9-4.85.437.001.873.048 1.3.14A6.05 6.05 0 0 1 13.95 49a5.89 5.89 0 0 1 1.63.23.96.96 0 0 0 .95-.27A6.01 6.01 0 0 1 20.97 47c.73.001 1.456.133 2.14.4a.98.98 0 0 0 1-.21 9.05 9.05 0 0 1 11.78 0 .98.98 0 0 0 1 .21c.684-.257 1.41-.39 2.14-.4a6.01 6.01 0 0 1 4.44 1.96.96.96 0 0 0 .95.27 5.89 5.89 0 0 1 1.63-.23 6.05 6.05 0 0 1 5.72 4.14c.427-.092.863-.14 1.3-.14 2.875-.002 5.35 2.03 5.9 4.85a.99.99 0 0 1-.99 1.15z" fill="#90562d"/><path d="M40.47 48.96a.96.96 0 0 0 .95.27 5.89 5.89 0 0 1 1.63-.23c.18 0 .35.03.524.045a.84.84 0 0 1-.1-.085 5.86 5.86 0 0 0-5.913-1.755c1.118.294 2.127.904 2.9 1.755zm18.5 8.9a6.02 6.02 0 0 0-5.9-4.85 6.24 6.24 0 0 0-1.3.14c-.98-3.034-4.167-4.765-7.245-3.933l.475.123a5.96 5.96 0 0 1 3.77 3.81c.427-.092.863-.14 1.3-.14 2.875-.002 5.35 2.03 5.9 4.85a.99.99 0 0 1-.99 1.15h3a.99.99 0 0 0 .99-1.15zM32.9 47.18a.98.98 0 0 0 1 .21c.582-.2 1.192-.332 1.8-.36A8.99 8.99 0 0 0 30 45c-.503.002-1.004.045-1.5.13a8.99 8.99 0 0 1 4.39 2.051z" fill="#6d4122"/><path d="M33 36.95V38a1 1 0 0 1-1 1h-4a1 1 0 0 1-1-1v-1.05a2.5 2.5 0 0 1-2.31-4.16 6 6 0 0 1 9.106-7.44 6 6 0 0 1 1.514 7.44A2.49 2.49 0 0 1 33 36.95z" fill="#f4f4f4"/><g fill="#ced7db"><path d="M35.3 32.8a6 6 0 0 0-6.81-8.59 6 6 0 0 1 3.81 8.593A2.49 2.49 0 0 1 30 36.95V38a1 1 0 0 1-1 1h3a1 1 0 0 0 1-1v-1.05a2.5 2.5 0 0 0 2.31-4.16zM25.54 26a5.84 5.84 0 0 0-1.53 3.73l-3.6-1.98a2.5 2.5 0 0 1-4.1-2.82 2.38 2.38 0 0 1 1.17-1.07 2.46 2.46 0 0 1 .27-1.56 2.5 2.5 0 0 1 4.58 1.94z"/><path d="M42.7 28.32a2.5 2.5 0 0 1-3.11-.57L36 29.73A5.84 5.84 0 0 0 34.46 26l3.2-1.76a2.5 2.5 0 0 1 4.58-1.94 2.46 2.46 0 0 1 .27 1.56 2.38 2.38 0 0 1 1.17 1.07 2.49 2.49 0 0 1-.99 3.39zm-20.37 11.1a2.5 2.5 0 0 1-4.58 1.94 2.46 2.46 0 0 1-.27-1.56c-.5-.216-.9-.592-1.17-1.07a2.5 2.5 0 0 1 4.1-2.82l3.66-2a2.35 2.35 0 0 0-.07.6 2.5 2.5 0 0 0 2.5 2.5h.27zm21.37-.7c-.26.478-.67.854-1.17 1.07a2.46 2.46 0 0 1-.27 1.56 2.5 2.5 0 0 1-4.58-1.94L33.23 37h.27a2.5 2.5 0 0 0 2.5-2.5 2.35 2.35 0 0 0-.07-.6l3.66 2a2.5 2.5 0 0 1 4.1 2.82z"/></g><g fill="#000"><path d="M43.437 5.562A19 19 0 0 0 11 19v29.646a7.07 7.07 0 0 0-3.408 3.387 7 7 0 0 0-7.556 5.624 1.97 1.97 0 0 0 .413 1.605A2.02 2.02 0 0 0 2.012 60h55.976a2.02 2.02 0 0 0 1.563-.738 1.94 1.94 0 0 0 .413-1.605 7 7 0 0 0-7.556-5.624A6.98 6.98 0 0 0 49 48.646V19c.01-5.042-1.992-9.88-5.563-13.438zM13 19c0-9.4 7.6-17 17-17s17 7.6 17 17v29.068a6.98 6.98 0 0 0-.948-.068 5.77 5.77 0 0 0-1.847.282c-1.33-1.45-3.207-2.28-5.176-2.282-.846.005-1.685.148-2.484.424A10.05 10.05 0 0 0 30 44a9.86 9.86 0 0 0-6.537 2.46 7.01 7.01 0 0 0-7.609 1.8 6.96 6.96 0 0 0-1.906-.26c-.317.001-.634.024-.948.068zm37.4 33.542a7.1 7.1 0 0 0-2.087 1.308 1 1 0 1 0 1.356 1.47 5.45 5.45 0 0 1 2.3-1.2h.015c1.312-.295 2.688-.05 3.82.676s1.924 1.877 2.2 3.193c-.005.006-.012.01-.02.01L2 58.04A5.02 5.02 0 0 1 6.926 54a5.1 5.1 0 0 1 1.086.121h.015a5.45 5.45 0 0 1 2.3 1.2 1 1 0 0 0 1.356-1.47 7.1 7.1 0 0 0-2.087-1.308 5 5 0 0 1 5.718-2.352 1.96 1.96 0 0 0 1.961-.557 5.08 5.08 0 0 1 5.48-1.3 2 2 0 0 0 2.008-.388 8.05 8.05 0 0 1 10.483 0 2 2 0 0 0 2.009.388c1.922-.7 4.082-.197 5.48 1.3.498.54 1.255.754 1.962.557a5 5 0 0 1 5.717 2.352zm-18-1.742a1 1 0 0 0 1.2-1.6 6.09 6.09 0 0 0-7.2 0 1 1 0 1 0 1.2 1.6 4.06 4.06 0 0 1 4.8 0zm-15.07 1.457a1 1 0 1 0 1.34 1.486c1.027-.97 2.634-.97 3.66 0a1 1 0 1 0 1.338-1.485 4.69 4.69 0 0 0-6.339-.001z"/><use xlink:href="#B"/><use xlink:href="#B" x="-9" y="2"/><path d="M23.257 33.206l-2.7 1.484a3.51 3.51 0 0 0-5.417 1.866 3.45 3.45 0 0 0 .292 2.65c.248.46.6.854 1.025 1.155a3.5 3.5 0 0 0 5.46 2.83 3.5 3.5 0 0 0 1.523-3.237l2.636-1.443A2 2 0 0 0 28 40h4a2 2 0 0 0 1.926-1.489l2.636 1.443a3.5 3.5 0 0 0 6.568 1.88 3.46 3.46 0 0 0 .415-1.473 3.36 3.36 0 0 0 1.02-1.147 3.49 3.49 0 0 0-1.378-4.748 3.5 3.5 0 0 0-3.742.224l-2.7-1.484c-.074-.19-.164-.372-.27-.546a7.02 7.02 0 0 0 .511-2.335l2.462-1.355c1.097.786 2.548.875 3.733.228a3.49 3.49 0 0 0 1.391-4.744 3.38 3.38 0 0 0-1.026-1.161 3.5 3.5 0 0 0-5.468-2.84 3.5 3.5 0 0 0-1.513 3.254l-1.93 1.06a6.96 6.96 0 0 0-9.264 0l-1.93-1.06a3.5 3.5 0 0 0-5.09-3.445 3.5 3.5 0 0 0-1.893 3.031 3.37 3.37 0 0 0-1.02 1.153A3.49 3.49 0 0 0 16.82 29.2a3.52 3.52 0 0 0 3.734-.227l2.462 1.355a7.02 7.02 0 0 0 .511 2.335c-.106.173-.196.355-.27.543zm-1.407 5.336a1 1 0 0 0-.474 1.178 1.49 1.49 0 0 1-.7 1.752c-.727.396-1.636.134-2.042-.587-.156-.284-.213-.613-.16-.933a1 1 0 0 0-.579-1.065 1.42 1.42 0 0 1-.705-.641c-.193-.345-.238-.753-.126-1.132.155-.53.588-.932 1.127-1.05s1.1.07 1.46.5a1 1 0 0 0 1.246.232l2.278-1.252a3.5 3.5 0 0 0 1.118 1.673zm18.5-1.987c.36-.418.92-.606 1.46-.5s.972.52 1.127 1.05c.112.382.066.793-.13 1.14-.154.285-.4.508-.7.633a1 1 0 0 0-.579 1.065c.052.316-.003.64-.156.923-.402.727-1.314.994-2.045.6a1.49 1.49 0 0 1-.706-1.753 1 1 0 0 0-.474-1.178L35.71 37.2a3.5 3.5 0 0 0 1.118-1.673l2.278 1.252a1 1 0 0 0 1.249-.234zm-2.2-11.438a1 1 0 0 0 .474-1.177 1.5 1.5 0 0 1 1.848-1.88 1.51 1.51 0 0 1 .9.714 1.46 1.46 0 0 1 .161.934 1 1 0 0 0 .595 1.071 1.38 1.38 0 0 1 .689.636 1.49 1.49 0 0 1-.594 2.027 1.5 1.5 0 0 1-1.867-.337 1 1 0 0 0-1.247-.231l-2.358 1.3a6.98 6.98 0 0 0-.8-1.846zM30 25c2.76.003 4.997 2.24 5 5a4.94 4.94 0 0 1-.574 2.321 1 1 0 0 0 .159 1.152 1.5 1.5 0 0 1-1.387 2.5 1 1 0 0 0-1.2.981V38H28v-1.05a1 1 0 0 0-1-1 1.03 1.03 0 0 0-.2.019c-.643.138-1.3-.16-1.62-.736s-.224-1.292.233-1.764a1 1 0 0 0 .159-1.152A4.94 4.94 0 0 1 25 30c.003-2.76 2.24-4.997 5-5zm-10.354 2.105a1.5 1.5 0 0 1-1.868.337 1.49 1.49 0 0 1-.589-2.036 1.38 1.38 0 0 1 .685-.627 1 1 0 0 0 .6-1.071c-.052-.317.003-.642.156-.924.192-.35.516-.61.9-.724a1.5 1.5 0 0 1 1.848 1.88 1 1 0 0 0 .474 1.177l2.2 1.208a6.98 6.98 0 0 0-.8 1.846l-2.358-1.3a1 1 0 0 0-1.248.234z"/><circle cx="28" cy="30" r="1"/><circle cx="32" cy="30" r="1"/><path d="M28.293 34.707a1 1 0 0 0 1.414 0l.293-.293.293.293a1 1 0 0 0 1.414-1.414l-1-1a1 1 0 0 0-1.414 0l-1 1a1 1 0 0 0 0 1.414zM21 18a1 1 0 0 0 1-1v-3h.382l1.723 3.447a1 1 0 1 0 1.79-.894L24.43 13.62A2.99 2.99 0 0 0 23 8h-1a2 2 0 0 0-2 2v7a1 1 0 0 0 1 1zm1-8h1a1 1 0 1 1 0 2h-1zm13 8a1 1 0 0 0 1-1v-3h1a3 3 0 1 0 0-6h-1a2 2 0 0 0-2 2v7a1 1 0 0 0 1 1zm1-8h1a1 1 0 1 1 0 2h-1zm-6 8a1 1 0 0 0 1-1V9a1 1 0 1 0-2 0v8a1 1 0 0 0 1 1z"/></g><defs ><path id="B" d="M36.33 52.257a1 1 0 1 0 1.34 1.486c1.027-.97 2.634-.97 3.66 0a1 1 0 0 0 1.674-.523 1 1 0 0 0-.336-.962 4.69 4.69 0 0 0-6.339-.001z"/></defs></svg>