<svg height="512pt" viewBox="-7 0 512 512.00025" width="512pt" xmlns="http://www.w3.org/2000/svg"><path d="m478.472656 129.277344c-44.574218-18.808594-75.542968-61-79.527344-109.957032-.546874-6.695312-6.203124-11.820312-12.921874-11.820312h-274.523438c-6.792969 0-12.375 5.246094-12.9375 12.019531-4.054688 48.917969-35.054688 91.054688-79.640625 109.8125-7.550781 3.175781-12.121094 10.925781-11.316406 19.078125 5.886719 59.683594 41.023437 262.996094 238.523437 355.503906.820313.386719 1.722656.585938 2.632813.585938.90625 0 1.808593-.199219 2.632812-.585938 197.492188-92.503906 232.632813-295.800781 238.523438-355.496093.808593-8.207031-3.847657-15.933594-11.445313-19.140625zm0 0" fill="#ededed"/><path d="m478.472656 129.277344c-44.574218-18.808594-75.542968-61-79.527344-109.957032-.546874-6.695312-6.203124-11.820312-12.921874-11.820312h-42.796876c1.628907 53.152344 38.148438 118.707031 84.917969 138.445312 7.597657 3.203126 12.253907 10.933594 11.445313 19.140626-5.496094 55.664062-36.429688 236.207031-200.730469 335.332031 2.398437 1.179687 4.820313 2.351562 7.269531 3.5.824219.382812 1.722656.582031 2.632813.582031.910156 0 1.8125-.199219 2.632812-.582031 197.492188-92.507813 232.632813-295.804688 238.523438-355.5.808593-8.207031-3.847657-15.933594-11.445313-19.140625zm0 0" fill="#d6d6d6"/><path d="m248.761719 42.519531h-113.414063c-2.757812 0-5.160156 1.882813-5.792968 4.566407-10.824219 45.816406-40.5625 84.84375-82.195313 107.398437-2.175781 1.179687-3.363281 3.605469-3.015625 6.058594 2.421875 17.078125 6.96875 41.46875 15.402344 69.46875h189.015625zm0 0" fill="#75cff2"/><path d="m437.78125 230.011719c8.433594-28.003907 12.980469-52.390625 15.402344-69.46875.347656-2.453125-.839844-4.878907-3.015625-6.058594-41.648438-22.5625-71.378907-61.589844-82.195313-107.398437-.632812-2.683594-3.039062-4.566407-5.792968-4.566407h-113.417969v187.492188zm0 0" fill="#53b4e4"/><path d="m246 464.78125c.863281.453125 1.8125.679688 2.761719.679688v-235.449219h-189.015625c6.40625 21.265625 15.046875 44.613281 26.71875 68.441406 36.242187 74.007813 89.867187 129.894531 159.535156 166.328125zm0 0" fill="#53b4e4"/><path d="m411.058594 298.460938c11.671875-23.832032 20.316406-47.183594 26.722656-68.449219h-189.019531v235.449219c.949219 0 1.898437-.226563 2.761719-.679688 69.671874-36.4375 123.296874-92.320312 159.535156-166.320312zm0 0" fill="#75cff2"/><path d="m411.058594 298.460938c11.671875-23.832032 20.316406-47.183594 26.722656-68.449219h-50.328125c-6.40625 21.265625-15.054687 44.617187-26.722656 68.449219-27.503907 56.152343-65.027344 101.855468-111.96875 136.5625v30.4375c.949219 0 1.898437-.226563 2.761719-.679688 69.671874-36.4375 123.296874-92.320312 159.535156-166.320312zm0 0" fill="#59c0d8"/><path d="m450.164062 154.484375c-41.644531-22.5625-71.375-61.589844-82.195312-107.398437-.632812-2.683594-3.035156-4.566407-5.792969-4.566407h-50.328125c2.753906 0 5.160156 1.882813 5.792969 4.566407 10.816406 45.808593 40.550781 84.835937 82.195313 107.398437 2.175781 1.179687 3.363281 3.605469 3.015624 6.058594-2.421874 17.078125-6.96875 41.464843-15.402343 69.46875h50.328125c8.433594-28.003907 12.984375-52.390625 15.40625-69.46875.347656-2.453125-.839844-4.878907-3.019532-6.058594zm0 0" fill="#40a5cc"/><path d="m481.402344 122.375c-42.5-17.933594-71.226563-57.652344-74.972656-103.660156-.855469-10.496094-9.8125-18.714844-20.398438-18.714844h-274.535156c-10.746094 0-19.523438 8.125-20.414063 18.898438-3.8125 45.976562-32.582031 85.644531-75.078125 103.527343-10.628906 4.472657-17.007812 15.214844-15.875 26.726563 2.589844 26.25 12.464844 95.167968 48.136719 168.015625 43.171875 88.152343 108.671875 153.277343 194.679687 193.5625 3.609376 1.695312 8.023438 1.691406 11.632813.003906 86.007813-40.285156 151.507813-105.410156 194.675781-193.554687 35.675782-72.847657 45.550782-141.765626 48.140625-168.019532 1.136719-11.503906-5.292969-22.269531-15.992187-26.785156zm1.066406 25.3125c-2.511719 25.441406-12.085938 92.242188-46.6875 162.890625-41.535156 84.8125-104.457031 147.496094-187.015625 186.3125-82.570313-38.816406-145.488281-101.503906-187.027344-186.320313-34.597656-70.652343-44.167969-137.449218-46.679687-162.886718-.484375-4.929688 2.230468-9.523438 6.761718-11.429688 47.667969-20.058594 79.933594-64.546875 84.210938-116.113281.242188-2.929687 2.589844-5.140625 5.464844-5.140625h274.535156c2.828125 0 5.21875 2.167969 5.445312 4.933594 4.199219 51.597656 36.421876 96.144531 84.09375 116.261718 4.609376 1.945313 7.382813 6.566407 6.898438 11.492188zm0 0"/><path d="m453.75 147.898438c-39.542969-21.421876-68.144531-58.796876-78.472656-102.535157-1.4375-6.089843-6.824219-10.34375-13.09375-10.34375h-226.84375c-6.269532 0-11.65625 4.253907-13.089844 10.34375-10.332031 43.742188-38.9375 81.113281-78.472656 102.53125-4.898438 2.652344-7.597656 7.992188-6.886719 13.601563 6.605469 51.964844 29.777344 113.613281 42.828125 140.269531 36.929688 75.410156 91.703125 132.5 162.808594 169.6875 3.367187 1.761719 9.078125 1.773437 12.472656 0 71.101562-37.1875 125.878906-94.277344 162.804688-169.679687 11.523437-23.53125 36.535156-94.632813 42.820312-140.195313.761719-5.539063-2-11.039063-6.875-13.679687zm-49.417969 147.28125c-34.054687 69.535156-83.839843 122.832031-148.070312 158.550781v-61.371094c0-4.144531-3.355469-7.5-7.5-7.5-4.140625 0-7.5 3.359375-7.5 7.5v61.371094c-64.226563-35.714844-114.011719-89.015625-148.070313-158.5625-6.226562-12.71875-14.835937-33.664063-22.726562-57.644531h170.796875v119.246093c0 4.140625 3.359375 7.5 7.5 7.5 4.144531 0 7.5-3.359375 7.5-7.5v-119.246093h169.984375c-8.003906 24.671874-16.5 46.59375-21.914063 57.65625zm26.605469-72.65625h-174.675781v-91.367188c0-4.144531-3.355469-7.5-7.5-7.5-4.140625 0-7.5 3.355469-7.5 7.5v91.367188h-175.507813c-6.058594-20.277344-11.230468-41.855469-13.859375-61.96875 42.425781-23.335938 73.195313-63.515626 84.660157-110.535157h104.707031v46.238281c0 4.140626 3.359375 7.5 7.5 7.5 4.144531 0 7.5-3.359374 7.5-7.5v-46.238281h104.707031c11.460938 47.015625 42.226562 87.1875 84.652344 110.53125-2.609375 18.222657-8.214844 40.5-14.683594 61.972657zm0 0"/></svg>