<svg xmlns="http://www.w3.org/2000/svg" viewBox="0 0 512 512" xmlns:v="https://vecta.io/nano"><path d="M409.6 469.333v-51.2l-68.267-68.266V162.133L384 128V42.667h-51.2v42.666h-51.2V42.667h-51.2v42.666h-51.2V42.667H128v93.866l42.667 25.6v187.734L102.4 418.133v51.2z" fill="#ccc"/><path d="M170.667 469.333h247.467c9.43 0 17.067 7.637 17.067 17.067h0c0 9.43-7.637 17.067-17.067 17.067H93.867c-9.43 0-17.067-7.637-17.067-17.067h0c0-9.43 7.637-17.067 17.067-17.067h76.8zm0-290.133h170.667c9.43 0 17.067 7.637 17.067 17.067h0c0 9.43-7.637 17.067-17.067 17.067H170.667c-9.43 0-17.067-7.637-17.067-17.067h0c0-9.43 7.637-17.067 17.067-17.067z" fill="#0071bc"/><path d="M256 264.533h0c14.14 0 25.6 11.46 25.6 25.6v59.733h-51.2v-59.733c0-14.14 11.46-25.6 25.6-25.6z" fill="#29abe2"/><path d="M93.867 512h324.267c14.14 0 25.6-11.46 25.6-25.6s-11.46-25.6-25.6-25.6v-42.667c0-2.26-.896-4.437-2.5-6.033l-65.766-65.766V220.297c13.27-4.625 20.284-19.132 15.66-32.4-2.55-7.34-8.32-13.1-15.66-15.66v-5.973l39.467-31.573a8.54 8.54 0 0 0 3.2-6.7V42.667a8.54 8.54 0 0 0-8.533-8.533h-51.2a8.54 8.54 0 0 0-8.533 8.533V76.8h-34.133V42.667a8.54 8.54 0 0 0-8.533-8.533h-51.2a8.54 8.54 0 0 0-8.533 8.533V76.8h-34.133V42.667a8.54 8.54 0 0 0-8.533-8.533H128a8.54 8.54 0 0 0-8.533 8.533v93.867a8.53 8.53 0 0 0 4.139 7.313l38.528 23.117v5.274c-13.27 4.625-20.284 19.132-15.66 32.4 2.55 7.34 8.32 13.1 15.66 15.66v126.037L96.367 412.1c-1.604 1.596-2.5 3.772-2.5 6.033V460.8c-14.14 0-25.6 11.46-25.6 25.6s11.46 25.6 25.6 25.6zm42.666-380.297V51.2h34.133v34.133a8.54 8.54 0 0 0 8.533 8.533h51.2a8.54 8.54 0 0 0 8.533-8.533V51.2h34.133v34.133a8.54 8.54 0 0 0 8.533 8.533h51.2a8.54 8.54 0 0 0 8.533-8.533V51.2h34.133v72.704L336 155.477c-2.022 1.62-3.2 4.07-3.2 6.656v8.533H179.2v-8.533a8.53 8.53 0 0 0-4.139-7.313l-38.528-23.117zm34.134 56.03h170.667a8.54 8.54 0 0 1 8.533 8.533 8.54 8.54 0 0 1-8.533 8.533H170.667a8.54 8.54 0 0 1-8.533-8.533 8.54 8.54 0 0 1 8.533-8.533zm-59.734 238.934h230.4V409.6H123l53.7-53.7c1.604-1.596 2.5-3.772 2.5-6.033v-128h153.6v119.467h-42.667v-51.2C290.133 271.283 274.85 256 256 256s-34.133 15.283-34.133 34.133v51.2H204.8V358.4h133l63.266 63.266V460.8H110.933v-34.133zm162.134-85.334h-34.133v-51.2c0-9.43 7.637-17.067 17.067-17.067s17.067 7.637 17.067 17.067v51.2zm-179.2 136.534h324.267a8.54 8.54 0 0 1 8.533 8.533 8.54 8.54 0 0 1-8.533 8.533H93.867a8.54 8.54 0 0 1-8.533-8.533 8.54 8.54 0 0 1 8.533-8.533zM358.4 409.6h17.067v17.067H358.4zm51.2-375.467v59.733h17.067V34.133C426.667 15.283 411.383 0 392.533 0h-42.667v17.067h42.667c9.43 0 17.067 7.637 17.067 17.066zm0 76.8h17.067V128H409.6zM128 264.533h17.067v76.8H128zm0-34.133h17.067v17.067H128zm68.267-110.933h17.067v17.067h-17.067zm51.2 0h17.067v17.067h-17.067zm51.2 0h17.067v17.067h-17.067z"/></svg>