<svg xmlns="http://www.w3.org/2000/svg" height="512" viewBox="0 0 511.928 511.928" width="512" xmlns:v="https://vecta.io/nano"><path d="M321.763 245.916a191.76 191.76 0 0 1-9.084-21.674l-6.838-19.602h-99.754l-6.838 19.603c-2.582 7.403-5.616 14.64-9.084 21.672l-11.185 22.68 1.655 22.468c2.16 29.324 18.1 51.956 44.447 61.647 6.45 2.373 12.292 6.068 17.696 10.313 3.632 2.852 8.2 4.553 13.186 4.553a21.27 21.27 0 0 0 13.185-4.553c5.405-4.245 11.247-7.94 17.697-10.313 26.337-9.69 42.288-32.324 44.447-61.648l1.655-22.468z" fill="#ffcbbe"/><path d="M321.763 245.916a191.76 191.76 0 0 1-9.084-21.674l-6.838-19.602H272.82a192.01 192.01 0 0 0 8.944 21.275l7.36 14.924a31.76 31.76 0 0 1 3.189 16.38l-1.02 13.843c-2.16 29.324-18.1 51.957-44.447 61.648-6.45 2.373-12.292 6.068-17.697 10.313a21.27 21.27 0 0 1-13.185 4.553 21.72 21.72 0 0 1-2.051-.097c3.48 2.022 7.207 3.774 11.17 5.232 6.45 2.373 12.292 6.068 17.696 10.313 3.63 2.852 8.2 4.553 13.186 4.553a21.27 21.27 0 0 0 13.185-4.553c5.405-4.245 11.247-7.94 17.697-10.313 26.337-9.69 42.288-32.324 44.447-61.648l1.655-22.468z" fill="#eaac9d"/><path d="M346.394 37.663c7.7-1.19 13.297-8.042 12.823-15.922-.486-8.077-7.466-14.24-15.558-14.24h-78.73c-24.225 0-45.842 15.207-54.027 38.007l-12.306 54.962a304.98 304.98 0 0 1-40.576 97.517l-4.25 6.654h204.387L354.52 199c-19.283-29.963-33.167-63.073-41.02-97.828l-12.754-56.438z" fill="#dd636e"/><path d="M313.5 101.162l-12.754-56.438 45.648-7.062c7.7-1.19 13.297-8.042 12.823-15.922-.486-8.076-7.466-14.24-15.558-14.24h-25.2c-1.763 5.25-6.33 9.276-12.064 10.163l-18.033 2.8c-14.934 2.3-24.786 16.788-21.455 31.528l6.595 29.182c7.854 34.755 21.738 67.865 41.02 97.828a3.67 3.67 0 0 1-3.083 5.65H166.07c-2.567 4.512-5.25 8.963-8.05 13.346l-4.25 6.654h204.387l-3.636-5.65a304.98 304.98 0 0 1-41.022-97.829z" fill="#da4a54"/><path d="M349.633 278.183c10.168-5.426 17.088-16.14 17.088-28.47v-8.286a12.67 12.67 0 0 0-13.889-12.609l-17.078 1.654-1.135 15.416zm-187.34.001l15.014-32.295-1.135-15.416-17.077-1.654c-7.444-.72-13.9 5.13-13.9 12.6v8.286c0 12.33 6.92 23.044 17.088 28.47z" fill="#ffcbbe"/><path d="M321.763 245.916l11.184 22.68 3.857-52.37c.3-3.916.294-7.784.036-11.584h-31l6.84 19.603c2.582 7.402 5.615 14.64 9.083 21.672zm-122.515-21.673l6.838-19.603h-31c-.258 3.8-.253 7.668.035 11.584l3.857 52.37 11.184-22.68a191.55 191.55 0 0 0 9.085-21.672z" fill="#f1f1f4"/><path d="M206.087 204.64h37.094v17.784a7.22 7.22 0 0 1-7.216 7.216h-38.7zm99.753 0h-37.094v17.784a7.22 7.22 0 0 0 7.216 7.216h38.7z" fill="#fff"/><path d="M281.763 225.916l1.837 3.725h31.054l-1.975-5.398-6.838-19.602H272.82a191.9 191.9 0 0 0 8.944 21.275z" fill="#f9f6f9"/><path d="M352.703 284.786L334.62 245.89l-3.327 45.174c-2.16 29.327-18.114 51.962-44.456 61.65-6.446 2.373-12.286 6.067-17.688 10.3a21.27 21.27 0 0 1-13.185 4.553c-4.976 0-9.554-1.7-13.186-4.553-5.402-4.242-11.24-7.935-17.686-10.31-26.343-9.69-42.297-32.324-44.457-61.65l-3.327-45.175-18.083 38.898c-14.66 31.533-9.61 68.717 12.93 95.197l82.11 96.463a2.23 2.23 0 0 0 3.398 0l82.11-96.464c22.54-26.48 27.59-63.664 12.93-95.197z" fill="#f1f1f4"/><path d="M352.703 284.786L334.62 245.89l-3.327 45.174c-1.188 16.13-6.55 30.236-15.517 41.277a88.88 88.88 0 0 1-16.004 27.643l-72.32 84.963 26.813 31.5a2.23 2.23 0 0 0 3.398 0l82.11-96.464c22.54-26.48 27.59-63.664 12.93-95.197z" fill="#dfdde2"/><path d="M423.007 450.38c-4.89-41-33.537-74.72-72.225-86.675a88.93 88.93 0 0 1-11.01 16.278l-82.11 96.464a2.23 2.23 0 0 1-3.398 0l-82.11-96.464c-4.317-5.072-7.992-10.537-11-16.28-38.7 11.954-67.333 45.683-72.224 86.675l-6.45 54.048h346.984z" fill="#8993da"/><path d="M423.007 450.38c-4.89-41-33.537-74.72-72.225-86.675l-1.154 2.125c18.112 16.384 30.337 39.063 33.38 64.55l1.66 13.912c2.548 21.353-14.128 40.137-35.632 40.137H84.858l-2.386 20h346.984z" fill="#707dd3"/><path d="M255.964 290.067c11.5 0 20.855-9.355 20.855-20.855a7.5 7.5 0 1 0-15 0 5.86 5.86 0 0 1-5.855 5.855 5.86 5.86 0 0 1-5.854-5.855 7.5 7.5 0 1 0-15 0c-.001 11.5 9.355 20.855 20.854 20.855zM303.866 178.9a7.5 7.5 0 1 0 0-15H208.06a7.5 7.5 0 1 0 0 15zM89.05 449.303a7.51 7.51 0 0 0-8.336 6.56l-5.7 47.678c-.532 4.46 2.954 8.4 7.447 8.4h346.984a7.5 7.5 0 0 0 7.447-8.39l-6.45-54.048c-4.854-40.682-31.73-75.212-69.394-90.115 10.113-24.4 10.2-52.444-1.904-78.5a39.69 39.69 0 0 0 15.065-31.164v-8.286c0-11.896-10.268-21.22-22.112-20.074l-8.22.796c.34-4.608.55-6.937.617-10h13.652c5.927 0 9.515-6.574 6.307-11.558l-3.636-5.65a296.62 296.62 0 0 1-40.013-95.422l-10.982-48.6 37.707-5.834a22.58 22.58 0 0 0 19.163-23.783C365.986 9.352 355.863 0 343.66 0h-78.73c-27.3 0-51.858 17.27-61.085 42.973-.232.644.656-3.196-12.566 55.858-.905 4.042 1.638 8.052 5.68 8.958a7.5 7.5 0 0 0 8.957-5.68l12.2-54.5C225.325 28.088 244.08 15 264.928 15h78.73c4.212 0 7.833 3.226 8.07 7.2.24 3.986-2.547 7.45-6.483 8.06L305.7 36.368l-.686-1.9c-1.398-3.9-5.697-5.922-9.593-4.525a7.5 7.5 0 0 0-4.524 9.593l2.654 7.393 12.63 55.895a311.5 311.5 0 0 0 38.32 94.325H167.395a312.98 312.98 0 0 0 28.29-59.41 7.5 7.5 0 1 0-14.146-4.987 297.87 297.87 0 0 1-29.84 61.207l-4.25 6.654c-3.183 4.985.406 11.537 6.32 11.537h13.652c.067 3.05.238 4.87.617 10l-8.22-.796c-11.812-1.157-22.113 8.157-22.113 20.074v8.287a39.69 39.69 0 0 0 15.065 31.164c-12.127 26.092-12.006 54.133-1.905 78.496-27.182 10.746-49.113 31.818-60.912 58.85-2.17 4.97 1.505 10.502 6.87 10.502 2.892 0 5.647-1.682 6.878-4.502 10.397-23.82 29.888-42.3 54-51.416a95.9 95.9 0 0 0 8.731 12.037l82.1 96.465c3.888 4.565 10.934 4.56 14.82-.001l43.672-51.307a7.5 7.5 0 0 0-11.422-9.722l-39.66 46.593-78.097-91.75c-20.574-24.172-25.223-58.4-11.842-87.174l5.922-12.738 1.2 16.404c2.292 31.136 18.752 55.164 45.38 66.562-5.7 8.145-8.785 17.826-8.785 27.98a7.5 7.5 0 1 0 15 0c0-7.886 2.677-15.36 7.6-21.387 6.22 4.008 8.63 7.332 16.115 9.332v23.8a7.5 7.5 0 1 0 15 0v-23.8c7.483-2 10.148-5.486 16.114-9.332 4.923 6.027 7.6 13.5 7.6 21.387a7.5 7.5 0 1 0 15 0c0-10.153-3.075-19.834-8.785-27.98 26.628-11.4 43.086-35.427 45.38-66.562l1.208-16.403 5.922 12.737c13.38 28.785 8.733 63.002-11.842 87.174l-15.243 17.908a7.5 7.5 0 0 0 11.422 9.723c16.413-19.283 19.067-21.94 23.973-29.943 33.27 12.596 57.1 42.794 61.347 78.458l5.448 45.66h-54.822v-64.312a7.5 7.5 0 1 0-15 0v64.312H160.742v-64.312a7.5 7.5 0 1 0-15 0v64.312H90.92l4.688-39.3a7.5 7.5 0 0 0-6.558-8.337zm264.507-213.02a5.17 5.17 0 0 1 5.665 5.145v8.286a24.71 24.71 0 0 1-6.685 16.924l-10.294-22.143.528-7.167zM329.5 212.14c-.068 2.57 0 1.144-2.008 28.405-5.12-10.715-7.587-18.358-11.093-28.405zm-53.254 0h24.267l3.488 10h-27.755zm-64.834 0h24.267v10h-27.756zm-15.886 0l-3.36 9.632a185.28 185.28 0 0 1-7.732 18.773l-2.008-28.405zm-42.82 37.573v-8.287a5.17 5.17 0 0 1 5.666-5.144l10.785 1.045.528 7.166-10.294 22.144a24.71 24.71 0 0 1-6.685-16.924zm131.54 95.962c-5.77 2.124-12.236 5.565-19.73 11.45-5.004 3.93-12.075 3.952-17.107 0-5.998-4.7-12.515-8.792-19.73-11.45-23.2-8.53-37.613-28.635-39.566-55.164l-1.505-20.43c9.576-19.418 12.35-24.7 15.75-32.94h33.605c8.114 0 14.716-6.602 14.716-14.716V212.14h10.566v10.284c0 8.114 6.602 14.716 14.716 14.716h33.604c3.322 8.044 5.193 11.534 15.75 32.942l-1.505 20.43c-1.954 26.528-16.375 46.634-39.567 55.164zm-28.282-20.213c-8.214 0-14.452-1.223-18.97-2.68-5.057-1.63-6.86-7.85-3.425-11.904 1.952-2.305 5.1-3.266 7.977-2.346 3.016.965 7.7 1.93 14.417 1.93s11.4-.965 14.417-1.93c2.876-.92 6.025.04 7.977 2.346 3.434 4.055 1.632 10.273-3.425 11.904-4.516 1.457-10.754 2.68-18.968 2.68z"/></svg>