<svg xmlns="http://www.w3.org/2000/svg" height="512" width="512" xmlns:v="https://vecta.io/nano"><path d="M383.414 172.18H159.892c-2.007 0-3.635-1.627-3.635-3.635v-45.922c0-3.627 2.368-6.83 5.836-7.892l98.394-30.15c7.276-2.23 15.054-2.23 22.33 0l98.394 30.15c3.468 1.063 5.836 4.265 5.836 7.892v45.922c.002 2.008-1.626 3.635-3.633 3.635z" fill="#f1f1f4"/><path d="M381.212 114.732l-34.164-10.47v16.98c0 17.087-13.852 30.938-30.938 30.938H156.257v16.365c0 2.007 1.627 3.635 3.635 3.635h223.522c2.007 0 3.635-1.627 3.635-3.635v-45.922c0-3.627-2.368-6.83-5.837-7.892z" fill="#dfdde2"/><path d="M188.725 241.168c10.1 38.693 58.34 64.704 82.928 64.704s72.828-26.012 82.928-64.706V172.18H188.725z" fill="#ffece4"/><path d="M314.58 172.18v48.985c-10.1 38.694-58.34 64.706-82.928 64.706-3.577 0-7.654-.55-12.04-1.6 17.613 13.655 38.444 21.6 52.04 21.6 24.588 0 72.83-26.012 82.928-64.706V172.18z" fill="#ffddce"/><path d="M396.1 145.35h-9.06v23.196c0 2.007-1.627 3.635-3.635 3.635h-2.9v35.813h15.594c8.803 0 15.94-7.136 15.94-15.94V161.3a15.94 15.94 0 0 0-15.939-15.939zm-239.853 23.197V145.35h-9.06c-8.803 0-15.94 7.136-15.94 15.94v30.764c0 8.803 7.136 15.94 15.94 15.94h15.594V172.18h-2.9c-2.007-.001-3.635-1.628-3.635-3.635z" fill="#afaab4"/><path d="M305.59 40.887l-33.938 15-33.938-15L257.7 8.725a2.59 2.59 0 0 1 2.203-1.225h23.5a2.59 2.59 0 0 1 2.203 1.225z" fill="#f1f1f4"/><path d="M375.97 113.126L282.818 84.58c-7.276-2.23-15.054-2.23-22.33 0l-93.152 28.545c10.194-34.105 36.657-61.2 70.382-72.243l33.935 15.005 33.938-15c33.725 11.054 60.185 38.132 70.38 72.238zM162.8 249.623a22.72 22.72 0 0 0 14.546 21.199l11.388 4.4V172.18H162.8zm191.792-77.443V275.2l11.387-4.4a22.72 22.72 0 0 0 14.546-21.199v-77.44h-25.933z" fill="#c6c1c8"/><path d="M468.912 426.645l-74.952 24.777V324.767a11.06 11.06 0 0 1 11.059-11.059h12.584c37.063 0 67.11 30.046 67.11 67.11v23.966a23.03 23.03 0 0 1-15.8 21.862z" fill="#f1f1f4"/><path d="M271.653 354.363c-25.622 0-46.393-20.77-46.393-46.393v30c0 25.622 20.77 46.393 46.393 46.393s46.393-20.77 46.393-46.393v-30c0 25.622-20.77 46.393-46.393 46.393z" fill="#665e66"/><path d="M225.26 288.376v19.593c0 25.622 20.77 46.393 46.393 46.393s46.393-20.77 46.393-46.393v-19.593c-16.264 11.125-34.225 17.496-46.393 17.496s-30.13-6.37-46.393-17.496z" fill="#ffece4"/><path d="M393.96 451.422V327.708 484.5c0 11.046-8.954 20-20 20h85.75v-74.813z" fill="#c6c1c8"/><path d="M111.422 472.187h-71.21V217.23l35.605-40.556 35.604 40.556z" fill="#f1f1f4"/><path d="M75.818 176.673l-6.22 7.086 1.273 1.45a42.46 42.46 0 0 1 10.552 28.015V419.69c0 17.947-14.55 32.496-32.496 32.496h-8.713v20h71.21V217.23z" fill="#dfdde2"/><path d="M27.29 472.187h97.058V504.5H27.29z" fill="#665e66"/><path d="M138.288 313.708h-12.584a67.4 67.4 0 0 0-14.282 1.523v123.654l37.924 12.537V324.767a11.06 11.06 0 0 0-11.058-11.059z" fill="#f1f1f4"/><path d="M169.347 504.5c-11.046 0-20-8.954-20-20v-33.078l-37.924-12.537v33.302h12.924V504.5z" fill="#c6c1c8"/><path d="M362.053 347.65c0 49.926-40.473 90.4-90.4 90.4s-90.4-40.473-90.4-90.4v-24.763c0-12.522 10.15-22.673 22.674-22.673h21.334v37.757c0 25.622 20.77 46.393 46.393 46.393s46.393-20.77 46.393-46.393v-37.757h21.333c12.522 0 22.674 10.15 22.674 22.673z" fill="#f1f1f4"/><path d="M339.38 300.213h-17.483c.103.877.156 1.77.156 2.674v24.763c0 49.927-40.473 90.4-90.4 90.4-6.57 0-12.975-.7-19.146-2.032 15.853 13.727 36.53 22.032 59.146 22.032 49.926 0 90.4-40.473 90.4-90.4v-24.763c0-12.523-10.15-22.674-22.673-22.674z" fill="#dfdde2"/><path d="M362.053 347.65c0 49.926-40.473 90.4-90.4 90.4s-90.4-40.473-90.4-90.4v-19.942h-31.906V484.5c0 11.046 8.954 20 20 20H373.96c11.046 0 20-8.954 20-20V327.708h-31.906z" fill="#c6c1c8"/><path d="M362.053 327.708v19.942c0 13.354-2.896 26.032-8.094 37.44v51.36c0 26.538-21.514 48.052-48.052 48.052h-156.56c0 11.046 8.954 20 20 20H373.96c11.046 0 20-8.954 20-20V327.708z" fill="#afaab4"/><path d="M181.253 154.68a7.5 7.5 0 0 0 7.5-7.5V135a7.5 7.5 0 1 0-15 0v12.17a7.5 7.5 0 0 0 7.5 7.5zm30.14 0a7.5 7.5 0 0 0 7.5-7.5v-21.4a7.5 7.5 0 1 0-15 0v21.4a7.5 7.5 0 0 0 7.5 7.5zm30.13 0a7.5 7.5 0 0 0 7.5-7.5v-30.64a7.5 7.5 0 1 0-15 0v30.64a7.5 7.5 0 0 0 7.5 7.5zm30.13 0a7.5 7.5 0 0 0 7.5-7.5V107.9a7.5 7.5 0 1 0-15 0v39.27a7.5 7.5 0 0 0 7.5 7.5zm30.13 0a7.5 7.5 0 0 0 7.5-7.5v-30.64a7.5 7.5 0 1 0-15 0v30.64a7.5 7.5 0 0 0 7.5 7.5zm30.13 0a7.5 7.5 0 0 0 7.5-7.5v-21.4a7.5 7.5 0 1 0-15 0v21.4a7.5 7.5 0 0 0 7.5 7.5zm30.14 0a7.5 7.5 0 0 0 7.5-7.5V135a7.5 7.5 0 1 0-15 0v12.17a7.5 7.5 0 0 0 7.5 7.5zm-50.195 100.54a7.5 7.5 0 1 0-5.219-14.063 100.6 100.6 0 0 1-69.973 0 7.5 7.5 0 0 0-9.641 4.422c-1.44 3.883.54 8.2 4.422 9.64a115.6 115.6 0 0 0 80.41 0zM27.3 512h432.4a7.5 7.5 0 0 0 7.5-7.5v-69.394l4.056-1.34c12.527-4.142 20.944-15.8 20.944-28.983v-23.966c0-41.14-33.47-74.6-74.6-74.6h-12.583c-8.66 0-15.955 5.964-17.992 14h-17.6c-1.36-15.388-14.32-27.495-30.056-27.495h-13.834v-.456c8.443-6.176 15.7-13.1 21.536-20.503v3.458c0 5.27 5.303 8.887 10.198 6.998l11.387-4.4c11.573-4.462 19.35-15.794 19.35-28.197v-34.128h8.094c12.925 0 23.44-10.515 23.44-23.44V161.3c0-12.925-10.515-23.44-23.44-23.44h-1.56v-15.227a15.67 15.67 0 0 0-11.139-15.063l-1.486-.455a115.85 115.85 0 0 0-12.083-25.223 7.5 7.5 0 1 0-12.648 8.064 101.26 101.26 0 0 1 6.332 11.52l-78.5-24.066a45.42 45.42 0 0 0-26.725 0l-78.52 24.062a101.4 101.4 0 0 1 57.595-52.538l31.255 13.814a7.5 7.5 0 0 0 6.064 0l31.255-13.814c10.7 3.838 20.598 9.425 29.5 16.63 3.235 2.622 7.956 2.095 10.55-1.104a7.5 7.5 0 0 0-1.104-10.549 115.75 115.75 0 0 0-34.33-19.26L291.977 4.77A10.03 10.03 0 0 0 283.402 0h-23.5c-3.512 0-6.716 1.78-8.573 4.766L232.76 34.65a116.39 116.39 0 0 0-71.38 72.457l-1.485.455a15.67 15.67 0 0 0-11.139 15.063v15.227h-1.56c-12.925 0-23.44 10.515-23.44 23.44v30.764c0 12.925 10.515 23.44 23.44 23.44h8.094v34.128c0 12.403 7.775 23.734 19.348 28.197l11.388 4.392c4.904 1.9 10.198-1.73 10.198-6.998v-3.457c5.846 7.403 13.092 14.326 21.535 20.5v.456h-13.833c-15.735 0-28.696 12.107-30.055 27.495h-17.6c-2.037-8.036-9.33-14-17.992-14-10.232 0-14.588-.126-19.366.306V217.23a7.5 7.5 0 0 0-1.864-4.948l-35.604-40.556c-2.98-3.395-8.282-3.406-11.272 0L34.577 212.28a7.51 7.51 0 0 0-1.864 4.948v13.584a7.5 7.5 0 1 0 15 0v-10.76l28.104-32.013 28.104 32.013v244.633H83.318v-225.66a7.5 7.5 0 1 0-15 0v225.66H47.714V265.813a7.5 7.5 0 1 0-15 0v198.874H27.3a7.5 7.5 0 0 0-7.5 7.5V504.5a7.5 7.5 0 0 0 7.499 7.5zM262.63 15h18.044l14 22.516-23.013 10.17-23.014-10.17zM452.2 497h-53.76a27.33 27.33 0 0 0 3.009-12.5v-27.658l50.75-16.777zm-50.75-172.233c0-1.962 1.597-3.56 3.56-3.56h12.583c32.87 0 59.6 26.74 59.6 59.6v23.966a15.5 15.5 0 0 1-10.652 14.741c-.1 0 2.845-.94-65.1 21.52V324.767zm-90.914-16.797c0 21.445-17.447 38.893-38.893 38.893s-38.893-17.447-38.893-38.893v-6.267c13.7 7.35 27.805 11.67 38.893 11.67s25.202-4.32 38.893-11.67zm-.86 38.146c-3.754 17.548-19.382 30.747-38.034 30.747s-34.28-13.2-38.034-30.747c21.05 20.987 54.998 21.008 76.068 0zm63.328-96.493c0 6.247-3.916 11.954-9.745 14.2l-1.188.458v-84.6h10.934l-.001 69.942zm23.094-96.772a8.45 8.45 0 0 1 8.439 8.439v30.765a8.45 8.45 0 0 1-8.439 8.439h-8.094v-21.8c3.4-1.554 5.93-4.787 6.44-8.706.133-1.064.092-.07.092-17.128zm-133.424-61.1c5.865-1.798 12.068-1.798 17.936 0l98.395 30.152a.75.75 0 0 1 .533.721v42.057h-215.8v-42.057a.75.75 0 0 1 .533-.721l98.394-30.152zM147.197 200.495a8.45 8.45 0 0 1-8.439-8.44V161.3a8.45 8.45 0 0 1 8.439-8.439h1.56c0 16.94-.073 16.45.22 17.903.705 3.493 3.067 6.45 6.314 7.93v21.8zm32.838 63.33a15.32 15.32 0 0 1-9.744-14.202v-69.94h10.934v84.602zm16.2-23.653v-60.5h80.523v29.913a5.11 5.11 0 0 1-5.096 5.096 7.5 7.5 0 1 0 0 15c11.08 0 20.096-9.015 20.096-20.096V179.68h55.333v60.488c-4.824 17.2-18.33 31.805-33.203 41.97-11.42 7.668-28.766 16.233-42.226 16.233-13.428 0-30.857-8.573-42.214-16.224-14.823-10.137-28.372-24.7-33.213-41.977zm-7.472 82.715c0-8.367 6.807-15.173 15.173-15.173h13.833v30.257c0 29.716 24.176 53.893 53.893 53.893s53.893-24.176 53.893-53.893v-30.257h13.834c8.367 0 15.174 6.807 15.174 15.173 0 27.324.113 27.992-.443 33.4a7.5 7.5 0 0 0 6.691 8.229c4.13.425 7.805-2.572 8.23-6.7.66-6.394.522-9.965.522-22.605h16.906V484.5c0 6.893-5.607 12.5-12.5 12.5h-94.82v-33.95a7.5 7.5 0 1 0-15 0V497h-94.806c-6.893 0-12.5-5.607-12.5-12.5V335.208h16.906v12.442c0 53.982 43.917 97.9 97.9 97.9 35.737 0 68.637-19.476 85.858-50.826a7.5 7.5 0 1 0-13.147-7.222c-14.587 26.553-42.448 43.048-72.712 43.048-45.7 0-82.9-37.2-82.9-82.9l.003-24.764zm-50.465-1.678c1.962 0 3.56 1.596 3.56 3.56v116.277l-22.925-7.578V321.6c4.76-.538 7.586-.382 19.366-.382zm-19.366 128.056l22.925 7.578V484.5a27.33 27.33 0 0 0 3.009 12.5h-13v-24.813a7.5 7.5 0 0 0-7.5-7.5h-5.425zm-2.075 30.423V497H34.8v-17.313z"/></svg>