<svg xmlns="http://www.w3.org/2000/svg" height="512" width="512" xmlns:v="https://vecta.io/nano"><path d="M319.432 47.703h14.424c18.244 0 33.033-14.79 33.033-33.033V7.5h-75.33a19.34 19.34 0 0 0-18.235 12.901l-48.04 136.093h132.55z" fill="#8993da"/><path d="m225.283 156.495-11.823 33.494h156.198l-11.824-33.494z" fill="#f9f48e"/><path d="M374.375 233.168h-12.077l-1.153 15.65 10.528 28.005c10.588-4.2 18.078-14.518 18.078-26.596v-1.682a15.38 15.38 0 0 0-15.376-15.376zm-162.93 43.654l10.528-28.005-1.153-15.65h-12.077a15.38 15.38 0 0 0-15.376 15.376v1.682c0 12.08 7.5 22.407 18.078 26.596z" fill="#eaac9d"/><path d="M355.5 296.056a49.84 49.84 0 0 0-42.647-24.045h-42.586c-17.444 0-33.62 9.12-42.647 24.046l-3.043 5.03h36.44c10.317 0 20.588-1.37 30.544-4.077 9.956 2.706 20.227 4.077 30.544 4.077h36.44z" fill="#f1f1f4"/><path d="M322.103 301.088a116.41 116.41 0 0 1-30.544-4.077c-9.956 2.706-20.227 4.077-30.544 4.077H239.6l9.38 27.8c2.328 6.898 10.133 10.245 16.734 7.174l15.856-7.375c6.328-2.943 13.632-2.943 19.96 0l15.856 7.375c6.602 3.07 14.407-.276 16.734-7.174l9.38-27.8zm-101.283-67.92l1.152 15.65 12.827 38.016c9.253-9.37 21.98-14.822 35.467-14.822h42.586a49.84 49.84 0 0 1 35.467 14.822l12.827-38.016 1.153-15.65z" fill="#ffcbbe"/><path d="M381.11 301.92l-19.963-53.103-12.827 38.016c2.715 2.75 5.132 5.837 7.18 9.224l3.043 5.03H343.51l-9.38 27.8c-2.328 6.9-10.133 10.245-16.734 7.174l-15.856-7.375c-6.328-2.943-13.632-2.943-19.96 0l-15.856 7.375c-6.602 3.07-14.407-.276-16.734-7.174l-9.38-27.8h-15.033l3.043-5.03c2.048-3.387 4.465-6.474 7.18-9.224l-12.827-38.016-19.963 53.103a40.19 40.19 0 0 0 3.842 35.921l85.708 132.935L377.27 337.84c6.89-10.69 8.316-24.014 3.84-35.92z" fill="#dfdde2"/><path d="M381.11 301.92l-19.963-53.103-10.633 31.516.597 1.587a40.18 40.18 0 0 1 2.462 11.19 49.75 49.75 0 0 1 1.928 2.947l3.043 5.03h-5.18c-.743 5.892-2.79 11.625-6.096 16.752L270.11 437.5l21.448 33.265 85.708-132.935a40.19 40.19 0 0 0 3.842-35.921z" fill="#c6c1c8"/><path d="M131.66 290.736H97.218a11.87 11.87 0 0 0-11.868 11.868 11.87 11.87 0 0 0 11.868 11.868h34.442a11.87 11.87 0 0 0 11.868-11.868 11.87 11.87 0 0 0-11.868-11.868z" fill="#f9f48e"/><path d="M100.764 314.473h27.35V504.5h-27.35z" fill="#e2bcaf"/><path d="M114.44 192.97c-27.507 0-49.806 22.3-49.806 49.806 0 22.836 15.37 42.082 36.327 47.96h26.958c20.958-5.878 36.327-25.124 36.327-47.96 0-27.507-22.3-49.806-49.806-49.806z" fill="#d3effb"/><path d="M125.2 194.134c5.705 8.102 9.056 17.98 9.056 28.642a51.77 51.77 0 0 1-.035 1.894c-.968 25.87-22.833 46.066-48.722 46.066h-2.025a49.33 49.33 0 0 1-11.073-1.256c6.504 10.22 16.63 17.907 28.57 21.256h26.958c20.958-5.878 36.327-25.124 36.327-47.96-.001-23.816-16.717-43.727-39.056-48.642z" fill="#b1e4f9"/><path d="M163.32 233.168H433.34l-63.683-43.18H213.46l-52.31 35.468a49.61 49.61 0 0 1 2.168 7.711z" fill="#8993da"/><path d="M342.785 178.9l13.306 9.022c.93.63 1.744 1.328 2.45 2.078h11.116l-11.823-33.495h-32.913c3.543 9.1 9.767 16.905 17.863 22.395z" fill="#f6e738"/><path d="M369.658 190h-11.116c7.872 8.348 2.3 23.18-10.206 23.18H179.274l-18.124 12.288c.92 2.483 1.65 5.06 2.168 7.712H433.34zM324.304 7.5c-5.008 11.87-16.755 20.203-30.45 20.203-7.04 0-11.966 6.962-9.623 13.6l40.688 115.2h32.913l-38.402-108.8h14.424c18.244 0 33.033-14.8 33.033-33.033V7.5z" fill="#707dd3"/><path d="M448.604 411.033c-5.035-27.625-29.1-47.7-57.18-47.7H360.83l-69.273 107.443-69.273-107.443h-30.592c-28.08 0-52.146 20.075-57.18 47.7l-6.4 35.108v58.36H465.64z" fill="#8993da"/><path d="M448.604 411.033c-4.794-26.306-26.845-45.766-53.186-47.564 6.6 7.635 11.27 17.053 13.186 27.564l6.166 33.83c5.66 31.047-18.2 59.636-49.75 59.636H128.114v20H465.64z" fill="#707dd3"/><path d="M82.328 290.232c-9.353 11.238-3.264 28.377 10.936 31.335v9.08a7.5 7.5 0 1 0 15 0v-8.673h12.35V497h-12.35V365.646a7.5 7.5 0 1 0-15 0V504.5a7.5 7.5 0 0 0 7.5 7.5H465.64c4.666 0 8.22-4.23 7.38-8.845l-17.036-93.467c-5.688-31.207-32.84-53.856-64.56-53.856H374.6l8.98-13.927c8.142-12.627 9.846-28.562 4.56-42.625l-7.104-18.898c10.043-6.577 16.227-17.768 16.227-30.156 0-3.063.005-5.746-1.397-9.558h37.486a7.5 7.5 0 0 0 4.209-13.707l-61.64-41.795-45.89-129.963h3.823c22.35 0 40.533-18.183 40.533-40.533V7.5a7.5 7.5 0 0 0-7.5-7.5h-75.33a26.88 26.88 0 0 0-25.306 17.904l-59.042 167.262-43.03 29.175c-9.892-17.236-28.483-28.87-49.74-28.87-31.6 0-57.307 25.708-57.307 57.306.002 19.32 9.802 36.988 25.197 47.456zm14.9 16.74c-2.408 0-4.368-1.96-4.368-4.368s1.96-4.368 4.368-4.368h34.44c2.408 0 4.368 1.96 4.368 4.368s-1.96 4.368-4.368 4.368H97.22zm273.744 26.803l-26.483 41.077c-2.244 3.48-1.24 8.123 2.24 10.368a7.5 7.5 0 0 0 10.368-2.24l7.833-12.15h26.503c24.47 0 45.414 17.473 49.802 41.546L456.65 497h-53.413l-7.788-49.125c-.647-4.1-4.478-6.883-8.582-6.233a7.5 7.5 0 0 0-6.232 8.582L388.05 497H195.067l7.416-46.776c.648-4.1-2.142-7.933-6.232-8.582a7.5 7.5 0 0 0-8.582 6.233L179.88 497h-44.267v-50.18l6.278-34.443c4.388-24.073 25.332-41.546 49.802-41.546h26.503l68.643 105.773c3.185 2.578 7.833 2.1 10.452-.995.46-.545-2.27 3.632 40.085-62.06 2.244-3.48 1.24-8.123-2.24-10.367a7.5 7.5 0 0 0-10.368 2.24l-14.07 21.82 16.543-63.225a7.5 7.5 0 1 0-14.511-3.797l-21.175 80.925-21.175-80.925c-1.048-4.007-5.142-6.408-9.154-5.357a7.5 7.5 0 0 0-5.357 9.154l16.543 63.224-60.26-93.466c-5.58-8.656-6.748-19.578-3.124-29.218l12.56-33.413 4.698 13.925c-3.4 4.058-4.955 6.884-8.13 12.136-3.014 4.985.575 11.38 6.418 11.38h9.647l7.658 22.696c3.77 11.176 16.417 16.5 27.004 11.577l15.855-7.375a16.13 16.13 0 0 1 13.635 0l15.856 7.375c10.628 4.944 23.243-.433 27.004-11.577l7.657-22.696h9.648c5.827 0 9.44-6.383 6.418-11.38-3.105-5.134-4.74-8.1-8.13-12.135l4.698-13.925 12.56 33.413a32.82 32.82 0 0 1-3.123 29.216zm-170.097-83.55v-1.682c0-4.343 3.533-7.876 7.876-7.876h5.1l.52 7.053-6.764 17.992c-4.23-3.906-6.74-9.454-6.74-15.487zM312.85 279.5c12.063 0 23.56 5.252 31.512 14.077h-22.26a109 109 0 0 1-28.578-3.814 7.49 7.49 0 0 0-3.934 0 108.99 108.99 0 0 1-28.577 3.814h-22.26c7.953-8.826 19.45-14.077 31.512-14.077zm-51.838 29.077a123.99 123.99 0 0 0 30.544-3.822c17.082 4.342 28.8 3.822 41.504 3.822l-6.04 17.9a4.72 4.72 0 0 1-6.465 2.772l-15.857-7.376c-8.352-3.884-17.932-3.884-26.285 0l-15.856 7.375c-2.548 1.185-5.564-.104-6.465-2.772l-6.04-17.9h10.96zm92.722-61.27l-9.07 26.88c-9.305-6.2-20.37-9.7-31.814-9.7h-4.16c.208-1.575.15-.567.15-23.843h45.383zm-59.893 14.9c0 1.253-1.014 2.273-2.265 2.283h-21.312c-11.442 0-22.5 3.5-31.814 9.7l-9.07-26.88-.5-6.65h64.95v21.56zm88.4-13.684v1.682c0 6.033-2.5 11.58-6.742 15.487l-6.764-17.992.52-7.053h5.1c4.344 0 7.877 3.533 7.877 7.876zM280.395 22.898A11.86 11.86 0 0 1 291.558 15h67.828c-.177 13.928-11.563 25.203-25.53 25.203h-9.118l-3.05-8.638a7.5 7.5 0 0 0-14.144 4.993l39.7 112.436h-10.338a7.5 7.5 0 1 0 0 15h15.633l6.53 18.494h-135l6.53-18.494h71.306a7.5 7.5 0 1 0 0-15h-66.012zm-64.632 174.6h151.593l41.56 28.18H174.204zm-28.5 43.18c-1.438 3.9-1.397 6.788-1.397 9.558 0 12.388 6.184 23.58 16.227 30.156l-7.104 18.898c-5.287 14.062-3.583 29.997 4.558 42.624l8.98 13.927h-16.832c-23.483 0-44.46 12.414-56.08 31.522v-65.787c14.2-2.957 20.3-20.097 10.936-31.335 16.14-10.974 25.883-29.632 25.156-49.564h15.557zM114.44 200.47c23.327 0 42.306 18.98 42.306 42.306 0 18.56-12.246 35.056-29.902 40.46h-24.808c-17.656-5.404-29.902-21.9-29.902-40.46 0-23.327 18.978-42.306 42.306-42.306zm0 25a17.33 17.33 0 0 1 17.306 17.306 7.5 7.5 0 1 0 15 0c0-17.813-14.492-32.306-32.306-32.306a7.5 7.5 0 1 0 0 15zm0-55a7.5 7.5 0 0 0 7.5-7.5v-16.476a7.5 7.5 0 1 0-15 0v16.476a7.5 7.5 0 0 0 7.5 7.5zm-61.735 21.178a7.5 7.5 0 0 0 10.605-10.606l-11.65-11.65a7.5 7.5 0 0 0-10.605 10.606zm123.47 0l11.65-11.65a7.5 7.5 0 0 0-10.607-10.606l-11.65 11.65a7.5 7.5 0 0 0 10.607 10.606z"/></svg>