<svg xmlns="http://www.w3.org/2000/svg" height="512" width="512" xmlns:v="https://vecta.io/nano"><path d="M80.4 331.2c-20.757 8.3-34.4 28.39-34.424 50.755L45.8 504.5h109.765V301.36L80.4 331.2z" fill="#dd636e"/><path d="M256 365.777l-53.673-48.427V504.5h107.346V317.35z" fill="#fff"/><path d="M202.327 484.5h107.347v20H202.327z" fill="#f1f1f4"/><path d="M466.035 381.956C466 359.59 452.368 339.5 431.61 331.2l-75.165-29.84V504.5H466.2z" fill="#dd636e"/><path d="M466.035 381.956C466 359.59 452.368 339.5 431.61 331.2l-22.84-9.068c10.783 10.134 17.24 24.44 17.263 39.823l.114 79.612c.034 23.7-19.17 42.933-42.87 42.933h-26.832v20H466.21z" fill="#da4a54"/><path d="M169.9 288.083l-7.7 2.83a10.13 10.13 0 0 0-6.635 9.507V504.5h46.772V317.35zm179.92 2.83l-7.7-2.83-32.438 29.267V504.5h46.772V300.42a10.13 10.13 0 0 0-6.634-9.507z" fill="#f4e2c1"/><path d="M256 365.777l-14.9-13.444V504.5h29.803V352.332z" fill="#f9f48e"/><path d="M45.8 504.5h109.765v-20H45.818z" fill="#da4a54"/><path d="M155.555 484.5h46.772v20h-46.772zm154.118 0h46.772v20h-46.772z" fill="#f4ddb1"/><path d="M241.1 484.5h29.803v20H241.1z" fill="#f6e738"/><g fill="#f9f48e"><path d="M355.34 126.95H156.66c-6.28 0-11.372-5.092-11.372-11.372v-4.79c0-6.28 5.092-11.372 11.372-11.372h198.68c6.28 0 11.372 5.092 11.372 11.372v4.79c0 6.28-5.092 11.372-11.372 11.372z"/><path d="M318.072 42.203c2.658 2.853 4.283 6.68 4.283 10.885 0 8.822-7.15 15.973-15.973 15.973S290.41 61.9 290.41 53.088c0-4.124 1.563-7.883 4.13-10.717L256 7.5l-38.538 34.87c2.566 2.834 4.13 6.593 4.13 10.717 0 8.822-7.15 15.973-15.973 15.973s-15.973-7.15-15.973-15.973c0-4.206 1.626-8.033 4.283-10.885L156.66 7.5v91.917h198.68V7.5z"/></g><path d="M318.072 42.203a15.92 15.92 0 0 1 4.283 10.885c0 5.502-2.78 10.354-7.015 13.227v.58c0 6.916-5.607 12.523-12.523 12.523H156.66v20h198.68V7.5z" fill="#f6e738"/><path d="M345.26 213.088h-2.853l4.3-58.542h15.488c10.9 0 19.72 8.83 19.72 19.72v2.157c.001 20.25-16.415 36.666-36.665 36.666zm-178.52 0h2.853l-4.3-58.542h-15.488c-10.9 0-19.72 8.83-19.72 19.72v2.157c-.001 20.25 16.415 36.666 36.665 36.666z" fill="#f1d0a5"/><path d="M342.407 213.088l5.505-74.74c.283-3.844.327-7.648.144-11.396H321.3c.2 3.11.2 6.26-.033 9.434l-4.887 66.37c-.68 9.226-9.006 15.963-18.17 14.7a307.19 307.19 0 0 0-41.903-2.872h-.632c-14.017 0-28.017.96-41.902 2.872-9.164 1.262-17.49-5.475-18.17-14.7l-4.888-66.37a67.1 67.1 0 0 1-.034-9.435h-26.745c-.183 3.748-.14 7.552.144 11.396l5.505 74.74-16.008 46.097a17.25 17.25 0 0 0 4.739 18.464L256 365.777l97.676-88.128a17.25 17.25 0 0 0 4.739-18.464z" fill="#fbf6ec"/><path d="M358.415 259.185l-16.008-46.097 5.504-74.74c.283-3.844.327-7.648.144-11.396H321.3c.2 3.11.2 6.26-.033 9.434l-4.887 66.37c-.36 4.902-2.88 9.1-6.538 11.77l5.35 15.407a32.02 32.02 0 0 1-8.798 34.277l-81.487 73.522L256 365.777l97.676-88.128a17.25 17.25 0 0 0 4.739-18.464z" fill="#f9efda"/><path d="M190.723 136.386l4.888 66.37c.68 9.226 9.007 15.963 18.17 14.7a307.19 307.19 0 0 1 41.903-2.872h.63c14.016 0 28.016.96 41.902 2.872 9.165 1.262 17.493-5.475 18.172-14.7l4.887-66.37c.234-3.175.243-6.325.033-9.434H190.7a66.95 66.95 0 0 0 .033 9.435z" fill="#f1d0a5"/><path d="M321.3 126.95h-20.812l-4.11 55.804c-.68 9.226-9.006 15.963-18.17 14.7a307.19 307.19 0 0 0-41.903-2.872h-.63c-13.538 0-27.06.895-40.478 2.68l.405 5.492c.68 9.226 9.007 15.963 18.17 14.7a307.19 307.19 0 0 1 41.903-2.872h.63c14.016 0 28.017.96 41.902 2.872 9.165 1.262 17.493-5.475 18.172-14.7l4.887-66.37c.234-3.175.243-6.325.033-9.434z" fill="#f1b986"/><path d="M286.754 250.88c3.688 0 6.902-2.722 7.42-6.478a7.5 7.5 0 0 0-6.406-8.453 234.34 234.34 0 0 0-63.534 0 7.5 7.5 0 0 0-6.406 8.453c.564 4.104 4.356 6.972 8.453 6.406 33.66-4.636 57.8.072 60.473.072zm-38.644 8.25a7.5 7.5 0 1 0 0 15h15.78a7.5 7.5 0 1 0 0-15zM473.7 504.5l-.176-122.545c-.04-25.564-15.402-48.216-39.14-57.707-.046.12.266.104-2.396-.952l-68.6-27.238a17.76 17.76 0 0 0-7.415-10.37l2.726-2.46a24.7 24.7 0 0 0 6.801-26.489l-.453-1.307a7.5 7.5 0 1 0-14.172 4.914l.454 1.3a9.73 9.73 0 0 1-2.679 10.436l-73.9 66.668 18.957-47.905a7.5 7.5 0 1 0-13.947-5.519L256 345.394l-23.77-60.07a7.5 7.5 0 1 0-13.947 5.519l18.957 47.905-73.9-66.67a9.73 9.73 0 0 1-2.678-10.435l15.953-45.94c.304-.816.463-1.68.47-2.56.02-2.088-5.54-73.978-5.705-78.697h11.715c.07 1.768-.337-4.012 5.03 68.854.994 13.523 13.227 23.43 26.674 21.58a303.83 303.83 0 0 1 82.391 0c13.395 1.857 25.674-8.022 26.673-21.58l5.03-68.854h11.715c-.13 3.685-5.733 77.806-5.703 78.85a7.48 7.48 0 0 0 .467 2.406l4.036 11.622a7.5 7.5 0 0 0 9.545 4.625c3.913-1.358 5.983-5.633 4.625-9.545l-.852-2.453c20.808-3.56 36.695-21.725 36.695-43.532v-2.157c0-15-12.2-27.22-27.22-27.22h-7.415l.83-12.6c10.278-.15 18.593-8.557 18.593-18.87v-4.8c0-7.743-4.687-14.4-11.372-17.317V7.5a7.5 7.5 0 0 0-12.611-5.489l-37.27 34.703c-3.03 2.822-3.2 7.57-.377 10.602a8.44 8.44 0 0 1 2.271 5.772c0 4.673-3.8 8.474-8.473 8.474s-8.474-3.8-8.474-8.474a8.45 8.45 0 0 1 2.19-5.684c2.778-3.07 2.542-7.815-.528-10.595l-38.54-34.87c-2.857-2.584-7.207-2.584-10.064 0L212.43 36.8c-3.07 2.778-3.308 7.524-.528 10.595a8.45 8.45 0 0 1 2.189 5.684c0 4.673-3.802 8.474-8.474 8.474s-8.473-3.8-8.473-8.474c0-2.15.807-4.2 2.27-5.772 2.82-3.03 2.655-7.777-.377-10.602L161.77 2a7.5 7.5 0 0 0-12.61 5.49v85.972c-6.685 2.906-11.372 9.575-11.372 17.317v4.8c0 10.313 8.315 18.72 18.593 18.87.093 3.148.276 5.086.83 12.6h-7.416c-15 0-27.22 12.2-27.22 27.22v2.157c0 21.807 15.887 39.972 36.694 43.532l-12.77 36.77a24.7 24.7 0 0 0 6.8 26.492l2.726 2.46a17.76 17.76 0 0 0-7.415 10.37L80 323.288c-2.664 1.057-2.35 1.07-2.396.952-23.737 9.5-39.1 32.143-39.14 57.708L38.3 504.5c-.006 4.143 3.354 7.5 7.5 7.5h420.4c4.143 0 7.506-3.365 7.5-7.5zM302.173 497h-23.77V355.667l23.77-21.447zm-51.197-125.654c2.7 2.454 6.868 2.606 9.764.244.212-.173-.103.106 2.663-2.4V497H248.6V369.2zm48.265-161.32c-7.726-1.064-15.53-1.84-23.35-2.33.682-2.063 1.05-4.268 1.05-6.557v-26.487c0-3.277 2.666-5.944 5.943-5.944l28.505-.198-2.48 33.693c-.36 4.886-4.76 8.495-9.67 7.822zm13.202-55.8a7.49 7.49 0 0 0-2.77-.528h-26.786c-11.548 0-20.943 9.396-20.943 20.944v26.487a5.95 5.95 0 0 1-5.943 5.943c-14.658 0-28.996.98-43.24 2.942-4.882.673-9.307-2.907-9.67-7.822L200.6 168.5c1.196.28-2.062.198 41.948.198a7.5 7.5 0 1 0 0-15h-40.23a7.47 7.47 0 0 0-2.769.528l-1.44-19.785h115.766c-.053 1.038.083-.908-1.44 19.786zm49.763 7.8c6.738 0 12.22 5.48 12.22 12.22v2.157c0 14.288-10.328 26.2-23.9 28.7l3.172-43.066zm-209.42-46.47v-4.8a3.88 3.88 0 0 1 3.872-3.872h139.8a7.5 7.5 0 1 0 0-15h-132.3V24.732l20.064 18.684c-7.02 15.513 4.394 33.146 21.394 33.146 16.867 0 28.262-17.374 21.528-32.838L256 17.614l28.854 26.1C278.127 59.17 289.5 76.56 306.382 76.56c17.026 0 28.398-17.664 21.394-33.146L347.84 24.73v67.186h-16.38a7.5 7.5 0 1 0 0 15h23.88a3.88 3.88 0 0 1 3.872 3.872v4.8a3.88 3.88 0 0 1-3.872 3.872H156.66a3.88 3.88 0 0 1-3.872-3.872zm-15.213 60.845v-2.157c0-6.737 5.48-12.22 12.22-12.22h8.52l3.172 43.066c-13.583-2.48-23.9-14.4-23.9-28.7zm-84.1 205.545c.03-19.404 11.7-36.597 29.707-43.802l64.883-25.76V497h-25v-69.328a7.5 7.5 0 1 0-15 0V497H53.3zm109.6-81.548c0-1.098.7-2.1 1.722-2.468l3.45-1.268 26.6 24v25.093a7.5 7.5 0 1 0 15 0v-11.56l23.772 21.45V497h-23.772V380.778a7.5 7.5 0 1 0-15 0V497h-31.77l-.001-196.58zm154.118 20.265l26.6-24 3.45 1.267a2.64 2.64 0 0 1 1.723 2.469V497h-31.772V320.685zM403.945 497v-69.328a7.5 7.5 0 1 0-15 0V497h-25V312.406l64.88 25.76c18.018 7.204 29.68 24.398 29.708 43.802L458.7 497z"/></svg>