<svg xmlns="http://www.w3.org/2000/svg" viewBox="0 0 512 512" xmlns:v="https://vecta.io/nano"><path d="M255.947 424.5v80c22.1 0 40-17.9 40-40s-17.9-40-40-40z" fill="#e0230d"/><path d="M255.947 424.5c5.52 0 10 17.9 10 40s-4.48 40-10 40c-22.1 0-40-17.9-40-40s17.9-40 40-40z" fill="#ff5440"/><path d="M375.947 127.42c-.05-66.13-53.86-119.92-120-119.92l80.03 99.92.08 137.3-50.032 90.004c49.63-.03 90.032-40.394 90.032-90.004l-.1-117.3z" fill="#e0230d"/><path d="M346.057 244.7l-.08-117.3c-.04-66.13-40.4-119.92-90.03-119.92-66.17 0-120 53.83-120 120v60c.06 16.47 13.53 29.8 30.05 29.8 16.57-.06 30-13.5 29.95-30v-59.8c0-33.08 26.92-60 60-60 33.06 0 59.98 26.9 60 59.96l.1 117.25c0 16.54-13.45 29.9-29.98 29.9-33.1 0-60 26.8-60 59.9v30c-.06 16.5 13.32 29.94 29.9 30h.1c16.52 0 29.94-13.3 30-29.8l-.032-29.996c33.74-4.98 60.032-43.744 60.032-90.004z" fill="#ff5440"/><path d="M255.947 417c-26.2 0-47.5 21.3-47.5 47.5s21.3 47.5 47.5 47.5 47.5-21.3 47.5-47.5-21.308-47.5-47.5-47.5zm0 80c-17.92 0-32.5-14.58-32.5-32.5s14.58-32.5 32.5-32.5 32.5 14.58 32.5 32.5-14.58 32.5-32.5 32.5zm127.5-369.6C383.398 57.156 326.202 0 255.947 0c-70.304 0-127.5 57.196-127.5 127.5v60.026c.073 20.546 16.92 37.262 37.58 37.262 20.707-.074 37.494-16.9 37.42-37.5V127.5c0-28.948 23.55-52.5 52.5-52.5 28.93 0 52.48 23.535 52.5 52.465l.04 43.628a7.5 7.5 0 0 0 7.5 7.493c4.15-.004 7.504-3.364 7.5-7.507l-.04-43.626C323.42 90.26 293.14 60 255.947 60c-37.22 0-67.5 30.28-67.5 67.5v59.814c.044 12.348-10.038 22.43-22.448 22.474-12.392 0-22.508-10-22.552-22.288v-60c0-62.033 50.467-112.5 112.5-112.5 62 0 112.457 50.432 112.5 112.423l.107 117.3c0 45.46-37.025 82.47-82.535 82.5a7.5 7.5 0 0 0-7.494 7.507l.03 29.965C278.5 377 268.418 387 256.057 387h-.083a22.4 22.4 0 0 1-15.896-6.625c-4.228-4.244-6.545-9.872-6.523-15.875v-30c0-28.9 23.55-52.392 52.505-52.392 20.663-.015 37.473-16.8 37.473-37.4l-.046-43.628a7.5 7.5 0 0 0-7.5-7.492c-4.15.005-7.504 3.366-7.5 7.508l.046 43.62c0 12.34-10.086 22.385-22.48 22.394-37.22 0-67.5 30.23-67.5 67.392v29.974a37.09 37.09 0 0 0 10.898 26.49c7.057 7.082 16.456 11.002 26.495 11.038h.1c20.602 0 37.424-16.714 37.498-37.294l-.022-22.783c50.283-3.874 90.022-46.006 90.022-97.216l-.107-117.297z"/></svg>