<?xml version="1.0" standalone="no"?>
<!DOCTYPE svg PUBLIC "-//W3C//DTD SVG 20010904//EN"
 "http://www.w3.org/TR/2001/REC-SVG-20010904/DTD/svg10.dtd">
<svg version="1.0" xmlns="http://www.w3.org/2000/svg"
 width="512.000000pt" height="512.000000pt" viewBox="0 0 512.000000 512.000000"
 preserveAspectRatio="xMidYMid meet">
<metadata>
Created by potrace 1.11, written by Peter Selinger 2001-2013
</metadata>
<g transform="translate(0.000000,512.000000) scale(0.100000,-0.100000)"
fill="#000000" stroke="none">
<path d="M1282 4771 c-5 -3 -48 -73 -96 -156 -48 -82 -91 -157 -96 -165 -68
-116 -110 -192 -110 -200 0 -6 -4 -10 -10 -10 -5 0 -10 -4 -10 -9 0 -5 -54
-102 -120 -216 -66 -114 -120 -209 -120 -211 0 -2 -13 -23 -30 -47 -16 -25
-30 -47 -30 -50 0 -3 -27 -51 -60 -107 -33 -56 -60 -103 -60 -104 0 -2 -37
-66 -81 -142 -45 -76 -91 -155 -102 -174 -10 -19 -61 -107 -112 -195 -51 -88
-102 -177 -114 -197 -40 -72 -58 -103 -91 -158 -18 -30 -33 -62 -32 -70 0 -9
132 -243 292 -520 161 -278 306 -530 322 -560 17 -30 42 -71 55 -90 12 -19 23
-39 23 -43 0 -5 8 -21 19 -35 10 -15 114 -193 231 -397 239 -414 273 -473 305
-530 l23 -40 1281 -1 1281 -1 44 76 c24 42 52 92 63 111 11 19 43 73 70 120
28 47 111 191 185 320 74 129 161 280 193 335 32 55 73 125 90 155 183 318
274 476 310 535 23 39 45 77 48 85 4 8 16 30 27 48 11 18 72 123 135 233 l115
200 -74 127 c-40 70 -83 143 -93 162 -11 19 -71 123 -133 230 -62 107 -122
211 -133 230 -10 19 -41 72 -68 118 -27 45 -49 87 -49 92 0 6 -4 10 -10 10 -5
0 -10 4 -10 9 0 5 -54 102 -120 216 -66 114 -120 211 -120 216 0 5 -4 9 -10 9
-5 0 -10 4 -10 10 0 5 -38 73 -83 152 -46 79 -147 254 -225 389 l-142 246
-1275 0 c-701 0 -1278 -3 -1283 -6z"/>
</g>
</svg>
