<svg xmlns="http://www.w3.org/2000/svg" xmlns:xlink="http://www.w3.org/1999/xlink" height="682.667" viewBox="-49 0 512 512.002" width="682.667" xmlns:v="https://vecta.io/nano"><path d="M273.5 454.5v-115c0-19.328-15.668-35-35-35h-118a10 10 0 0 1-10-10v-87h-35v97c0 19.328 15.672 35 35 35h118a10 10 0 0 1 10 10v105zm0 0" fill="#875d41"/><path d="M123.5 454.5v-50c0-19.328 15.672-35 35-35h135a10 10 0 0 0 10-10v-152h35v162c0 19.328-15.668 35-35 35h-135a10 10 0 0 0-10 10v40zm0 0" fill="#9e6f4f"/><path d="M370.5 187.5h-101v25c0 8.285 6.72 15 15 15h71c8.285 0 15-6.715 15-15zm0 0" fill="#4c843e"/><path d="M370.5 197.5v15c0 8.28-6.72 15-15 15h-30c8.28 0 15-6.72 15-15v-15zm0 0" fill="#38662d"/><path d="M333 7.5h-26c-9.664 0-17.5 7.836-17.5 17.5v27.5h61V25c0-9.664-7.836-17.5-17.5-17.5zm0 0" fill="#92d37a"/><path d="M350.5 25v17.64c-.82-.1-1.648-.14-2.5-.14h-27.5V25c0-8.98-6.777-16.39-15.5-17.38.66-.082 1.32-.12 2-.12h26A17.51 17.51 0 0 1 350.5 25zm0 0" fill="#70ba4d"/><path d="M348 42.5h-56c-12.426 0-22.5 10.074-22.5 22.5v32.5h101V65c0-12.426-10.074-22.5-22.5-22.5zm0 0" fill="#7fbf62"/><path d="M370.5 65v22.5h-30V65c0-4.63-1.398-8.93-3.79-12.5-3.602-5.38-9.45-9.12-16.21-9.86v-.14H348c.852 0 1.68.05 2.5.14 11.25 1.238 20 10.78 20 22.36zm0 0" fill="#68a044"/><path d="M370.5 87.5h-101c-11.047 0-20 8.953-20 20v45h141v-45c0-11.047-8.953-20-20-20zm0 0" fill="#6a6"/><use xlink:href="#B" fill="#508950"/><path d="M379 197.5H261c-15.187 0-27.5-12.312-27.5-27.5v-12.5c0-8.285 6.72-15 15-15h143c8.285 0 15 6.715 15 15V170c0 15.188-12.312 27.5-27.5 27.5zm0 0" fill="#538e44"/><use xlink:href="#C" fill="#426830"/><path d="M81 7.5h26c9.664 0 17.5 7.836 17.5 17.5v27.5h-61V25c0-9.664 7.836-17.5 17.5-17.5zm0 0" fill="#92d37a"/><path d="M124.5 25v17.64c-.82-.1-1.648-.14-2.5-.14H94.5V25c0-8.98-6.777-16.39-15.5-17.38.66-.082 1.32-.12 2-.12h26A17.51 17.51 0 0 1 124.5 25zm0 0" fill="#70ba4d"/><path d="M66 42.5h56c12.426 0 22.5 10.074 22.5 22.5v32.5h-101V65c0-12.426 10.074-22.5 22.5-22.5zm0 0" fill="#7fbf62"/><path d="M144.5 65v22.5h-30V65c0-4.63-1.398-8.93-3.79-12.5-3.602-5.38-9.45-9.12-16.21-9.86v-.14H122c.852 0 1.68.05 2.5.14 11.25 1.238 20 10.78 20 22.36zm0 0" fill="#68a044"/><path d="M43.5 187.5h101v25c0 8.285-6.715 15-15 15h-71c-8.28 0-15-6.715-15-15zm0 0" fill="#4c843e"/><path d="M144.5 197.5v15c0 8.28-6.72 15-15 15h-30c8.28 0 15-6.72 15-15v-15zm0 0" fill="#38662d"/><path d="M43.5 87.5h101c11.047 0 20 8.953 20 20v45h-141v-45c0-11.047 8.953-20 20-20zm0 0" fill="#6a6"/><use xlink:href="#B" x="-226" fill="#508950"/><path d="M35 197.5h118c15.188 0 27.5-12.312 27.5-27.5v-12.5c0-8.285-6.715-15-15-15h-143c-8.28 0-15 6.715-15 15V170c0 15.188 12.313 27.5 27.5 27.5zm0 0" fill="#538e44"/><use xlink:href="#C" x="-226" fill="#426830"/><path d="M305.5 479.5v-35a10 10 0 0 0-10-10h-177a10 10 0 0 0-10 10v35zm0 0" fill="#a3ccef"/><path d="M305.5 444.5v35h-30v-35c0-5.52-4.48-10-10-10h30c5.52 0 10 4.48 10 10zm0 0" fill="#54aed1"/><path d="M315.8 459.5c9.598 0 16.727 8.887 14.645 18.254l-3.332 15c-1.527 6.863-7.613 11.746-14.645 11.746H101.535a15 15 0 0 1-14.645-11.746l-3.332-15c-2.082-9.367 5.047-18.254 14.64-18.254zm0 0" fill="#9e7f56"/><path d="M330.44 477.75l-3.332 15c-1.52 6.87-7.61 11.75-14.637 11.75h-30c7.027 0 13.117-4.88 14.637-11.75l3.332-15c2.1-9.36-5.04-18.25-14.64-18.25h30c9.602 0 16.73 8.89 14.64 18.25zm0 0" fill="#87613c"/><path d="M398 135.96V107.5c0-12.562-8.473-23.18-20-26.453V65c0-13.035-8.36-24.152-20-28.28V25c0-13.785-11.215-25-25-25h-26c-13.785 0-25 11.215-25 25v11.72c-11.637 4.13-20 15.246-20 28.28v16.047c-11.527 3.273-20 13.89-20 26.453v28.46c-9.246 2.797-16 11.39-16 21.54V170c0 19.3 15.703 35 35 35h1v7.5c0 12.406 10.094 22.5 22.5 22.5H296v124.5c0 1.38-1.12 2.5-2.5 2.5H281v-22.5c0-23.434-19.062-42.5-42.5-42.5h-118c-1.38 0-2.5-1.12-2.5-2.5V235h11.5c12.406 0 22.5-10.094 22.5-22.5V205h1c19.3 0 35-15.7 35-35v-12.5c0-10.148-6.754-18.742-16-21.54V107.5c0-12.562-8.473-23.18-20-26.453V65c0-13.035-8.36-24.152-20-28.28V25c0-13.785-11.215-25-25-25H81C67.215 0 56 11.215 56 25v11.72C44.363 40.848 36 51.965 36 65v16.047C24.473 84.32 16 94.938 16 107.5v28.46c-9.246 2.797-16 11.39-16 21.54V170c0 19.3 15.703 35 35 35h1v7.5c0 12.406 10.094 22.5 22.5 22.5H68v69.5c0 23.434 19.066 42.5 42.5 42.5h118c1.38 0 2.5 1.12 2.5 2.5V362h-72.5c-23.434 0-42.5 19.066-42.5 42.5v22.7c-8.465 1.223-15 8.504-15 17.3v7.5h-2.8c-6.86 0-13.258 3.07-17.55 8.422s-5.902 12.262-4.414 18.957l3.336 15A22.36 22.36 0 0 0 101.531 512H260.5a7.5 7.5 0 1 0 0-15H101.53c-3.54 0-6.55-2.414-7.32-5.87l-3.332-15c-.496-2.234.04-4.54 1.473-6.32S95.914 467 98.2 467h10.3a7.5 7.5 0 0 0 7.5-7.5v-15c0-1.38 1.12-2.5 2.5-2.5h177c1.38 0 2.5 1.12 2.5 2.5v7.5H143.5c-4.14 0-7.5 3.36-7.5 7.5a7.5 7.5 0 0 0 7.5 7.5h172.3a7.46 7.46 0 0 1 5.852 2.809c1.434 1.785 1.97 4.086 1.473 6.32l-3.336 15c-.766 3.457-3.777 5.875-7.32 5.875H295.5a7.5 7.5 0 0 0-7.5 7.5c0 4.14 3.36 7.5 7.5 7.5h16.97c10.625 0 19.66-7.246 21.965-17.62l3.332-15c1.488-6.695-.12-13.61-4.414-18.96A22.39 22.39 0 0 0 315.801 452H313v-7.5c0-9.648-7.852-17.5-17.5-17.5H281v-15h22.5c23.438 0 42.5-19.066 42.5-42.5V235h9.5c12.406 0 22.5-10.094 22.5-22.5V205h1c19.3 0 35-15.7 35-35v-12.5c0-10.148-6.754-18.742-16-21.54zM307 15h26c5.516 0 10 4.484 10 10v10h-46V25c0-5.516 4.488-10 10-10zm-15 35h56a15.02 15.02 0 0 1 15 15v15h-86V65c0-8.27 6.73-15 15-15zm-22.5 45h101c6.895 0 12.5 5.605 12.5 12.5V135H257v-27.5c0-6.895 5.61-12.5 12.5-12.5zM81 15h26c5.516 0 10 4.484 10 10v10H71V25c0-5.516 4.488-10 10-10zM66 50h56a15.02 15.02 0 0 1 15 15v15H51V65c0-8.27 6.73-15 15-15zM43.5 95h101c6.895 0 12.5 5.605 12.5 12.5V135H31v-27.5c0-6.895 5.61-12.5 12.5-12.5zM15 170v-12.5a7.51 7.51 0 0 1 7.5-7.5h143a7.51 7.51 0 0 1 7.5 7.5V170c0 11.027-8.973 20-20 20H35c-11.027 0-20-8.973-20-20zm36 42.5V205h86v7.5a7.51 7.51 0 0 1-7.5 7.5h-71a7.51 7.51 0 0 1-7.5-7.5zM228.5 332h-118C95.34 332 83 319.664 83 304.5V235h20v59.5c0 9.648 7.852 17.5 17.5 17.5h118c15.164 0 27.5 12.336 27.5 27.5V362h-20v-12.5c0-9.648-7.852-17.5-17.5-17.5zM166 427v-12.5c0-1.38 1.12-2.5 2.5-2.5H231v15zm100 0h-20v-15h20zm65-57.5c0 15.164-12.336 27.5-27.5 27.5h-135c-9.648 0-17.5 7.852-17.5 17.5V427h-20v-22.5c0-15.164 12.34-27.5 27.5-27.5h135c9.648 0 17.5-7.852 17.5-17.5V235h20zm32-157a7.51 7.51 0 0 1-7.5 7.5h-71a7.51 7.51 0 0 1-7.5-7.5V205h86zm36-42.5c0 11.027-8.973 20-20 20H261c-11.027 0-20-8.973-20-20v-12.5a7.51 7.51 0 0 1 7.5-7.5h143a7.51 7.51 0 0 1 7.5 7.5zm0 0"/><defs ><path id="B" d="M390.5 107.5v35h-30v-35a19.87 19.87 0 0 0-2.687-10c-3.453-5.98-9.9-10-17.312-10h30c11.05 0 20 8.95 20 20zm0 0"/><path id="C" d="M406.5 157.5V170a27.5 27.5 0 0 1-27.5 27.5h-30c8.54 0 16.18-3.89 21.223-10 3.918-4.762 6.277-10.852 6.277-17.5v-12.5c0-1.75-.3-3.43-.86-5-2.05-5.82-7.61-10-14.14-10h30c8.28 0 15 6.72 15 15zm0 0"/></defs></svg>