<svg xmlns="http://www.w3.org/2000/svg" xmlns:xlink="http://www.w3.org/1999/xlink" height="682.667" viewBox="-52 0 512 512.002" width="682.667" xmlns:v="https://vecta.io/nano"><style><![CDATA[.B{fill:#4c843e}.C{fill:#38662d}.D{fill:#92d37a}.E{fill:#7fbf62}]]></style><path d="M400.418 334h-121l1.285-2.25C292.277 311.5 313.813 299 337.14 299h5.56a65 65 0 0 1 56.434 32.75zm0 0" class="D"/><path d="M342.7 369h-5.56c-23.328 0-44.863-12.5-56.437-32.75l-1.285-2.25h121l-1.285 2.25A65 65 0 0 1 342.699 369zm0 0" class="E"/><path d="M400.418 134h-121l1.285-2.25C292.277 111.5 313.813 99 337.14 99h5.56a65 65 0 0 1 56.434 32.75zm0 0" class="D"/><path d="M342.7 169h-5.56c-23.328 0-44.863-12.5-56.437-32.75l-1.285-2.25h121l-1.285 2.25A65 65 0 0 1 342.699 169zm0 0" class="E"/><path d="M233.418 134h-121l1.285-2.25C125.277 111.5 146.813 99 170.14 99h5.56a65 65 0 0 1 56.434 32.75zm0 0" class="D"/><path d="M175.7 169h-5.56c-23.328 0-44.863-12.5-56.437-32.75l-1.285-2.25h121l-1.285 2.25A65 65 0 0 1 175.699 169zm0 0" class="E"/><path d="M128.418 334h-121l1.285-2.25C20.277 311.5 41.813 299 65.14 299h5.56a65 65 0 0 1 56.434 32.75zm0 0" class="D"/><path d="M70.7 369h-5.56c-23.328 0-44.863-12.5-56.437-32.75L7.418 334h121l-1.285 2.25A65 65 0 0 1 70.699 369zm0 0" class="E"/><path d="M233.918 20h45v439.5h-45zm0 0" fill="#68a55e"/><path d="M278.918 459.5h-30V20h30zm0 0" fill="#518e40"/><path d="M128.918 234h45v225.5h-45zm0 0" fill="#68a55e"/><path d="M173.918 459.5h-30V234h30zm0 0" fill="#518e40"/><use xlink:href="#B" class="B"/><use xlink:href="#C" class="C"/><use xlink:href="#B" y="-100" class="B"/><use xlink:href="#C" y="-100" class="C"/><use xlink:href="#B" y="-200" class="B"/><use xlink:href="#C" y="-200" class="C"/><use xlink:href="#B" y="-314" class="B"/><use xlink:href="#C" y="-314" class="C"/><use xlink:href="#B" x="-105" class="B"/><use xlink:href="#C" x="-105" class="C"/><use xlink:href="#B" x="-105" y="-100" class="B"/><use xlink:href="#C" x="-105" y="-100" class="C"/><path d="M302.418 479.5v-35a10 10 0 0 0-10-10h-177a10 10 0 0 0-10 10v35zm0 0" fill="#96bc5e"/><path d="M302.418 444.5v15h-30v-15c0-5.52-4.48-10-10-10h30c5.52 0 10 4.48 10 10zm0 0" fill="#85993d"/><path d="M312.72 459.5c9.598 0 16.727 8.887 14.645 18.254l-3.332 15c-1.527 6.863-7.613 11.746-14.645 11.746H98.453c-7.03 0-13.117-4.883-14.645-11.746l-3.332-15c-2.082-9.367 5.047-18.254 14.64-18.254zm0 0" fill="#9e7f56"/><path d="M327.36 477.75l-3.332 15c-1.52 6.87-7.61 11.75-14.637 11.75h-30c7.027 0 13.117-4.88 14.637-11.75l3.332-15c2.1-9.36-5.04-18.25-14.64-18.25h30c9.602 0 16.73 8.89 14.64 18.25zm0 0" fill="#87613c"/><path d="M407.824 333.496c-.13-1.88-1.14-3.973-2.242-5.465-12.875-22.535-36.996-36.53-62.945-36.53h-5.562c-19.148 0-37.234 7.46-50.72 20.69v-58.57c5.445-1.348 9.5-6.266 9.5-12.12v-15c0-5.855-4.055-10.773-9.5-12.12v-58.574c13.484 13.234 31.57 20.695 50.72 20.695h5.563c25.95 0 50.07-13.996 62.945-36.53 2.836-3.86 2.84-8.04 0-11.937-12.875-22.535-36.996-36.53-62.945-36.53h-5.562c-19.145 0-37.234 7.46-50.72 20.695V39.62c5.445-1.348 9.5-6.266 9.5-12.12v-15c0-6.895-5.605-12.5-12.5-12.5h-54c-6.895 0-12.5 5.605-12.5 12.5v15c0 5.855 4.055 10.773 9.5 12.12v72.582C212.867 98.973 194.77 91.5 175.637 91.5h-5.562c-25.95 0-50.07 13.996-62.945 36.53-2.836 3.89-2.836 8.074 0 11.938 12.875 22.535 36.996 36.53 62.945 36.53h5.563c19.133 0 37.23-7.473 50.72-20.707v58.586c-5.445 1.348-9.5 6.266-9.5 12.12v15c0 5.855 4.055 10.773 9.5 12.12v60.758c-5.445 1.348-9.5 6.266-9.5 12.12v15c0 5.855 4.055 10.773 9.5 12.12V427h-45v-73.38c5.445-1.348 9.5-6.266 9.5-12.12v-15c0-5.855-4.055-10.773-9.5-12.12V253.62c5.445-1.348 9.5-6.266 9.5-12.12v-15c0-6.895-5.605-12.5-12.5-12.5h-54c-6.89 0-12.5 5.605-12.5 12.5v15c0 5.855 4.055 10.773 9.5 12.12v58.582c-13.488-13.23-31.586-20.703-50.72-20.703h-5.562c-25.95 0-50.07 13.996-62.945 36.53-2.836 3.89-2.836 8.074 0 11.938 12.875 22.535 36.996 36.53 62.945 36.53h5.563c19.133 0 37.23-7.473 50.72-20.707V427h-6c-9.648 0-17.5 7.852-17.5 17.5v7.5h-2.8c-6.86 0-13.258 3.07-17.55 8.422s-5.902 12.262-4.414 18.957l3.336 15A22.36 22.36 0 0 0 98.387 512h158.97a7.5 7.5 0 1 0 0-15H98.387a7.45 7.45 0 0 1-7.32-5.871l-3.332-15c-.496-2.234.04-4.54 1.47-6.32s3.563-2.81 5.852-2.81h10.3a7.5 7.5 0 0 0 7.5-7.5v-15c0-1.38 1.12-2.5 2.5-2.5h177c1.38 0 2.5 1.12 2.5 2.5v7.5h-154.5c-4.14 0-7.5 3.36-7.5 7.5a7.5 7.5 0 0 0 7.5 7.5h172.3a7.46 7.46 0 0 1 5.852 2.809 7.47 7.47 0 0 1 1.473 6.32l-3.336 15c-.766 3.457-3.777 5.875-7.32 5.875h-16.97a7.5 7.5 0 0 0-7.5 7.5c0 4.14 3.36 7.5 7.5 7.5h16.97c10.625 0 19.66-7.246 21.965-17.62l3.332-15a22.39 22.39 0 0 0-4.41-18.961c-4.293-5.352-10.69-8.418-17.555-8.418h-2.8v-7.5a17.52 17.52 0 0 0-17.5-17.5h-6V355.81a72.22 72.22 0 0 0 50.723 20.695h5.56c25.953 0 50.07-14 62.95-36.53 1.348-1.773 2.39-4.234 2.238-6.477-.012-.156.012.168 0 0zM342.637 306.5c16.875 0 32.77 7.465 43.578 20h-90.36a12.32 12.32 0 0 0-.23-2.355C306.438 312.88 321.3 306.5 337.078 306.5zM233.863 339h-2.008v-10h49v10zm37.492-299v74h-30V40zm-39.5 99v-10h49v10zm9.5 15h30v60h-30zm37.492 75h2.008v10h-49v-10zm-7.492 25v60h-30v-60zm71.28-92.5h-5.562a57.25 57.25 0 0 1-41.445-17.672 12.35 12.35 0 0 0 .227-2.328h90.355c-10.81 12.535-26.703 20-43.574 20zm0-55c16.875 0 32.77 7.465 43.578 20h-90.36a12.35 12.35 0 0 0-.23-2.355 57.27 57.27 0 0 1 41.449-17.645zM231.855 15h49v10h-49zm-61.78 91.5h5.563c15.758 0 30.637 6.383 41.45 17.645a12.35 12.35 0 0 0-.23 2.355h-90.36c10.81-12.54 26.703-20 43.578-20zm5.563 55h-5.562c-16.87 0-32.766-7.465-43.57-20h90.352c0 .797.082 1.574.227 2.332a57.28 57.28 0 0 1-41.445 17.668zm-9.28 92.5v60h-30v-60zm-39.5 85v-10h49v10h-1.992zm0-110h49v10h-49zm-61.78 77.5h5.563c15.758 0 30.637 6.383 41.45 17.645a12.35 12.35 0 0 0-.23 2.355h-90.36c10.81-12.54 26.703-20 43.578-20zm5.563 55h-5.562c-16.87 0-32.766-7.465-43.57-20h90.352c0 .797.082 1.574.227 2.332A57.28 57.28 0 0 1 70.637 361.5zm65.72-7.5h30v73h-30zm105 73v-73h30v73zm101.28-65.5h-5.562c-15.77 0-30.64-6.38-41.45-17.645a12.64 12.64 0 0 0 .23-2.355h90.36c-10.81 12.54-26.703 20-43.578 20zm0 0"/><defs ><path id="B" d="M283.418 346.5h-54a5 5 0 0 1-5-5v-15a5 5 0 0 1 5-5h54a5 5 0 0 1 5 5v15a5 5 0 0 1-5 5zm0 0"/><path id="C" d="M288.418 326.5v15a5 5 0 0 1-5 5h-30a5 5 0 0 0 5-5v-15a5 5 0 0 0-5-5h30a5 5 0 0 1 5 5zm0 0"/></defs></svg>