<svg xmlns="http://www.w3.org/2000/svg" height="682.667" viewBox="-13 0 512 512.001" width="682.667" xmlns:v="https://vecta.io/nano"><path d="M281.156 190.504V230.5c0 16.57-13.43 30-29.996 30h-95.5c-57.715 0-104.5 46.79-104.5 104.504 0 26.055 9.535 49.88 25.305 68.184l9.688 12.148 65.305-10.836c-36.066 0-65.305-29.234-65.305-65.305v-8.887c0-36.07 29.238-65.31 65.305-65.31h104.52c33.137 0 60-26.863 60-60v-45.332zm0 0" fill="#d19f62"/><path d="M229.8 479.5v-35c0-5.52-4.477-10-10-10H42.81c-5.523 0-10 4.48-10 10v35zm0 0" fill="#e8ba5d"/><path d="M229.797 444.5v35h-30v-35a10 10 0 0 0-10-10h30a10 10 0 0 1 10 10zm0 0" fill="#d69941"/><path d="M240.102 459.5c9.598 0 16.727 8.887 14.645 18.254l-3.336 15c-1.523 6.863-7.61 11.746-14.64 11.746H25.84a15 15 0 0 1-14.641-11.746l-3.332-15C5.785 468.387 12.9 459.5 22.508 459.5zm0 0" fill="#9e7f56"/><path d="M254.75 477.75l-3.34 15c-1.523 6.87-7.613 11.75-14.64 11.75h-30c7.027 0 13.117-4.88 14.64-11.75l3.34-15c2.078-9.36-5.05-18.25-14.652-18.25h30c9.602 0 16.73 8.89 14.652 18.25zm0 0" fill="#87613c"/><path d="M298.8 135.676l-72.14 57.328-56.4 71.227a92.49 92.49 0 0 0 72.496-26.82l29.238-29.238a92.49 92.49 0 0 0 26.816-72.496zm0 0" fill="#92d37a"/><g fill="#70ba4d"><path d="M298.8 135.676L170.25 264.23a92.5 92.5 0 0 1 26.82-72.5l29.234-29.234c19.094-19.094 45.574-28.89 72.496-26.82zm0 0"/><path d="M426.703 7.777l-77.547 64.4-51.008 64.14a92.5 92.5 0 0 0 72.5-26.82l29.234-29.234c19.094-19.094 28.89-45.574 26.82-72.496zm0 0"/></g><g fill="#92d37a"><path d="M426.703 7.777l-128.555 128.55a92.49 92.49 0 0 1 26.82-72.496l29.238-29.238a92.5 92.5 0 0 1 72.496-26.816zm0 0"/><path d="M298.148 135.676L357.656 213l69.047 51.23a92.49 92.49 0 0 0-26.82-72.496l-29.238-29.238a92.49 92.49 0 0 0-72.496-26.82zm0 0"/></g><g fill="#70ba4d"><path d="M298.148 135.676L426.703 264.23a92.49 92.49 0 0 1-72.496-26.82l-29.238-29.238c-19.094-19.094-28.89-45.574-26.82-72.496zm0 0"/><path d="M170.25 7.777L232 82.844l66.8 53.484a92.5 92.5 0 0 0-26.816-72.496l-29.238-29.238c-19.094-19.1-45.574-28.887-72.496-26.816zm0 0"/></g><path d="M170.25 7.777l128.555 128.55a92.5 92.5 0 0 1-72.5-26.82L197.07 80.273C177.977 61.18 168.18 34.7 170.25 7.777zm0 0" fill="#92d37a"/><path d="M298.938 136.004l-90.902-8-90.898 8c17.57 20.5 43.227 32.297 70.227 32.297h41.348a92.5 92.5 0 0 0 70.227-32.297zm0 0" fill="#68a044"/><path d="M298.938 136.004h-181.8c17.57-20.504 43.227-32.3 70.227-32.3h41.348a92.49 92.49 0 0 1 70.227 32.301zm0 0" fill="#7fbf62"/><path d="M479.816 136.004l-92.656-10-89.145 10c17.57 20.5 43.227 32.297 70.227 32.297H409.6a92.5 92.5 0 0 0 70.227-32.297zm0 0" fill="#68a044"/><path d="M298.016 136.004c17.57-20.504 43.227-32.3 70.227-32.3H409.6a92.49 92.49 0 0 1 70.227 32.301zm0 0" fill="#7fbf62"/><path d="M208.977 413c0 11.875-9.625 21.5-21.5 21.5s-21.5-9.625-21.5-21.5 9.625-21.5 21.5-21.5 21.5 9.625 21.5 21.5zm0 0" fill="#875d41"/><path d="M176.977 407c0 15.188-12.312 27.5-27.5 27.5s-27.5-12.312-27.5-27.5 12.313-27.5 27.5-27.5 27.5 12.313 27.5 27.5zm0 0" fill="#9e6f4f"/><path d="M315.977 210.5h-35a15 15 0 0 1-15-14.996v-44.5c0-8.285 6.715-15 15-15h35c8.285 0 15 6.715 15 15v44.5a15 15 0 0 1-15 14.996zm0 0" fill="#ad7949"/><path d="M330.977 151.004v44.5c0 8.277-6.72 14.996-15 14.996h-30c8.28 0 15-6.72 15-14.996v-43c0-8.28-6.72-16.5-15-16.5h30c8.28 0 15 6.72 15 15zm0 0" fill="#875d41"/><path d="M487.03 138.012c.664-2.383.086-4.996-1.523-6.89a99.87 99.87 0 0 0-75.918-34.918h-15.027l10.625-10.625c20.645-20.645 31.207-49.172 28.996-78.28-.22-3.668-3.238-6.707-6.906-7a99.85 99.85 0 0 0-78.375 28.992l-29.238 29.238c-9.086 9.086-16.227 19.758-21.187 31.34-4.96-11.582-12.105-22.254-21.187-31.34L248.05 29.29C227.406 8.648 198.883-1.914 169.773.293c-3.668.23-6.71 3.23-7 6.906-2.242 29.145 8.324 57.71 28.988 78.38l10.63 10.625h-15.027c-29.227 0-56.898 12.727-75.922 34.918-2.402 2.813-2.348 7.06.06 9.828a99.87 99.87 0 0 0 75.863 34.855h15.027l-10.63 10.625c-17.863 17.867-28.172 41.633-29.195 66.574h-6.906c-61.758 0-112 50.242-112 112 0 22.164 6.594 43.727 18.742 62H42.805c-9.648 0-17.496 7.852-17.496 17.5v7.5h-2.8a22.38 22.38 0 0 0-17.551 8.418 22.4 22.4 0 0 0-4.414 18.961l3.332 15C6.184 504.758 15.215 512 25.84 512H184.8a7.5 7.5 0 1 0 0-15H25.84a7.45 7.45 0 0 1-7.32-5.871l-3.332-15a7.47 7.47 0 0 1 1.469-6.32c1.434-1.78 3.563-2.805 5.852-2.805h10.3a7.5 7.5 0 0 0 7.5-7.5v-15c0-1.38 1.12-2.5 2.5-2.5h176.996c1.38 0 2.5 1.12 2.5 2.5v7.5h-154.5a7.5 7.5 0 0 0-7.5 7.5c0 4.14 3.36 7.5 7.5 7.5h172.297a7.46 7.46 0 0 1 5.852 2.805c1.43 1.785 1.97 4.1 1.473 6.32l-3.336 15a7.45 7.45 0 0 1-7.32 5.871h-16.965a7.5 7.5 0 1 0 0 15h16.965a22.36 22.36 0 0 0 21.965-17.617l3.332-15a22.4 22.4 0 0 0-4.414-18.961c-4.293-5.352-10.687-8.418-17.55-8.418h-2.8v-7.5c0-9.648-7.848-17.5-17.5-17.5h-6.937c2.3-4.152 3.613-8.926 3.613-14.004 0-15.988-13.008-29-29-29-3.488 0-6.918.633-10.148 1.84-6.398-8.402-16.5-13.84-27.852-13.84-19.297 0-35 15.703-35 35a35.13 35.13 0 0 0 .746 7.188c-13.14-10.605-21.57-26.828-21.57-44.992v-8.887c0-31.875 25.934-57.81 57.805-57.81h104.52c37.223 0 67.5-30.277 67.5-67.5v-17.715l25.426 25.43c18.844 18.84 44.25 29.29 70.676 29.285 5.512 0 14.145.38 14.61-7.293 2.21-29.11-8.352-57.637-29-78.28L394.563 175.8h15.03a99.88 99.88 0 0 0 75.859-34.852c.723-.863 1.277-1.848 1.578-2.937zm-26.04-9.508H316.836c14.652-11.137 32.652-17.3 51.406-17.3H409.6c18.754 0 36.75 6.164 51.402 17.3zm-137.516 22.5v44.5a7.51 7.51 0 0 1-7.5 7.496h-35a7.51 7.51 0 0 1-7.5-7.496v-44.5a7.51 7.51 0 0 1 7.5-7.5h35a7.51 7.51 0 0 1 7.5 7.5zm-61.484 56.555l-24.55 24.55c-13.258 13.258-30.34 21.617-48.57 24.105l69.605-69.605v8.895c0 4.43 1.293 8.566 3.516 12.055zm-13.94 35.156l25.605-25.61V230.5c0 12.406-10.094 22.5-22.496 22.5h-15.18a100.2 100.2 0 0 0 12.07-10.285zM394.582 74.97l-21.234 21.234h-5.105a100.35 100.35 0 0 0-21.75 2.387l72.2-72.195a84.89 84.89 0 0 1-24.109 48.574zm-64.31-5.836l29.234-29.234C372.77 26.637 389.855 18.27 408.1 15.78L306.168 117.703c2.508-18.238 10.902-35.367 24.105-48.57zm-63.594.004c13.2 13.195 21.6 30.328 24.098 48.563l-101.9-101.914a84.89 84.89 0 0 1 48.574 24.109zm-44.023 26.117L202.37 74.97c-13.262-13.262-21.63-30.348-24.117-48.582L250.457 98.6c-7.07-1.57-14.36-2.387-21.746-2.387h-5.262c-.234-.332-.496-.652-.793-.95zm-35.293 15.95h41.348c18.754 0 36.754 6.164 51.406 17.3h-144.16c14.652-11.137 32.652-17.3 51.406-17.3zm-51.398 32.3h123.8a22.39 22.39 0 0 0-1.289 7.5v4.39c-9.547 3.574-19.547 5.406-29.766 5.406h-41.348a84.89 84.89 0 0 1-51.398-17.297zm66.406 53.53l21.234-21.234h5.105c7.375 0 14.656-.828 21.777-2.418l-72.234 72.234c2.488-18.234 10.855-35.32 24.117-48.582zM187.477 399a14.02 14.02 0 0 1 14 14 14.02 14.02 0 0 1-14 14c-2.812 0-5.5-.852-7.777-2.38A34.78 34.78 0 0 0 184.477 407a34.93 34.93 0 0 0-.812-7.473c1.234-.348 2.512-.527 3.813-.527zm-58 8c0-11.027 8.973-20 20-20s20 8.973 20 20c0 10.805-8.617 19.613-19.34 19.97-1.137-.027-2.262-.086-3.383-.176-9.742-1.336-17.277-9.687-17.277-19.793zm126.5-119.5h-104.52c-40.145 0-72.805 32.66-72.805 72.81v8.887c0 23.54 11.234 44.492 28.617 57.81H81.1c-14.465-17.383-22.43-39.32-22.43-62 0-53.488 43.516-97 97-97h8.11c.137.23.29.453.445.672 1.297 1.758 3.3 2.836 5.457 3.03 2.574.2 5.145.297 7.703.297 9.547 0 18.957-1.37 27.98-4h45.805c20.676 0 37.496-16.824 37.496-37.5v-12.5h19.82v17c0 28.945-23.55 52.496-52.5 52.496zm103.53-55.39l-24.55-24.55c2.227-3.488 3.52-7.62 3.52-12.055v-8.895l69.613 69.613c-18.234-2.484-35.32-10.855-48.582-24.113zm35.074-35.074a84.89 84.89 0 0 1 24.109 48.578l-72.195-72.195c7.105 1.582 14.37 2.383 21.746 2.383h5.105zm-26.34-36.234c-10.234 0-20.227-1.828-29.766-5.398v-4.398a22.39 22.39 0 0 0-1.289-7.5h123.8a84.89 84.89 0 0 1-51.398 17.297zm0 0"/></svg>